<svg xmlns="http://www.w3.org/2000/svg" fill="none" viewBox="0.5 0 500 130">
<title>Call of Duty: Black Ops 7 logo</title>
<g clip-path="url(#clip0_428_3854)">
<path d="M483.169 100.056H499.425L480.476 126.258C479.329 127.84 477.42 128.793 475.379 128.793H467.819H462.384L483.157 100.068L483.169 100.056ZM495.367 87.8414H448.954L455.234 94.7572C457.263 97.0745 458.809 98.366 460.512 98.885H500.271L500.488 98.5712V92.6451C500.488 89.9898 498.193 87.8293 495.355 87.8293L495.367 87.8414Z" fill="#000000"/>
<path d="M202.674 88.7104H163.024C160.983 88.7104 159.413 89.4949 158.29 91.0519C157.167 92.6089 156.611 94.8417 156.611 97.7504V120.96C156.611 123.833 157.167 126.053 158.29 127.634C159.413 129.215 160.995 130 163.024 130H202.674C204.739 130 206.321 129.215 207.432 127.634C208.543 126.053 209.099 123.833 209.099 120.96V112.898H194.824V116.76C194.824 117.013 194.763 117.218 194.655 117.363C194.534 117.508 194.389 117.581 194.208 117.581H171.502C171.321 117.581 171.176 117.508 171.056 117.363C170.935 117.218 170.886 117.013 170.886 116.76V101.939C170.886 101.685 170.947 101.48 171.056 101.335C171.176 101.19 171.321 101.118 171.502 101.118H194.208C194.389 101.118 194.534 101.19 194.655 101.335C194.775 101.48 194.824 101.685 194.824 101.939V105.752H209.099V97.7504C209.099 94.8417 208.543 92.6089 207.432 91.0519C206.321 89.4949 204.739 88.7104 202.674 88.7104ZM322.215 88.5535H281.563C279.522 88.5535 277.952 89.338 276.829 90.895C275.705 92.452 275.15 94.6848 275.15 97.5935V120.791C275.15 123.664 275.705 125.884 276.829 127.465C277.952 129.047 279.534 129.831 281.563 129.831H322.215C324.28 129.831 325.862 129.047 326.973 127.465C328.085 125.884 328.64 123.664 328.64 120.791V97.5935C328.64 94.6848 328.085 92.452 326.973 90.895C325.862 89.338 324.28 88.5535 322.215 88.5535ZM314.329 116.603C314.329 116.856 314.268 117.062 314.159 117.206C314.039 117.351 313.894 117.424 313.713 117.424H290.041C289.86 117.424 289.715 117.351 289.594 117.206C289.473 117.062 289.425 116.856 289.425 116.603V101.794C289.425 101.54 289.485 101.335 289.594 101.19C289.715 101.045 289.86 100.973 290.041 100.973H313.713C313.894 100.973 314.039 101.045 314.159 101.19C314.28 101.335 314.329 101.54 314.329 101.794V116.603ZM376.249 88.7708H331.309V129.614H345.585V119.101H376.249C378.29 119.101 379.86 118.317 380.971 116.76C382.082 115.203 382.638 112.982 382.638 110.11V97.7504C382.638 94.8779 382.082 92.6692 380.971 91.1002C379.86 89.5432 378.29 88.7587 376.249 88.7587V88.7708ZM368.326 106.851C368.326 107.104 368.266 107.309 368.157 107.454C368.036 107.599 367.891 107.672 367.71 107.672H345.585V100.152H367.71C368.121 100.152 368.326 100.442 368.326 101.021V106.851ZM47.5411 109.747H47.1184V108.444H47.2391C49.0749 108.444 50.4396 107.792 51.3575 106.489C52.2754 105.185 52.7343 103.133 52.7343 100.333V96.8452C52.7343 94.4072 52.1304 92.4882 50.9106 91.076C49.7029 89.6639 48.0242 88.9518 45.8865 88.9518H0.5V129.807H46.1401C48.3019 129.807 50.029 129.071 51.3092 127.598C52.5894 126.126 53.2295 124.026 53.2295 121.31V117.556C53.2295 112.367 51.3333 109.772 47.5411 109.772V109.747ZM14.7754 98.8488H37.7947C38.2053 98.8488 38.4106 99.1384 38.4106 99.7178V103.689C38.4106 104.268 38.2053 104.558 37.7947 104.558H14.7754V98.8367V98.8488ZM38.9058 119.005C38.9058 119.584 38.7005 119.874 38.2899 119.874H14.7754V113.61H38.2899C38.7005 113.61 38.9058 113.899 38.9058 114.479V119.005ZM430.041 104.835L397.517 102.385C397.058 102.385 396.816 102.059 396.816 101.407V100.587C396.816 100.333 396.865 100.14 396.973 100.02C397.082 99.8867 397.203 99.8264 397.36 99.8264H423.35C423.556 99.8264 423.7 99.8867 423.773 99.9954C423.845 100.104 423.894 100.285 423.894 100.538V102.445L435.355 100.249L435.379 96.6763C435.379 94.0934 434.896 92.1019 433.93 90.6898C432.964 89.2777 431.587 88.5656 429.812 88.5656H390.899C389.063 88.5656 387.65 89.2777 386.647 90.6898C385.645 92.1019 385.138 94.1055 385.138 96.6763V105.173C385.138 110.327 387.034 113.055 390.826 113.344L423.35 115.746C423.604 115.782 423.785 115.879 423.894 116.024C423.99 116.168 424.051 116.386 424.051 116.675V117.822C424.051 118.329 423.87 118.582 423.507 118.582H396.78C396.442 118.582 396.273 118.341 396.273 117.87V115.456H384.751V121.732C384.751 124.315 385.246 126.307 386.225 127.719C387.203 129.131 388.58 129.843 390.367 129.843H429.932C431.792 129.843 433.217 129.131 434.208 127.719C435.198 126.307 435.693 124.303 435.693 121.732V113.127C435.693 110.653 435.246 108.697 434.341 107.249C433.435 105.801 432.01 105.004 430.053 104.847L430.041 104.835ZM69.6184 88.9277H55.343V129.783H96.9251V115.891H69.6184V88.9277ZM115.681 88.9277L97.5773 129.783H113.048L116.14 121.998H137.106L140.198 129.783H156.635L138.266 88.9277H115.681ZM120.403 111.317L125.319 98.9453H127.988L132.867 111.317H120.415H120.403ZM261.768 88.9277H242.626L228.7 102.108H225.983V88.9277H211.708V129.783H225.983V115.999H228.737L242.312 129.783H261.998L240.838 109.241L261.768 88.9277Z" fill="black"/>
<path d="M231.297 15.9558C231.043 15.6903 230.681 15.5575 230.307 15.5575H215.585C215.21 15.5575 214.848 15.6782 214.594 15.9558C213.7 16.9093 212.964 17.8386 211.756 19.3956C211.575 19.637 211.478 19.9629 211.478 20.2646V44.6087C211.478 44.9104 211.575 45.2363 211.756 45.4777C212.964 47.0346 213.7 47.964 214.594 48.9175C214.848 49.183 215.21 49.3158 215.585 49.3158H230.307C230.681 49.3158 231.043 49.1951 231.297 48.9175C232.191 47.964 232.928 47.0346 234.135 45.4777C234.316 45.2363 234.413 44.9104 234.413 44.6087V20.2646C234.413 19.9629 234.316 19.637 234.135 19.3956C232.928 17.8386 232.191 16.9093 231.297 15.9558ZM225.621 42.0137H220.271V22.8233H225.621V42.0137ZM126.587 0.893139C126.019 0.289667 125.198 0 124.365 0H95.2947C94.4613 0 93.6401 0.277597 93.0725 0.88107C91.0676 3.01736 87.8188 6.68647 85.1135 10.1625C84.6908 10.7056 84.4855 11.4298 84.4855 12.1057V78.0048H104.171V55.0246H115.476V78.0048H135.162V12.1177C135.162 11.4418 134.957 10.7056 134.534 10.1745C131.829 6.69854 128.58 3.01736 126.575 0.893139M115.488 42.0499H104.184V12.9988H115.488V42.062V42.0499ZM71.442 0.893139C70.8744 0.289667 70.0531 0 69.2198 0H40.1498C39.3164 0 38.4952 0.277597 37.9275 0.88107C35.9227 3.01736 32.6739 6.68647 29.9686 10.1745C29.5459 10.7177 29.3406 11.4418 29.3406 12.1177V65.8992C29.3406 66.5751 29.5459 67.3113 29.9686 67.8424C32.6739 71.3184 35.9227 74.9995 37.9275 77.1358C38.4952 77.7393 39.3164 78.0169 40.1498 78.0169H69.2198C70.0531 78.0169 70.8744 77.7393 71.442 77.1358C73.4469 74.9995 76.6957 71.3304 79.401 67.8424C79.8237 67.2992 80.029 66.5751 80.029 65.8992V44.2949H60.343V65.0181H49.0386V12.9988H60.343V33.722H80.029V12.1177C80.029 11.4418 79.8237 10.7056 79.401 10.1745C76.6957 6.69854 73.4469 3.01736 71.442 0.893139ZM201.418 0H179.86V78.0048H216.502V63.2922H201.418V0ZM161.08 0H139.522V78.0048H176.164V63.2922H161.08V0ZM308.7 0.893139C308.133 0.277597 307.312 0 306.478 0H266.611V78.0048H306.478C307.312 78.0048 308.133 77.7272 308.7 77.1238C310.705 74.9875 313.954 71.3184 316.659 67.8303C317.082 67.2872 317.287 66.563 317.287 65.8871V12.1177C317.287 11.4418 317.082 10.7056 316.659 10.1745C313.954 6.69854 310.705 3.01736 308.7 0.893139ZM297.589 65.0181H286.297V12.9988H297.589V65.0181ZM471.382 34.0117V0H452.976V28.9908L448.217 34.6514H446.237L441.454 28.9908V0H423.085V34.0117C423.085 34.6755 423.314 35.3152 423.737 35.8342L436.611 51.3917V78.0169H457.807V51.3917L470.717 35.8342C471.14 35.3152 471.37 34.6755 471.37 34.0117M376.696 15.9679H388.121V78.0048H407.807V15.9679H419.232V0H376.696V15.9679ZM238.169 49.2916H246.961V38.1515H256.382V30.3184H246.961V23.3906H257.589V15.5575H238.169V49.2916ZM352.795 65.0181H341.49V0H321.804V65.8992C321.804 66.5751 322.01 67.3113 322.432 67.8424C325.138 71.3184 328.386 74.9995 330.391 77.1358C330.959 77.7393 331.78 78.0169 332.614 78.0169H361.684C362.517 78.0169 363.338 77.7393 363.906 77.1358C365.911 74.9995 369.159 71.3304 371.865 67.8424C372.287 67.2992 372.493 66.5751 372.493 65.8992V0H352.807V65.0181H352.795ZM475.355 70.6183C475.246 70.4976 475.114 70.4373 474.957 70.4011V70.1597H475.44C475.85 70.1597 476.164 70.0511 476.382 69.8217C476.599 69.6045 476.72 69.3028 476.72 68.9165V67.432C476.72 66.9854 476.599 66.6475 476.333 66.394C476.08 66.1526 475.729 66.0319 475.258 66.0319H469.498V73.6236H470.899V70.5701H473.773L475.174 73.6236H476.877L475.693 71.1615C475.572 70.8959 475.452 70.7028 475.355 70.5942M470.899 69.4838V67.1785H475.114C475.174 67.1785 475.234 67.1906 475.258 67.2268C475.295 67.263 475.307 67.3113 475.307 67.3837V69.2907C475.307 69.3631 475.295 69.4235 475.258 69.4476C475.222 69.4717 475.174 69.4838 475.114 69.4838H470.899ZM472.988 61.9283C468.531 61.9283 464.92 65.525 464.92 69.9666C464.92 74.4081 468.531 78.0048 472.988 78.0048C477.444 78.0048 481.056 74.4081 481.056 69.9666C481.056 65.525 477.444 61.9283 472.988 61.9283ZM472.988 76.7737C469.22 76.7737 466.164 73.7322 466.164 69.9666C466.164 66.2009 469.22 63.1594 472.988 63.1594C476.756 63.1594 479.812 66.2009 479.812 69.9666C479.812 73.7322 476.756 76.7737 472.988 76.7737Z" fill="black"/>
</g>
<defs fill="#000000">
<clipPath id="clip0_428_3854" fill="#000000">
<rect width="500" height="130" fill="black" transform="translate(0.5)"/>
</clipPath>
</defs>
</svg>