<?xml version="1.0" encoding="UTF-8"?>
<svg id="Warstwa_1" xmlns="http://www.w3.org/2000/svg" version="1.1" viewBox="0 0 1920 446.1">
  <!-- Generator: Adobe Illustrator 29.3.0, SVG Export Plug-In . SVG Version: 2.1.0 Build 146)  -->
  <path d="M1908,229h-.4v-.2l-4.1-7.9h-3v7.8s0,.4-.4.4h-2.4c-.2,0-.3,0-.3-.4v-19.7h5.6c1.6,0,3.2.5,4.5,1.5,1.2,1.2,1.9,2.8,1.7,4.5,0,1.2-.3,2.3-.9,3.3-.6.9-1.4,1.6-2.4,2l4.5,8.5s0,.4-.3.4l-2.3-.2ZM1900.2,211.6v6.6h2.2c1,0,2-.2,2.8-.8.7-.6,1.1-1.6,1-2.5.2-1.5-.9-2.9-2.4-3.1-.2,0-.4,0-.6,0l-3-.2Z"/>
  <path d="M1902.9,201.8c-9.4,0-17.1,7.7-17.1,17.1s7.7,17.1,17.1,17.1c9.4,0,17.1-7.6,17.1-17,0-9.4-7.6-17.1-17-17.1,0,0,0,0,0,0ZM1902.9,233.1c-7.9,0-14.2-6.4-14.2-14.2,0-7.9,6.4-14.2,14.2-14.2,7.9,0,14.2,6.4,14.2,14.2s0,0,0,0c0,7.8-6.4,14.2-14.2,14.2Z"/>
  <path d="M486.4,327.6h-10.2l6.4-17.6c.6-1.4,1.3-2.7,2-3.9l-15.9,18.1h-5.3l-2.6-18.1c-.1,1.3-.4,2.6-.8,3.9l-6.4,17.6h-10.3l13.1-35.8h10.1l4,19.8c0,.6-.1,1.1-.3,1.6.2-.6.5-1.1.9-1.6l18.5-19.8h10.2l-13.2,35.8Z"/>
  <path d="M528.9,327.6h-29.7l13-35.8h29.4l-1.7,4.5h-18.7l-3.8,10.4h16.1l-1.7,4.5h-16.1l-4.1,11.2h19l-1.7,5.1Z"/>
  <path d="M577.1,327.6h-11.2l-5.8-16.6,1.2-3.3h10.5l4.1-11.3h-13.6l-11.4,31.2h-10.5l13.1-35.8h28.4c4.3,0,6,1.1,5.3,3.3l-4.5,13c-.7,1.7-2.3,2.8-4.1,2.9-2.3.3-4.7.4-7.1.3l5.6,16.2Z"/>
  <path d="M624.2,324.3c-.8,2.2-3.4,3.3-7.7,3.3h-22.3c-4.2,0-6-1.1-5.2-3.3l10.6-29.2c.8-2.1,3.3-3.3,7.6-3.3h22.3c4.5,0,6.1,1.1,5.3,3.3l-3,8.4h-10.7l2.6-7.1h-13.8l-9.7,26.6h13.9l2.7-7.5h10.7l-3.2,8.8Z"/>
  <path d="M665.3,327.6h-29.7l13-35.8h29.4l-1.7,4.5h-18.7l-3.8,10.4h16.1l-1.7,4.5h-16.1l-4.1,11.2h19l-1.7,5.1Z"/>
  <path d="M712.8,327.6h-9.4l-9.1-22.7c0,.9,0,1.7-.3,2.6l-7.3,19.9h-10.3l13.1-35.8h9.3l9.1,22.1c0-.9,0-1.8.3-2.6l7.1-19.5h10.4l-13,35.9Z"/>
  <path d="M762.2,327.6h-10.6l.3-6.8h-13.6l-4.5,6.8h-10.5l26.8-35.7h11.2l.8,35.7ZM752.1,316.2l.7-16.1-11.2,16.1h10.5Z"/>
  <path d="M809.1,327.6h-11.2l-5.8-16.6,1.2-3.3h10.5l4.1-11.3h-13.6l-11.3,31.2h-10.7l13.1-35.8h28.3c4.3,0,6,1.1,5.3,3.3l-4.5,13c-.7,1.7-2.3,2.8-4.2,2.9-2.3.3-4.7.4-7.1.3l5.8,16.2Z"/>
  <path d="M869,292l-14.9,15c-1.7,1.5-4.2,4-7.4,7.5l-4.8,13.1h-10.7l4.5-13.1c0-1.3-.3-2.6-.7-3.8-.8-2.3-1.2-3.5-1.3-3.7l-3.9-15h11l2.9,15.6,14.2-15.6h11.1Z"/>
  <path d="M952.4,296.5h-18.5l-3.9,10.6h15.8l-1.7,4.5h-15.8l-5.8,15.8h-10.7l13-35.8h29.2l-1.7,4.9Z"/>
  <path d="M988.9,324.3c-.8,2.2-3.3,3.3-7.6,3.3h-23.3c-4.2,0-6-1.1-5.2-3.3l10.7-29.2c.8-2.1,3.3-3.3,7.5-3.3h23.2c4.5,0,6.1,1.1,5.3,3.3l-10.7,29.2ZM978.7,323l9.7-26.6h-14.7l-9.7,26.6h14.7Z"/>
  <path d="M1037.2,327.6h-11.2l-5.8-16.6,1.2-3.3h10.5l4.1-11.3h-13.6l-11.3,31.2h-10.7l13-35.8h28.4c4.3,0,6,1.1,5.3,3.3l-4.8,13c-.7,1.7-2.3,2.8-4.1,2.9-2.3.3-4.7.4-7.1.3l6,16.2Z"/>
  <path d="M1084.5,324.3c-.8,2.2-3.4,3.3-7.8,3.3h-22.3c-4.2,0-6-1.1-5.2-3.3l10.7-29.2c.8-2.1,3.3-3.3,7.5-3.3h22.3c4.5,0,6.2,1.1,5.3,3.3l-3,8.4h-10.7l2.6-7.1h-13.9l-9.7,26.6h13.8l2.8-7.5h10.7l-3.2,8.8Z"/>
  <path d="M1125.4,327.6h-29.7l13-35.8h29.4l-1.8,4.5h-18.7l-3.8,10.4h16l-1.7,4.5h-16l-4.1,11.2h19l-1.6,5.1Z"/>
  <path d="M1172.5,324.3c-.8,2.2-3.4,3.3-7.7,3.3h-21.3c-4.3,0-6.1-1.1-5.3-3.3l3.1-8.5h10.7l-2.6,7.3h13.1l2.5-7-17.7-10.2c-1.3-.8-1.7-1.7-1.3-2.9l2.9-8c.8-2.1,3.4-3.3,7.7-3.3h21.5c4.3,0,6.1,1,5.3,3.3l-2.9,8h-10.7l2.5-6.8h-13.3l-2.4,6.5,17.8,10.1c1.1.4,1.7,1.7,1.3,2.9,0,0,0,0,0,0l-3.1,8.5Z"/>
  <path d="M1266.8,324.3c-.8,2.2-3.4,3.3-7.7,3.3h-22.3c-4.3,0-6-1.1-5.2-3.3l10.7-29.2c.8-2.1,3.3-3.3,7.5-3.3h22.3c4.5,0,6.1,1.1,5.3,3.3l-3,8.4h-10.7l2.6-7.1h-14l-9.7,26.6h13.8l2.8-7.5h10.6l-3,8.8Z"/>
  <path d="M1315.8,324.3c-.8,2.2-3.3,3.3-7.6,3.3h-23.3c-4.2,0-5.9-1.1-5.1-3.3l10.6-29.2c.9-2.1,3.4-3.3,7.6-3.3h23.2c4.5,0,6.1,1.1,5.3,3.3l-10.7,29.2ZM1305.6,323l9.7-26.6h-14.7l-9.7,26.6h14.7Z"/>
  <path d="M1364,327.6h-11.2l-5.7-16.6,1.2-3.3h10.5l4.1-11.3h-13.6l-11.3,31.2h-10.7l13-35.8h28.4c4.3,0,6,1.1,5.3,3.3l-4.8,13c-.7,1.7-2.3,2.8-4.1,2.9-2.3.3-4.7.4-7.1.3l6,16.2Z"/>
  <path d="M1415,311.3c-.8,2.2-3.4,3.3-7.7,3.3h-17.4l-4.5,13h-10.7l13-35.8h27.8c4.5,0,6.1,1.1,5.3,3.3l-5.8,16.2ZM1404.7,310l4.9-13.6h-13.1l-4.9,13.6h13.1Z"/>
  <path d="M1458.4,324.3c-.8,2.2-3.4,3.3-7.7,3.3h-23.3c-4.2,0-5.9-1.1-5.2-3.3l10.7-29.2c.8-2.1,3.3-3.3,7.5-3.3h23.2c4.5,0,6.1,1.1,5.3,3.3l-10.6,29.2ZM1448.2,323l9.7-26.6h-14.7l-9.5,26.6h14.5Z"/>
  <path d="M1506.4,327.6h-11.2l-5.8-16.6,1.2-3.3h10.5l4.1-11.3h-13.6l-11.4,31.2h-10.4l13-35.8h28.4c4.3,0,6.1,1.1,5.3,3.3l-4.5,13c-.8,1.7-2.3,2.8-4.2,2.9-2.3.3-4.7.4-7,.3l5.6,16.2Z"/>
  <path d="M1553.9,327.6h-10.6l.3-6.8h-13.6l-4.5,6.8h-10.2l26.8-35.7h11.2l.6,35.7ZM1543.8,316.2l.6-16.1-11.1,16.1h10.4Z"/>
  <path d="M1605.9,296.5h-11.8l-11.3,31.1h-10.7l11.3-31.1h-11.8l1.7-4.5h34.2l-1.7,4.5Z"/>
  <path d="M1615.3,327.6h-10.7l13-35.8h10.7l-13,35.8Z"/>
  <path d="M1665.3,324.3c-.8,2.2-3.4,3.3-7.7,3.3h-23.2c-4.3,0-5.9-1.1-5.1-3.3l10.6-29.2c.8-2.1,3.3-3.3,7.5-3.3h23.3c4.5,0,6,1.1,5.3,3.3l-10.6,29.2ZM1655.1,323l9.7-26.6h-14.7l-9.7,26.6h14.6Z"/>
  <path d="M1713.2,327.6h-9.3l-9.1-22.7c0,.9,0,1.7-.2,2.6l-7.3,19.9h-10.4l13-35.8h9.4l9.1,22.1c0-.9,0-1.7.3-2.6l7.1-19.5h10.4l-12.9,35.9Z"/>
  <path d="M608.5,134.4L678.6,0l-9.7,5.2c-.5,0-47.9,25.6-63.2,32.8-15.3,7.3-50.8,5.6-51.1,5.5h-159.1c-2.7,0-44.5-2-63.5,49.1,0,0-58.9,170.6-62.4,179.9l-73.9-71.2,16.7-34.2h73.9s25.3-71.2,25.5-71.9l1.3-4.5H48.7C48.2,90.6-.3,92.7,0,149.1v81l35.7-41.3c2-2.8,5.2-4.7,8.7-5,8.4-.7,17.2,6.9,17.6,7.2l254.7,255.1,63.5-185.9h143.2l31.7-80.3h-148.1l15.6-45.3c4.5-.2,185.9-.1,185.9-.1Z"/>
  <path d="M588,235.8h0l36.3-85.6,17.5-14.8h100.4l5.3,15.9-9.1,22h-40.8s5.4-12.9,7.7-18.1h-42.3c-1.8,4.1-23.3,54.8-26.1,61.2h42.3c1.6-3.8,9.1-19.9,9.1-19.9h40.8l-11,24.6-17.8,15h-112.3Z"/>
  <path d="M828.2,235.8l-16.1-59.9h32.2l8.8-20.9h-41.9l-34.4,80.8h-40.8l42.5-100.5h111.4l5.4,15.9-12.4,29.2-17.9,15.2h-6.6c2.4,7.5,13.1,40.4,13.1,40.4l-43.3-.2Z"/>
  <path d="M937.8,135.3l-17.5,15-29.7,69.8,5.2,15.8h100.4l17.7-14.8,29.8-70-5.4-15.8h-100.5ZM1001.3,155c-2.7,6.3-24.3,57-26,61.2h-42.3l25.8-61.3,42.5.2Z"/>
  <path d="M1032.3,235.8h112.3l17.7-14.9,19.2-45.3h-83.1l8.8-20.8h82.1l9.4-19.7h-112.5l-17.5,15.1-19.2,45.3h82.8c-2.1,4.9-7.4,17.4-8.8,20.8h-81.9l-9.2,19.4Z"/>
  <path d="M1180.3,235.8h112.3l17.7-14.9,19.3-45.3h-83.2l8.8-20.8h82.1l9.4-19.7h-112.5l-17.5,15.1-19.2,45.3h82.8c-2.1,4.9-7.4,17.4-8.8,20.8h-81.9l-9.2,19.4Z"/>
  <path d="M1673.7,235.8l-16.1-59.9h32.1c1.4-3.3,6.7-16,9.1-20.9h-42l-34.4,80.8h-40.8l42.5-100.5h111.4l5.4,15.9-12.6,29.2-17.7,15.2h-6.6c2.4,7.5,13,40.4,13,40.4l-43.3-.2Z"/>
  <path d="M1326.5,235.8h40.8l16.9-39.7h68.4l8.3-19.6h-68.4c2.1-4.9,7.4-17.5,8.8-20.7h82.8l8.8-20.4h-123.7l-42.8,100.5Z"/>
  <path d="M1507.6,154.8h23.4c-2.7,6.3-24.3,57-26,61.2h-22.7l-8.3,19.6h86.6l8.3-19.6h-23l26.2-61.2h21.4l8.4-19.7h-86.1l-8.3,19.7Z"/>
  <path d="M1885.1,154.8l8.3-19.7h-123.7l-42.8,100.7h123.8l8.4-19.6h-82.9c2.1-4.9,7.4-17.5,8.8-20.8h69l8.3-19.7h-69c2.1-4.9,7.4-17.4,8.8-20.7l82.8-.2Z"/>
</svg>