<?xml version="1.0" encoding="UTF-8"?>
<svg id="Warstwa_1" xmlns="http://www.w3.org/2000/svg" version="1.1" viewBox="0 0 1920 393.7">
  <!-- Generator: Adobe Illustrator 29.3.0, SVG Export Plug-In . SVG Version: 2.1.0 Build 146)  -->
  <path d="M1898.5,90.4l-43.2,101.6c-8,18.9-26.4,31.4-46.8,31.8h-309.1l-41.4,97.5h315.9c5.9,0,11.2,2.9,14.5,7.8,3.3,5,3.9,11.1,1.5,16.7l-13,30.6h-416.2l57.2-134.6c19.2-45.1,63.1-74.2,111.8-74.2h262l41-96.3h-342.3l23-54h337.2c17.5,0,33.8,8.8,43.5,23.4,9.8,14.8,11.5,33.4,4.5,49.7M1908.4,31.2c-12.9-19.5-34.5-31.2-57.9-31.2h-348.6l-37.6,88.5h342.3l-26.3,61.8h-250.6c-55.7,0-105.8,33.3-127.7,84.7l-67.4,158.7h453.7l17.5-41.1c4.6-10.8,3.5-23.2-3-33-6.5-9.8-17.3-15.6-28.9-15.6h-289.8l26.8-63h298c27.2-.6,51.7-17.2,62.4-42.3l43.2-101.6c9.2-21.7,7-46.3-6-66"/>
  <path d="M421.1,158.4h107.7c21.1,0,40.2-12.5,48.4-31.9l49.4-115.8h-25c-10.6,0-20.1,6.2-24.2,15.9l-38.5,90.1c-2.1,4.9-6.8,8-12.1,8h-87.8s48.5-114,48.5-114h-25.3c-10.5,0-20,6.2-24.2,15.9l-41,95.3c-7.4,17.3,5.3,36.4,24.2,36.4"/>
  <path d="M74.9,51.9l-17-8h128.6c5.3,0,10-3.1,12.1-7.9l10.8-25.2h-124.9c-21,0-40,12.4-48.4,31.6L2.1,122c-7.4,17.3,5.4,36.4,24.2,36.4h111.1c5.3,0,10-3.1,12.1-7.9l11-25.7H43.7l31.3-72.8Z"/>
  <path d="M616.9,158.4c10.6,0,20.1-6.3,24.2-15.9h0l35.5-82.5,48.8,91.4c2.3,4.3,6.8,7,11.6,7h26.9c5.3,0,10-3.1,12.1-7.9l60.1-139.7h-25.7c-10.5,0-20,6.3-24.2,15.9l-37.2,86.2-50.6-95.1c-2.3-4.3-6.8-7-11.6-7h-31.7s-63.5,147.6-63.5,147.6h25.3Z"/>
  <path d="M986.3,158.4h130.8c5.3,0,10.1-3.1,12.1-8l11-25.7h-116.8l10.4-23.9h87c5.3,0,10-3.1,12.1-7.9l9-20.8h-95.6l8.7-20.3-16.5-7.8h127.9c5.3,0,10-3.1,12.1-7.9l10.8-25.2h-142c-10.6,0-20.1,6.3-24.2,15.9l-48.8,113.6c-3.7,8.6,2.7,18.2,12.1,18.2"/>
  <path d="M847.9,158.4h25c10.6,0,20.1-6.3,24.2-15.9l42.2-98.5h43c6.6,0,13.4-4.1,15.8-9.7l10-23.5h-151l-14.4,33.2s52.5,0,54.4,0l-49.2,114.5Z"/>
  <path d="M253.9,51.9l-16.1-8h126.2l-31.3,72.9h0c-2.1,4.8-6.8,7.9-12.1,7.9h-98l31.3-72.8ZM322.8,158.4c21.1,0,40.1-12.5,48.4-31.8l34.1-79.4c7.4-17.3-5.3-36.4-24.2-36.4h-117.4c-21.1,0-40.1,12.5-48.3,31.8l-34.1,79.5c-7.4,17.3,5.3,36.4,24.2,36.4h117.4Z"/>
  <path d="M599.4,254l10-23.5h-151l-14.4,33.2s52.5,0,54.4,0l-49.2,114.5h25c10.6,0,20.1-6.3,24.2-15.9l42.2-98.5h43c6.6,0,13.4-4.1,15.8-9.7"/>
  <path d="M1102.5,230.4h-62.2c-2.7,0-5.3.8-7.5,2.3l-98.3,67.4,30-69.7h-41.4l-63.6,147.6h41.5l17.9-41.1h36.1c0,0,13.3,0,13.3,0h0s28.3,41.1,28.3,41.1h45.5l-49.7-71.6,110.2-76.1Z"/>
  <path d="M1107.7,246.3l-48.7,113.5c-3.7,8.6,2.7,18.2,12.1,18.2h130.5c5.3,0,10-3.1,12.1-8l11-25.7h-116.5l10.3-23.9h86.8c5.3,0,10-3.1,12.1-7.9l9-20.8h-95.4l8.7-20.3-16.4-7.8h127.6c5.3,0,10-3.1,12.1-7.9l10.8-25.2h-141.7c-10.5,0-20,6.3-24.2,15.9"/>
  <path d="M1311.1,91.9h-88.1l17.1-40.1-16.1-7.7h116.3c0-.1,23.5,41.2,23.5,41.2l-23.5-41.3-17.1,40c-2.1,4.8-6.8,8-12.1,8M1331.9,124.7c9.2,0,17.6-5.5,21.2-13.9l27.3-63.7c7.4-17.3-5.3-36.4-24.2-36.4h-141.1l-63.4,147.6h25.3c10.5,0,20.1-6.2,24.2-15.9l7.6-17.8h78.5l18.3,33.6h44.3l-18.1-33.6Z"/>
  <path d="M253.1,262.3l-5.5,12.9-3.9,9.2c-7.4,17.3,5.4,36.4,24.2,36.4h88.7s0,0,0,0l-10.1,23.6h-119.8c-5.3,0-10,3.1-12.1,7.9l-11.1,25.7h135.3c21.1,0,40.1-12.5,48.4-31.8l9.9-23.1c7.4-17.3-5.3-36.4-24.2-36.4h-88.6l6.5-15.2-16.5-8h139.7c5.3,0,10-3.1,12.1-8l10.8-25.2h-135.2c-21.1,0-40.2,12.6-48.5,31.9"/>
  <polygon points="1349.9 158.3 1349.9 158.4 1349.9 158.3 1349.9 158.3"/>
  <path d="M737.8,303.7c-2.1,4.8-6.8,8-12.1,8h-88.1l17.1-40.1-16.1-7.7h116.3c0-.1,23.5,41.2,23.5,41.2l-23.5-41.3-17.1,40ZM767.6,330.5l27.3-63.7c7.4-17.3-5.3-36.4-24.2-36.4h-141.1l-63.4,147.6h25.3c10.5,0,20.1-6.2,24.2-15.9l7.6-17.8h78.5l18.3,33.6h44.3s-18.1-33.6-18.1-33.6c9.2,0,17.6-5.5,21.2-13.9"/>
  <path d="M888.9,230.4h-42.6l-63.5,147.7h31c6.7,0,13.8-4.4,16.2-10l37-86.5,21.9-51.1Z"/>
</svg>