<svg width="319" height="96" viewBox="0 0 319 96" fill="none" xmlns="http://www.w3.org/2000/svg">
<path d="M42.7201 21.9722C43.4852 21.1925 44.7665 21.2474 45.3522 20.2737C46.6993 20.1529 48.0428 20.065 49.39 20.2444C50.6712 20.0357 51.9671 20.1016 53.2521 20.2114C52.5236 21.489 54.1856 21.2804 54.9433 21.4451C55.5327 21.4963 55.4229 22.4445 56.0489 22.4518C56.9457 22.4774 57.8463 22.3786 58.7432 22.3383C58.9299 21.7087 59.1019 21.0717 59.3289 20.4567C62.6711 20.3139 65.9951 20.7239 69.33 20.8521C69.3593 21.1083 69.4215 21.6208 69.4508 21.8771C69.6595 21.9466 70.0732 22.0857 70.2818 22.1553C70.5015 21.8075 70.7211 21.4597 70.9407 21.112C72.5295 21.4231 74.2098 21.0424 75.7546 21.489C75.8352 21.5988 75.9999 21.8148 76.0841 21.9247C77.2885 21.8222 77.4605 23.0522 77.1786 23.9454C76.6588 25.4243 77.4459 26.874 77.3946 28.3639C77.4752 31.6878 77.4495 35.0155 77.3178 38.3321C76.937 38.6066 76.4392 38.6396 76.0255 38.8482C75.5789 39.3132 75.9303 39.8842 76.0731 40.3894C75.2604 40.675 75.1689 41.5023 75.1359 42.2601C75.2787 42.4614 75.5679 42.8641 75.7107 43.0654C75.9852 43.4974 76.3586 43.8781 76.527 44.3686C76.8894 46.3894 76.7503 48.4467 76.571 50.4784C76.2232 50.6431 75.8754 50.8042 75.5277 50.9653C75.5862 51.9866 76.7796 51.6169 77.4386 51.6206C77.552 55.0946 77.5008 58.5686 77.5264 62.0427C77.3727 65.934 77.6436 69.8254 77.4935 73.7168C75.74 72.9004 73.6424 72.0841 71.7205 72.776C71.6436 72.9663 71.4935 73.347 71.4203 73.5374C71.6326 73.5447 72.0573 73.563 72.2696 73.5703C70.7248 74.2293 68.9713 74.1817 67.3935 73.6692C66.2477 73.8376 65.1202 73.7204 64.0915 73.1494C63.7144 73.5886 63.18 73.8486 62.5943 73.8156C59.6144 74.1597 56.598 73.7095 53.6291 74.2C52.9226 74.3757 52.4101 75.0676 51.667 75.0859C51.235 74.5734 50.7481 74.2293 50.1002 74.5954C49.152 74.2622 48.0941 73.7021 47.1276 74.2952C47.0544 74.5112 46.908 74.9504 46.8311 75.1664C46.6261 75.1481 46.2125 75.1115 46.0038 75.0932C45.5352 74.383 45.0703 73.6655 44.6566 72.9261C44.2979 73.0469 43.9794 73.2299 43.6939 73.4752C42.9032 73.164 42.0539 73.1347 41.2156 73.1347C39.7439 72.1646 37.9172 73.3727 36.2809 73.1311C35.2778 72.5234 34.0149 73.1164 32.9057 72.8016C30.9508 73.0505 28.9631 72.732 27.0192 73.1091C25.7123 73.358 24.4164 72.8492 23.2011 72.4282C24.1785 68.9981 22.6044 65.4289 23.6257 62.028C23.7941 61.9731 24.1309 61.856 24.2993 61.8011C24.7642 59.8023 24.6763 57.7486 24.7239 55.7133C24.3579 55.4534 23.8893 55.3033 23.622 54.9262C23.2487 53.0007 23.4024 51.0239 23.2194 49.0763C23.7026 48.7908 24.3505 48.6737 24.6727 48.1758C25.0021 47.4254 24.7459 46.5907 24.7239 45.811C23.4427 44.8885 23.6916 43.1972 24.0137 41.8684C23.9954 40.1661 23.5562 38.4932 23.0766 36.8678C22.9448 35.7403 22.9119 34.6018 22.9082 33.467C23.6184 30.3663 23.8783 27.1558 23.5964 23.9893C22.8313 23.1913 23.4976 22.1699 23.655 21.2767C27.9783 21.1522 32.309 21.2804 36.636 21.3536C37.0387 21.7343 37.5072 22.0198 38.0893 21.932C39.6341 21.8917 41.1789 22.1736 42.7201 21.9722ZM28.5165 30.4139C28.9411 31.8416 30.3688 32.603 31.2291 33.7525C31.5292 34.1735 31.8953 34.5359 32.3163 34.8397C33.8831 36.5932 35.6036 38.2003 37.1924 39.9355L37.1778 40.1258C39.1472 41.7549 40.6591 43.8708 42.6506 45.4742C43.4962 46.5358 44.47 47.4839 45.3375 48.5236C46.681 50.1014 48.3686 51.3423 49.6243 53.0007C50.9934 54.6773 52.9665 55.7792 54.0904 57.6498C55.756 59.5717 57.6449 61.2959 59.241 63.2763L59.3948 63.313C59.9146 63.9975 60.5076 64.6931 61.2544 65.1323C63.2825 65.546 65.3654 65.7803 67.4374 65.7876C68.6455 65.5387 68.9493 64.1879 69.4215 63.2324C70.4722 60.5894 71.2373 57.8218 71.6546 55.0067C70.9334 54.4393 70.1647 53.9415 69.4435 53.3777C68.1696 52.4918 66.9249 51.5071 65.3691 51.1849C64.9554 50.1453 63.8828 49.7023 63.0226 49.102C61.5034 48.2124 60.1269 47.1105 58.637 46.1844C54.7493 43.4791 50.7884 40.8873 46.9153 38.1527C45.7036 37.2705 44.3967 36.5237 43.2473 35.5572C42.1088 35.2717 41.2778 34.4261 40.2308 33.9575C39.8245 33.6427 39.3486 33.3937 39.0557 32.9581C38.4554 32.0283 37.262 31.8013 36.5152 31.0143C35.7025 30.3444 34.6628 29.9856 33.9966 29.14C32.0088 28.7117 30.3358 29.8868 28.5165 30.4139ZM62.7663 29.2827V29.5719C60.2258 30.2272 57.6889 30.8825 55.141 31.5194L55.1044 32.1491C55.7743 32.5701 56.382 33.0753 56.997 33.5658C57.3374 33.6866 57.6083 33.9026 57.806 34.2174C57.9854 34.3382 58.3442 34.5798 58.5235 34.7006L58.7688 34.7263L58.7358 35.0191C59.3289 35.2937 59.878 35.6561 60.3612 36.1027C61.4045 36.919 62.4369 37.75 63.5131 38.5298L63.5278 38.819C63.6705 38.797 63.9561 38.7531 64.0952 38.7348C64.2343 38.9141 64.5125 39.2802 64.6516 39.4633C64.8383 39.5511 65.208 39.7268 65.3947 39.8147C65.7645 39.8257 66.1305 39.8403 66.5003 39.8549C66.471 37.157 67.7266 34.6567 67.6058 31.9624C67.69 31.3767 67.0823 31.1277 66.7053 30.8422C65.5009 30.0991 64.2855 29.0411 62.7663 29.2827ZM32.9606 52.781C32.8471 52.9714 32.6201 53.3558 32.5067 53.5461C32.1223 54.8091 31.5366 56.0171 31.0204 57.2325C30.6763 58.0854 30.4859 59.0226 29.9149 59.7694C29.5122 60.7395 29.2523 61.7791 29.4792 62.8334C30.0869 63.064 30.5372 63.5363 31.0167 63.9572C31.3169 64.1366 31.6134 64.3197 31.9063 64.5137C32.1625 64.7736 32.4261 65.0262 32.7043 65.2641L32.7592 65.3923C33.1729 65.5387 33.4511 65.8206 33.5902 66.2415C35.1094 66.4905 36.6433 66.3038 38.1662 66.161C38.9532 65.7473 39.7549 65.2934 40.6518 65.1726C41.9294 65.0372 42.9983 64.2281 44.2357 63.9353C44.1991 63.7193 44.1222 63.291 44.0819 63.0787C42.9105 62.5552 42.3028 61.2703 41.1826 60.6406L41.1936 60.3844L40.8056 60.388L40.8202 60.1171C40.6847 60.0403 40.4212 59.8792 40.2894 59.8023C40.0441 59.5607 39.7988 59.3264 39.5463 59.0958C39.1729 58.7407 38.8141 58.3673 38.481 57.9719C38.2284 57.734 37.9721 57.496 37.7159 57.2618C36.0722 55.8304 34.736 54.0513 32.9606 52.781Z" fill="#151515"/>
<path d="M185.445 31.2778C185.548 31.3913 185.753 31.6146 185.859 31.7281C189.769 32.4383 193.752 32.0539 197.698 32.1747C202.266 31.9917 206.879 32.5554 211.411 31.7281C211.217 33.4157 211.316 35.1216 211.107 36.8092C210.913 35.517 210.049 34.4224 208.735 34.1515C206.033 33.6061 203.262 33.7891 200.524 33.6463C200.176 38.4529 200.491 43.2887 200.392 48.1062C200.403 51.6462 200.363 55.1898 200.535 58.726C200.432 60.0988 201.007 61.4899 202.146 62.2989C199.521 62.2001 196.893 62.2147 194.271 62.2843C195.315 61.7754 195.578 60.5088 195.633 59.4582C195.794 56.288 196.014 53.1105 195.809 49.9403C195.736 46.2869 195.974 42.6408 195.908 38.991C196.003 37.2265 196.036 35.4254 195.684 33.6866C193.828 33.5255 191.972 33.9245 190.116 33.8001C188.978 33.7305 187.847 33.9428 186.723 34.0929C185.405 34.3675 184.794 35.6817 184.325 36.8055C184.625 34.9495 184.86 33.0716 185.445 31.2778Z" fill="#151515"/>
<path d="M235.747 31.2779C236.629 31.223 236.747 32.1857 237.05 32.7898C237.665 34.3785 238.387 35.9234 238.965 37.5268C239.975 39.9538 240.894 42.4175 241.89 44.8519C242.439 46.21 242.97 47.5791 243.585 48.9153C244.28 50.5736 244.767 52.3198 245.587 53.9269C248.08 53.9269 250.584 53.8573 253.066 54.1685C251.939 54.2746 250.764 54.1355 249.698 54.5858C248.626 54.9812 247.531 55.3289 246.382 55.3985C246.473 56.8664 247.436 58.0525 247.93 59.396C248.692 60.7541 249.768 62.0976 251.452 62.2917C248.498 62.2917 245.54 62.2258 242.582 62.277C242.823 62.2111 243.307 62.0793 243.545 62.0134C243.534 60.9701 243.164 59.9927 242.75 59.0556C242.337 57.7999 241.7 56.6322 241.341 55.3582C238.496 55.3546 235.648 55.5486 232.804 55.3838C231.31 55.4278 229.784 55.2081 228.32 55.5522C228.246 56.2771 227.946 56.9397 227.679 57.6059C227.393 58.7115 226.837 59.7877 226.972 60.9591C226.95 61.6071 227.298 61.9988 228.008 62.1342C225.292 62.255 222.569 62.255 219.849 62.2843C221.481 62.2148 223.282 61.867 224.015 60.1867C225.779 56.4821 227.181 52.6017 228.744 48.8018C230.179 45.0166 231.783 41.2973 233.225 37.5158C233.441 36.9044 233.683 36.3004 233.939 35.7037C234.418 34.6494 234.858 33.5768 235.271 32.4932C235.447 32.0942 235.593 31.6879 235.747 31.2779ZM230.212 51.0056C229.857 51.9244 229.421 52.8579 229.564 53.872C233.166 53.8244 236.776 54.0184 240.374 53.8024C240.565 53.1911 240.118 52.6127 239.983 52.0416C238.526 47.7183 236.849 43.4718 235.443 39.1338C235.253 39.1082 234.869 39.0496 234.675 39.024C233.144 42.9996 231.764 47.0337 230.212 51.0056Z" fill="#151515"/>
<path d="M95.2298 32.1345C95.1932 31.6037 95.9437 31.8672 96.2475 31.827C99.9009 32.3395 103.606 31.9954 107.263 32.0759C112.472 31.9002 118.238 32.0796 122.576 35.3376C123.527 36.0881 124.388 36.9483 125.12 37.9111C125.533 38.4932 125.903 39.1045 126.244 39.7342C129.666 46.4919 127.55 55.911 120.936 59.9122C119.991 60.5125 118.933 60.8969 117.948 61.4167C113.226 63.0714 108.116 62.8115 103.225 62.2697C100.629 62.2184 98.0339 62.255 95.4385 62.255C96.3646 62.1342 97.3091 62.1672 98.217 61.9109C98.6563 60.9079 99.0772 59.8572 99.0187 58.7371C99.1065 50.7969 99.0553 42.8568 99.0626 34.9166C99.1688 33.8953 98.6636 32.7971 97.6935 32.3797C96.8991 32.1308 96.0462 32.2297 95.2298 32.1345ZM103.635 36.0112C103.734 43.4608 103.558 50.9141 103.858 58.36C103.818 58.8871 104.147 59.3228 104.393 59.7584C106.582 61.6364 109.704 61.3947 112.384 61.1385C114.053 61.1897 115.602 60.5381 117.117 59.9268C118.545 59.0116 119.892 57.9683 120.925 56.6028C123.352 52.2722 123.399 46.8946 121.957 42.2308C120.979 39.9465 119.64 37.794 117.582 36.326C116.48 35.7293 115.448 35.0045 114.28 34.5359C111.205 33.4011 107.896 32.9691 104.642 33.4267C103.437 33.6354 103.726 35.129 103.635 36.0112Z" fill="#151515"/>
<path d="M148.347 33.5475C152.429 31.2522 157.36 31.0399 161.877 31.9222C165.769 32.7788 169.517 35.0558 171.443 38.6433C173.994 43.3986 173.932 49.4534 171.542 54.26C170.015 57.3021 167.467 59.8389 164.381 61.2813C163.759 61.5888 163.104 61.8231 162.434 61.9915C155.921 64.1952 147.718 62.6248 143.563 56.8371C142.959 55.9586 142.373 55.0617 141.89 54.1099C141.168 52.0489 140.608 49.9257 140.477 47.7402C140.513 44.4163 141.308 41.0228 143.204 38.2479C143.954 37.2009 144.683 36.0991 145.755 35.345C146.601 34.719 147.377 33.9868 148.347 33.5475ZM149.83 34.675C146.524 37.351 145.539 41.8684 145.715 45.9355C145.616 50.4638 147.081 55.2118 150.478 58.3454C152.875 60.6333 156.328 61.6583 159.597 61.2776C162.745 61.036 165.487 58.7078 166.658 55.8378C168.17 52.7701 168.031 49.2594 167.991 45.9281C167.705 41.9196 166.043 37.9075 162.935 35.2717C162.144 34.6933 161.313 34.1808 160.431 33.7562C157.052 32.4237 152.846 32.464 149.83 34.675Z" fill="#151515"/>
<path d="M277.864 32.4311C278.918 31.9369 280.075 31.7685 281.217 31.5892C284.848 31.2304 289.054 31.4135 291.763 34.1956C293.744 36.2163 293.993 39.2108 293.623 41.8795C292.796 45.91 290.061 49.168 287.382 52.1442C285.295 54.1064 283.146 55.999 280.906 57.7817C280.569 58.0307 280.21 58.2284 279.826 58.3784C279.822 58.642 279.811 59.1692 279.807 59.4327C281.956 59.4803 284.112 59.4071 286.265 59.4144C288.634 59.3632 291.2 59.495 293.242 58.0673C294.275 57.4962 294.505 56.2808 295 55.3107C294.86 57.4889 294.421 59.656 293.74 61.7317C292.818 62.2771 291.698 62.2515 290.665 62.2442C285.895 62.2003 281.125 62.2735 276.359 62.2039C275.623 62.2698 274.902 62.1783 274.214 61.9257C278.629 57.8476 283.571 54.1466 286.712 48.9118C287.246 47.6012 288.22 46.4737 288.348 45.0058C289.179 42.4616 289.223 39.7123 288.546 37.1279C288.392 36.7545 288.249 36.3774 288.121 36.0004C287.627 35.1767 287.07 34.3896 286.393 33.7087C285.288 33.2109 284.127 32.5995 282.875 32.8485C281.4 32.5739 279.936 33.1852 278.76 34.0345C277.468 35.2755 276.872 37.0144 276.535 38.7313C276.319 36.9888 276.26 35.2426 276.216 33.4891C276.381 32.7679 277.311 32.735 277.864 32.4311Z" fill="#151515"/>
</svg>
