<?xml version="1.0" encoding="UTF-8"?>
<svg id="Warstwa_1" xmlns="http://www.w3.org/2000/svg" version="1.1" viewBox="0 0 1920 500.5">
  <!-- Generator: Adobe Illustrator 29.3.1, SVG Export Plug-In . SVG Version: 2.1.0 Build 151)  -->
  <path d="M1920,393v1.3c-4.3,7.1-9.7,15.3-17.6,18.9-1.1.5-8.2,2.9-8.6,2.9h-153v-21.1l179.2-1.9Z"/>
  <path d="M1225.6,358.4c5.2.9,12.5,8.1,13.4,13.5.9,5.6.8,29.9-.5,35.2-1.8,7.8-10.6,9.4-10.9,10.9l14.1,32.6h-20.5c-2-4-12.8-30.9-14.3-31.8s-5.4.2-7.5-.2c.8-5.7-2-13.5,1.9-17.9h18.6v-23.7l-1.9-1.9h-26.2v75.5h-19.2v-92.2h53.1Z"/>
  <path d="M1610.2,421.1l1.2,12.2c1.2.8,22.4,1,25,.6,1.5-.3,2.6-.4,3-2.1v-13.7c-12.1-8.3-40.8-3.7-46.5-20-4.4-12.6-3.2-36.4,13.1-39.4,6.9-1.3,27-1.1,34.3-.4,16.1,1.5,18.5,15.9,17.2,29.5l-18-.6c-3-2.1.9-10.7-3.3-12.1-5.4.5-23.1-2.4-25.4,2.4-1.5,3.1-1.4,12.7,2.3,14.5,13,6.3,43.3,1.8,45.8,22s1.4,34.1-13.5,36.4c-6.1,1-36,.9-41.6-.5-12.3-3.2-13.7-18.3-12.8-28.8h19.2Z"/>
  <path d="M928,387.8h-17.9c-.2-3.6,1.4-10.3-2.6-12.2-2.9-1.4-24.4-1.6-25.4,1.5l-.2,13.7c12.3,6.5,45.3,4,47.4,21.9.6,5.1.7,19.3-.1,24.3-1.1,7-7.6,12.7-14.6,13.6-6.9.8-35.6.8-41.3-1-12.2-4-10.9-18.1-10.6-28.5h17.9l1.2,12.2c1.2.8,22.4,1,25,.6s2.6-.4,3-2.1l-.4-14.6c-12.4-6.6-44.6-3.9-46.8-22.3-1.6-13.5-1.6-34.4,16-36.5,6.5-.8,32-.8,37.4,1,12.1,4,12.9,17.8,11.9,28.5Z"/>
  <path d="M780.8,416h-154.2c-.5,0-8-3-9.2-3.6-7.5-3.8-13.1-11.6-15.8-19.4h177.3l1.9,1.9v21.1Z"/>
  <path d="M1501.4,358.4v17.9h-43.5c.8,6.1-2.1,14.4,1.9,19.2h33.9v16.6h-35.8v19.8l1.9,1.9h41.6v16.6h-62.7v-92.2h62.7Z"/>
  <polygon points="1081.6 358.4 1081.6 376.3 1039.4 376.3 1039.4 395.5 1073.9 395.5 1073.9 412.2 1039.4 412.2 1039.4 433.9 1081.6 433.9 1081.6 450.6 1020.2 450.6 1020.2 358.4 1081.6 358.4"/>
  <g>
    <path d="M1230.1,49.9c4.3,8.9,8.5,21,13.8,29.1.9,1.3,1.3,3.3,3.4,3l16.2-31.8h19.4s17.5,33.1,17.5,33.1l18.5-33.3h28.8l-37.7,74.3-17.1,1.1-18.1-36.9-19.8,35.9-17.1,1.1-37.3-75.3h29.4Z"/>
    <path d="M1184.6,49.9c.5,0,7.6,4,8.2,4.6,7.4,6.5,7.9,29.9-.5,36.4l-14.7,6.4,30.7,28.2h-33.9l-32-29.5-.7-16.6h27.5l1.7-2.1c.8-2.9.9-8.1-3-8.1h-36.5v56.3h-25.6V49.9h78.7Z"/>
    <path d="M887,72.3c-.1-.4-2-2.3-2.6-2.5-2.5-1.2-38.5-1.2-40.9,0-5.5,2.7-.7,24.1-3.2,30.1-3.5,2.1-21.6,18.1-23.7,16.6,0-1.2-.7-2.3-.9-3.5-1.5-8.7-1.5-39.2-.4-48.4,1-8.5,7.8-13.8,16-14.7,20.2-2.3,44.6,1.7,65.3,0,2.4.2,3.1,1.7,4.3,3.4,2.4,3.3,11.3,21.7,11.8,25.4.8,6.3.9,28.5-.3,34.3s-9.2,12.5-13.1,12.5h-70.4c-.7,0-2.4-1.4-.7-3.2s21-17.3,22.4-17.3h34.6l1.9-1.9v-30.7Z"/>
    <path d="M1571.8,79.4l-.2-8.8c-1.5-2.5-39-2-44.6-.2v34.6h42.9c2.9-2.1,1.8-5.9,1.9-9l26.3,1.2c2.4,11.8-1.1,25.7-14.5,27.9-12.2,2.1-53.3,1.7-66.3.3-6.1-.7-12.1-3.7-15-9.3-3.1-5.9-3.4-31.4-2.2-38.6,1.2-7.7,10.9-19.1,12.9-27.4l72.8.4c11.1,2.9,16.3,19.8,10.8,28.8h-25Z"/>
    <polygon points="1634.6 49.9 1634.6 79.4 1679.4 79.4 1679.4 49.9 1706.2 49.9 1706.2 125.4 1679.4 125.4 1679.4 96 1634.6 96 1634.6 125.4 1609 125.4 1609 49.9 1634.6 49.9"/>
    <path d="M1095.7,49.9v19.2h-50.6l-1.7,2.1-.2,8.1h43.5v16.6h-43.5v9h50.6l1.9,1.9v18.6h-78.1v-54.4c0-1.7,10-18.4,12.2-21.1h65.9Z"/>
    <path d="M1427.2,125.4h-29.4l-23.7-46.1-24.3,46.1h-28.8l37.7-74.3c2-1.8,27.8-2,30.1-.6l38.4,74.9Z"/>
    <path d="M940.8,49.9l22.4,46.1c2.7.6,1.7-1.1,2.5-2.5,8.1-14.2,13.4-30.3,23.1-43.6h27.5l-37.3,75.3-28.6.3-39-75.6h29.4Z"/>
    <polygon points="1501.4 49.9 1492.5 69.1 1464.3 69.1 1464.3 125.4 1438.7 125.4 1438.7 71 1436.8 69.1 1411.2 69.1 1401.6 49.9 1501.4 49.9"/>
  </g>
  <rect x="1329.9" y="358.4" width="19.2" height="92.2"/>
  <path d="M1920,253.4v44.8c-4,10.6-11.9,22-24,24-14.3,2.4-58.6,1.7-74,.4s-19.3-7.8-23.5-16.2-4-10.4-4-11.4v-24.3l1.9-1.9h39.7c4.7,3.9-1.1,15.9,4.5,18.6,2.3,1.1,27.4,1.2,31.4.7,1.9-.2,3.3-.2,4.4-2v-18.6c-19.7-7.2-42.8-9.9-62.1-17.9-8.3-3.5-14.6-6.5-17.3-16-2.2-7.9-2.2-37.2-1.2-46.1,1.5-13,13.5-24.5,26.4-26.1,13.9-1.8,53.6-1.7,67.7-.1,11.2,1.3,27.5,14.6,27.5,26.2v24.3l-1.9,1.9h-39.7c-4.6-3.7,1-14.6-4.5-17.3s-23.9-1.1-27.6-.7c-1.1.1-2.3,0-3.2.6l-.6,18.7c1.9,2.8,55.6,14.6,65.2,19.3s11.8,9.4,14.9,19Z"/>
  <polygon points="1114.9 161.3 1150.1 243.2 1186.6 161.3 1235.2 161.3 1235.2 322.6 1193 322.6 1193 236.8 1190.1 238.4 1163.3 303.1 1136.8 303.1 1110.1 238.4 1107.2 236.8 1107.2 320.6 1105.3 322.6 1065 322.6 1065 163.2 1066.9 161.3 1114.9 161.3"/>
  <path d="M1729.3,243.2v-81.9h42.2v161.3h-39.7c0-1.5-.6-2.9-1.5-4.2-15.7-24.7-30.5-50.9-46.6-75-2-3-4.5-8.8-8.2-9.1v88.3h-42.2v-161.3h42.9l49.5,79.8,3.6,2.1Z"/>
  <path d="M1599.6,315.7c-3.4,3.1-10.9,6.3-15.6,6.8-18.3,2.1-60.8,1.7-79.4,0-15.1-1.4-23.1-10.3-24.9-25,2.3-35.6-3.1-75,0-110.1,1.3-15,9.8-24.7,25-26.2,18.6-1.9,56.7-1.7,75.6,0,19,1.6,26.1,11.9,27.5,30.1,2.1,27.6,2.2,74.9,0,102.5s-2.8,16.9-8.2,21.9ZM1564.2,197.1h-41v89.6h41v-89.6Z"/>
  <polygon points="791 161.3 791 221.4 837.1 221.4 837.1 163.2 839 161.3 880.6 161.3 880.6 322.6 837.1 322.6 837.1 258.6 793 258.6 791 260.5 791 322.6 747.5 322.6 747.5 161.3 791 161.3"/>
  <path d="M725.8,222.7h-43.5v-22.4c0-.2-2-2.3-2.6-2.5-5.4-2.5-27.6-.3-34.5.6v86.4l1.9,1.9h33.3l1.9-1.9v-23.7h43.5v36.5c0,.5-3,8.2-3.6,9.2-3.3,6.4-12.3,13.7-19.4,15.2-12.6,2.6-59.6,1.9-73.7.6-15.5-1.4-26.4-13.6-27.5-28.8-2.6-34.6,2-72.5.2-107.5,2.7-12.8,14.2-23.6,27.4-25.1,14.9-1.6,55.7-1.8,70.3.1,8.9,1.2,17.4,7.4,22.1,15.1.8,1.4,4.3,9,4.3,9.8v36.5Z"/>
  <path d="M896,322.6l48-160,57.5-1.3,49.4,161.4h-45.4l-32-102.4c-3.4,0-5.2,9-6.1,11.8-9.9,29.8-17.6,60.5-26.5,90.6h-44.8Z"/>
  <path d="M1324.8,272.6v-33.9l1.9-1.9h18.6c.9-7.4,3.3-31.5.6-37.1s-2.3-2.6-2.5-2.6h-36.5v125.4h-43.5v-159.4l1.9-1.9h99.8c7.6,0,19.8,12.6,22.5,19.8,4,10.8,3.5,46.3,2.6,59-.8,10.7-4.5,21.1-13.7,27.3-1.4.9-10.5,5.3-11.3,5.3h-40.3Z"/>
  <rect x="1410.6" y="161.3" width="43.5" height="161.3"/>
  <path d="M252.2,0l96.3,56.3c4.8,4.6-.3,13.8,4.1,18l89.5,51.3,4.7,4.3v23.7l53.8-29.4v77.4c0,.8-1.8,7.9-2.3,9.3-6.9,20.5-36.2,26.3-51.5,39.4v18.6l38.4-20.5v48c0,.6-3.3,7.6-4,8.8-5.4,8.4-15.1,11.7-22.9,17.1l-1.2,43.3-106.1,62.9c-1.4,4.7,1.7,11.8-2.5,15.8l-96.3,56.3h-3.8l-96.7-56.2c-4.4-4.1.4-13.4-3.1-17.4l-105-60.1-1.5-43.3c-1-3.4-15.7-9.5-19.6-13.6-2.8-2.9-8.3-13.7-8.3-17.3v-44.2l39.7,20.5v-18.6c-18.4-13.8-45.6-19-53.8-42.9v-83.2l53.8,29.4v-25l94.7-55,1.5-15.1L248.3,0h3.8ZM427.3,281.4l-.4-141.9L252.2,37.6l-2.9-.3-176.3,101.8v140.6c.3,2.8,11.3,6,12.7,15.4l.7,73.5,161.9,94.2,4.7-.4,159.8-92.5c3-22.6-1.9-48.7.8-70.9.5-3.9,2.3-9.6,5-12.6,2.1-2.4,8.5-4.6,8.8-5Z"/>
  <path d="M368.2,364.2c0,6.1-4.9,11-11,11s-11-4.9-11-11,4.9-11,11-11,11,4.9,11,11ZM366.4,364.2c0-5.1-4.2-9.3-9.3-9.3s-9.3,4.2-9.3,9.3,4.2,9.3,9.3,9.3,9.3-4.2,9.3-9.3Z"/>
  <g>
    <path d="M244.5,184.3v86.4l-55,55.1c-.6,1.6,4.6,4.5,6,5.5,33.4,23,84.7,21,115.6-5.5l-55-55v-87.7l28.2,64.6,50.6,50.5c2,.8,4.7-6.7,5.6-8.5,15.7-33,10.9-73.6-11.2-102.5l.4-1.7c.8-1.6,23.4-24.1,25.7-25.7,1.1-.7,1.3-1.8,3.2-1.2,27.5,36.9,38.2,81.2,26,126.4-22.7,83.4-117.2,126-195.4,88.4-80.7-38.8-104.6-146.4-46.1-214.8l28.4,27.5c-24.1,31.7-28.1,77.8-6.7,112,1.6.4,2.2-1.2,3.2-1.9,7.5-5.7,42.5-40.3,47.3-47.4,9.7-14.3,17.6-43.8,26.2-60.8.8-1.5,1.2-3.5,3.2-3.9Z"/>
    <path d="M232.7,109.2c43.1-4.1,85.4,8.5,115.4,39.9l-27.7,27.4c-33.9-31.1-82.4-38-122.5-13.7-6.9,4.2-12.2,9.9-19.3,13.7l-27.7-27.4c21.2-20.8,51.8-37.1,81.6-39.9Z"/>
  </g>
  <path d="M353.7,369.7v-11h3.6c1,0,1.7,0,2.2.3s.9.5,1.2,1,.5,1.1.5,1.7-.3,1.4-.8,2-1.3.9-2.3,1c.4.2.7.4.9.5.4.4.8.9,1.2,1.5l1.9,3h-1.8l-1.5-2.3c-.4-.7-.8-1.2-1.1-1.5s-.5-.6-.7-.7-.4-.2-.7-.3c-.2,0-.4,0-.8,0h-.4v4.9h-1.5ZM355.2,363.5h1.8c.7,0,1.2,0,1.6-.2s.7-.4.9-.7.3-.6.3-1c0-.5-.2-.9-.6-1.3s-1-.5-1.8-.5h-2.2v3.6Z"/>
  <path d="M1729.4,56.3c0,4.2-3.4,7.7-7.7,7.7s-7.7-3.4-7.7-7.7,3.4-7.7,7.7-7.7,7.7,3.4,7.7,7.7ZM1728.1,56.3c0-3.6-2.9-6.5-6.5-6.5s-6.5,2.9-6.5,6.5,2.9,6.5,6.5,6.5,6.5-2.9,6.5-6.5Z"/>
  <path d="M1719.2,60.2v-7.7h2.5c.7,0,1.2,0,1.6.2s.6.4.9.7.3.7.3,1.2-.2,1-.5,1.4-.9.6-1.6.7c.3.1.5.3.6.4.3.3.6.6.8,1l1.3,2.1h-1.3l-1-1.6c-.3-.5-.5-.8-.7-1.1s-.4-.4-.5-.5-.3-.2-.5-.2c-.1,0-.3,0-.6,0h-.3v3.4h-1ZM1720.3,55.9h1.3c.5,0,.8,0,1.1-.1s.5-.2.6-.5.2-.4.2-.7c0-.4-.1-.7-.4-.9s-.7-.4-1.2-.4h-1.5v2.5Z"/>
</svg>