<?xml version="1.0" encoding="UTF-8"?>
<svg id="Warstwa_1" xmlns="http://www.w3.org/2000/svg" version="1.1" viewBox="0 0 1920 288.4">
  <!-- Generator: Adobe Illustrator 29.3.0, SVG Export Plug-In . SVG Version: 2.1.0 Build 146)  -->
  <defs>
    <style>
      .st0 {
        fill: #fff;
      }
    </style>
  </defs>
  <path d="M1886.6,31c.9,1.1,0,2.5,0,3.8-1.5.6-3.4,1.2-4.4-.5-1.7-2.9,2.4-5.6,4.3-3.3Z"/>
  <path d="M1901.4,146.9c-.5.5-3.2.7-3.9.3-.9-2.5,1.2-6,3.9-4.2s.7,3.4,0,3.9Z"/>
  <path d="M1873.4,39.2c-1.7.4-2.3,0-2.3-1.7l2.8-2.3c.7,1.5,0,2.6-.5,3.9Z"/>
  <path d="M1901,58.9c.9-.1,1.2,1.7,1.2,2.4,0,2.6-2.6.4-3-1l1.8-1.3Z"/>
  <path d="M1877.8,28.9c.2.3,0,.8,0,1.1l-2.6.3c-1.5-.6-1.5-3,.3-2.7s2.1,1.2,2.1,1.3Z"/>
  <path d="M1877.4,37.3c1.4,2.3-5.8,4.6-2-.3l2,.3Z"/>
  <circle cx="1906.2" cy="202.8" r="1.4"/>
  <path d="M1875.8,44.8c-.3.2-.8,0-1.1,0,.6-.8,0-1.6,0-2.2s.5-1.1,1.4-1c2,0,.2,2.8-.3,3.1Z"/>
  <path d="M1911.2,40.5c-.4,1.3,1.1,2.7-1.3,2.7s-.6-2.4,1.3-2.7Z"/>
  <circle cx="1914.5" cy="126.2" r="1.2"/>
  <circle cx="1883.3" cy="40.1" r="1.2"/>
  <path d="M1901.1,64.1c.5,2.2-2.6,3.6-2.4.8l1,.3,1.4-1.1Z"/>
  <path d="M1902.8,199.1l-2,1.2.8.4-.6.8-1-1.8c.7-1.2,1,0,1.4,0s.7-.9,1.4-.7Z"/>
  <path d="M1899.1,133.4c-1.5-.8-2.8-3.8-.2-2.4l.2,2.4Z"/>
  <polygon points="1901.5 33.7 1901.4 35.8 1900.3 36.5 1900.3 33.6 1901.5 33.7"/>
  <path d="M1901.9,37.7v1.6s-2,0-2,0c-.4-.9,1.7-1.9,2-1.6Z"/>
  <circle cx="1877.3" cy="145" r=".9"/>
  <path d="M1854.9,37.4c0,0,1.3,1.1.9,1.5l-2.4-1c-.5-.9,1-.6,1.5-.5Z"/>
  <path d="M1843.7,37.6c-.2.2-1.3.7-1.5.5l.8-2c1.1,0,1.4.8.7,1.5Z"/>
  <path d="M1904.8,76.5l-2.8-.2c.7-1.2,2.1-1,2.8.2Z"/>
  <path d="M1898.3,80.9v-.8c1.1-.4,1.3-.3,2,.6-.6,1-1.1.4-2,.2Z"/>
  <path d="M1861.4,131.8v1.2c-.7,0-1.2,0-1.6-.6v-.6s1.6,0,1.6,0Z"/>
  <polygon points="1897.3 150.6 1898.3 151.6 1897.5 152.4 1896.5 151.4 1897.3 150.6"/>
  <polygon points="1904 62.9 1903.6 64.5 1903 64.5 1902.4 63.9 1903.4 62.9 1904 62.9"/>
  <path d="M1901.2,173.5c.7-.8,1.8,1.6.6,1.6s-.8-1.3-.6-1.6Z"/>
  <path d="M1901.1,56.9c-.4.4-2-1.2-1.6-1.6s2,1.1,1.6,1.6Z"/>
  <rect x="1874" y="139.4" width=".9" height="2.2" transform="translate(1367.7 1950.6) rotate(-78.6)"/>
  <path d="M1898.3,90.9l1.6-.8c.1.7,0,1.2-.6,1.6l-1-.8Z"/>
  <path d="M1824.9,263.6v1.2c-.5.5-2.5-1.6,0-1.2Z"/>
  <path d="M1850.6,41.3h-.6s-1-1.2-1-1.2c1-.2,1.7.2,1.6,1.2Z"/>
  <path d="M1827.3,257.2v.6c-.4.6-.9.7-1.6.6l1-1.2h.6Z"/>
  <polygon points="1906 42.1 1906 42.9 1904 42.9 1904 42.5 1906 42.1"/>
  <path d="M1901.1,67.3l-.2,1.6c-.6-.4-.7-.9-.6-1.6h.8Z"/>
  <path d="M1912,36.9h-1.2c0-1.5,1.2-1.5,1.2,0Z"/>
  <path d="M1865.9,33.2v-1.2c1.5,0,1.5,1.2,0,1.2Z"/>
  <path d="M1829.4,26.8v-1.2c1.5,0,1.5,1.2,0,1.2Z"/>
  <rect x="1902.4" y="42.1" width="1.2" height=".8"/>
  <rect x="1909.6" y="52.1" width="1.2" height=".8"/>
  <path d="M1898.7,168.7l-.4,1.2h-.8c-.1-.8.5-1.3,1.2-1.2Z"/>
  <path d="M1904,41.3l-1.2-.4v-.8c.8-.1,1.3.5,1.2,1.2Z"/>
  <path d="M1910.8,128.6c.6-.6,1.7,1.2.6,1.2s-.8-1-.6-1.2Z"/>
  <path d="M1868.3,145c.6-.6,1.7,1.2.6,1.2s-.8-1-.6-1.2Z"/>
  <rect x="1902" y="79.3" width="1.2" height=".8"/>
  <path d="M1891.5,44.1c-.7.1-1.3-.5-1.6-1.2.7-.1,1.3.5,1.6,1.2Z"/>
  <path d="M1902,221.5c-.2.8-.9.9-1.6.8.2-.8.9-.9,1.6-.8Z"/>
  <path class="st0" d="M1891.9,58.5c.4,1.3,0,3.5,1.6,3.6l-.6.8c-1.7.4-1.5-2.6-1.7-3.9s0-.5.7-.5Z"/>
  <path class="st0" d="M1896.7,57.3l-2,1.6c-.8-2,.7-1.3,2-1.6Z"/>
  <g>
    <path d="M1591.9,56.9c4-2.7,6.5,6.1,8.4,8.6.7.5,5.2-8.3,6.2-8.8s2.3-.7,3,.2v16.4c0,.8-2.8.8-2.8,0v-11.4c-1.6.6-5.2,8.6-5.8,8.8s-.5-.3-.7-.5c-1.9-2.6-3.2-6.1-5.5-8.3v11.4c0,.8-2.8.8-2.8,0v-16.4Z"/>
    <path d="M1589.1,59.1h-5.8l-.6.6v13.8c-.7.3-3.2.7-3.2-.2v-13.6l-.6-.6h-5.8l.2-2.4,15.2-.3c1,.3.6,1.9.7,2.7Z"/>
    <circle cx="1619.9" cy="221.2" r="3.3"/>
    <path d="M1575.3,203.5c2.1,0,4.2,1.8,2.7,3.9-3.2,4.2-9.7-3.9-2.7-3.9Z"/>
    <path d="M14.3,73.6c2.4,0,4.2,4.2,2.3,5.9-4,1-6.7-5.7-2.3-5.9Z"/>
    <path d="M1566.2,217.8v1.6s2-.4,2-.4c.1.9-.8,1.5-1.6,1.6.5.9,1.6.6,1.2,2h-2.4s.8-2,.8-2l-2.8-1c2.3.2,1.1-1.6,2.8-1.8Z"/>
    <path d="M1725.9,20.7c.6,0,1.8.5,2,1.2l-2,.8c0-.7,0-1.3,0-2-.6,0-1.3,1.3-2.6,0l.3-2.4,2.8-.4c-.3,1-.4,1.8-.4,2.8Z"/>
    <path d="M1632.8,194.9c-.2-1.1-.9-2.4.2-3.2,2.7.7,2.6,3-.2,3.2Z"/>
    <circle cx="1640.6" cy="156.3" r="1.4"/>
    <path d="M34.9,64.3c0,.7.2.9-.6.8-1.5-.2-4-.1-4.6-1.6,1.9-.6,3.3.5,5.2.8Z"/>
    <circle cx="1666.9" cy="51.4" r="1.2"/>
    <path d="M1628.4,201.3l.2-.7,1,1.6c-.7-.6-1.7.4-2,.2s-1.9-1.2-1.6-1.8l2.4.7Z"/>
    <polygon points="1640 84.4 1639 86.7 1638.1 85.3 1640 84.4"/>
    <path d="M1578.7,217.8c.8.9-1.3,1.9-2,2-.6-1.1,1.6-2.4,2-2Z"/>
    <path d="M22.1,65.5c-.8-.2-2.7.6-2.4-.8l1.7-.4.7,1.2Z"/>
    <path d="M1555.8,188.5v2c-1.6,0-1.6-2,0-2Z"/>
    <path d="M1561.6,201.6c.4.4,1.3.4,1.1,1.3l-1.9-.8v-1.6c.5,0,.5.7.9,1.1Z"/>
    <circle cx="1731.2" cy="17.9" r=".8"/>
    <path d="M1332.8,87.6l-.4,3.2c0-.9-1.3-3.5.4-3.2Z"/>
    <path d="M1624.4,262.2l-.2,1.1c-1.1-.7-1.4.5-2.2.9-.4-1,2.1-2.3,2.4-2Z"/>
    <polygon points="1564.2 229.8 1564.2 231.4 1563.6 231.4 1562.6 229.8 1564.2 229.8"/>
    <path d="M1655.3,60.7c.5.5-.6,2.1-1.2,1.6-.9-.7.5-2.3,1.2-1.6Z"/>
    <path d="M1553.8,198.1c.3,2.6-1.8,2.5-.8,0h.8Z"/>
    <path d="M1563,215.4v.8s-1,.4-1,.4l-.6-.6c.4-.6.9-.7,1.6-.6Z"/>
    <polygon points="1558.4 212.1 1559.2 212.9 1558.4 213.8 1557.6 212.9 1558.4 212.1"/>
    <path d="M1620,248.6h-1.2s0-1.2,0-1.2c.7-.1,1.3.4,1.2,1.2Z"/>
    <path d="M1741.5,7.4v1.2s-1.2,0-1.2,0c-.1-.7.4-1.3,1.2-1.2Z"/>
    <polygon points="1666.9 55.1 1666.9 55.7 1666.3 56.3 1665.3 55.7 1666.9 55.1"/>
    <path d="M1571.5,216.2v-1.2c1.5,0,1.5,1.2,0,1.2Z"/>
    <path d="M24.1,70.7c0,1.5-1.2,1.5-1.2,0h1.2Z"/>
    <path d="M1527.3,255v-1.2c1.5,0,1.5,1.2,0,1.2Z"/>
    <path d="M1642.4,90h-1.2c0-1.5,1.2-1.5,1.2,0Z"/>
    <path d="M1567,241.8c.6-.6,1.7,1.2.6,1.2s-.8-1-.6-1.2Z"/>
    <path d="M1655.7,63.5c-.7.1-1.4,0-1.6-.8.7-.1,1.4,0,1.6.8Z"/>
    <rect x="1563.4" y="216.2" width="1.2" height=".8"/>
    <rect x="1557.4" y="190.9" width=".8" height="1.2"/>
    <polygon points="1626 202.9 1624.4 202.7 1625.4 202.1 1626 202.9"/>
    <polygon points="1563.8 199.7 1563.8 200.5 1562.2 200.5 1562.2 199.7 1563.8 199.7"/>
    <rect x="1628.4" y="196.1" width="1.2" height=".8"/>
    <path d="M1643.6,82.3c-.6.6-1.7-1.2-.6-1.2s.8,1,.6,1.2Z"/>
    <path d="M1730.7,22.3c.1.9,1.3.9,2,.8v-1.6c.5,0,.6.7,1.2.6s3.6-1.6,2.4-2.2c1.3,0,1.5.2.8-1l1.2.2-1.6-.8c-.3-1.1.7-.8,1.2-1.4l-.8-.8,3-2.2,1.2.8c.8-.7-1.2-3.8,0-4s2,2,2,2.4-1.1,1.8-.6,2.8c2.4,1.6,8.8-6,9.6-1.8l.2,103.9,1.4,1.2-1.6-.4c0,4.2,0,8.4,0,12.6s.3,4.4.3,6.5-.5,4.5-.3,6.7l1.6.2-1.4,1.2c-.2,34.9-.6,69.9.2,104.8s-.5,4.1-.4,6,.7,6.7.8,7.1c.2.5,1.6.8,1.6,2.1-2.1.2-3.3,4.4-1.6,5.2v.6c-.8-.2-1.1,1-.8,1.2s3.1-.4,1.3,1.6l-1.3-.4c.1,1.3-.8,2.1-2,1.8s-3.5-1.3-3.7-1.4c-.4-.2-.5-.9-.9-1.2-1.2-.7-8.2-4.9-8.7-4.8s-.6.5-.9.7l-.6-1.8-21.7-12-2.8,1,1.2-2.4c-.9,0-1.5-.9-2.3-1.1s-3.6.2-4.1-.1-1.5-3-2.8-3.9-3.6-1.4-4.8-2.2-2.5-2-3.6-2.6-6.8-4.2-7.5-4-.1,1.9-1.4,1.6l-.4-1.8.8-.4-1-1c-.6,1.5-.8,2.4-2.2,3.4l-2.4-.6c.4-1.3,2.4-.7,2-2l-2.4.4c-.1-1.3,2-1.6,2.8-1.6.2-1.1-1.2-1.6-1.9-1.1s-.2.7-.5.9c-1.2,1.1-1.4.7-1.5,2.8s1,1.6-.5,2l.8,2.6c-.8.3-1.2-.7-1.4-1.2s0-1.9-.6-2c-.2,1.8-3,1.6-4,2.2s-.5,1-.8,1.2c-.7.5-3.6-.7-4.4.6l1.6-3.6-1.4.4c-.3,0,0-1-1.4-.8-.5,1.4-.5,3.4-2.4,3.6-.2-1.4,1-3.4,2.4-3.6.3-.8,1.1-1.7,1.2-1.9,0-.4-1.2-1.7-.5-2.9s1.9-.8,1.8-2c-2.5.7-2.6-.8-4.4-1.2l.4-1.2h-1.2s.4-1.6.4-1.6l1.6.8.4-1.5c-.9-.4-1.8-1.1-2.9-.9s-1.7,2.5-1.7,2.6c0,.4.6.9.6,1.6s-.6,2-.4,3c-1.2-.3-2.7.6-3.8.4s-1-.9-1.8-.8c.8,2.3-1.4,2.9-1.9,3.7s0,1.2-.5,1.7c-.6.8-1.8.2-2.4,1.2-1,1.7.3,2.3.4,3.5s-.6,1.8-.3,3,1.2,1.9,1.3,2c.4.3,3.6,1.4,3.7,1.6-1.2,1-.8,2.8-2.4,2.4.2-1.5-1.5-1.1-.4-2.8l-5.2-.8c.8,1.7-.3,1.7-.8,3,1.5,1.7,1.3-.6,1.9-1,1.3-1,2.7,0,1.7,1.6l-.8-.8c.5,1.8-2.7,1.8-4,2,1,1.3,1.1,2.5-.8,2.8l-.4-1.6c-.5,1.5-1.5.8-1,2.8-.8.6-1.8,1.2-2.8,1.2s-3.6-.4-3.9-.5c-.6-.2-.9-1.1-1.7-1.2s-1.4.9-1.9.8c-.8-.1-2.2-2.8-4.9-2.6s-1.3.8-2.2.6l.7-2.6-2.2-1.8c-.2,0-1.3.6-1.5.7-.5.5,0,1.3-.7,1.2.4-1-.6-1.2-.7-1.3-.8-1.7.9-2.4,2.3-1.5,0-1.1.8-2,0-3s-1.7-.3-1.2-1.7c2-.1,1.2-1,1.4-1.2,1.5-2,2.6-.5,2.9-.8s-.1-.7.1-1.1c.7-1,2.7-.8,1.3-3.3s-3.2-.1-3.8-.4c-.6-3.2-.8-3.8,2.8-4-.4,2.1.4,2.2,2.2,2.8l.4-.4c-.5-1.2.7-.5,1.4-1.4-.4-.7-1.2-1.1-.2-1.8l.2,1.2c3,.2,1.1-2.4,1.6-3.2l1.9-.5c-.4-2,1.5-2.5,1.3-4.4l1.2.6c-1.8,1.3.5,2.6.7,3.7s-.8,1.8.3,2.5l.6-1.6c4.3,1.4,7.1-3.3,2.4-4.8,1.9-1.3,1.6-3.5,1.6-5.6-1.7-.4-1.9,2.7-3,.4-2.1,1.8-2.1,1-3.9-.2s-1-.2-1.1-.3.3-.8.2-1.2c-.2-.6-.9-1.1-1-1.4-.1-.7,1.5-1.2.8-2.1l3.6.8-1.2-.8.2-2-1.9-1c-.5-1.7.8-2.4,1-3.4s0-2.8,1-4l-1.4.4-.2-1.6c-.8-.1-1.8,1.2-1.9,1.2-1.8.4-3.9-1.8-5.3-2.8-.1,3.4-3.3,1.8-1.4-.4s.9,0,1.4.4c0-.8-.5-1.8-.2-2.4.4-1,4.1-1.9-.2-2.4v-2.4c1.7,0,.5,2.3,2.8,1.6.2-.6-.6-.2-.8-.7s-.2-1.5-.4-2.1l2.6.8.6-.8.2.8,2.2-.8c.6-.8-2.4-1.7-2.4-3.4s4.6-.5,3.3-3c-1.6.2-2.3-.9-1.4-2.2l4.6.7c1.2.8.5,4.1,3.4,3.6v1.1c0,0,1.2,0,1.2,0l-.8-1c2.9-1.9-.2-4.7.2-6.8s1.4-1.1,1-2.2h-1.2c0-1.7,1.7-1.7-.4-2.6l1.2-.2c1.3-1.8-.7-3-.7-3.4s1-2.8,1.1-3.6c.5-6.2-.4-13.2,0-19.4l-1.2.2,1.2-1.6-.8-.2c-.4-1,.7-.6.8-1.1.5-2.3-1.3-4.3-1-6s2.9-4-.6-4.8l1.6-.6c0-1.6.4-2.3-1.2-3,1.3-.8,1.1-2.5,1.2-4,.7-13.3-.5-27.3,0-40.6l-2.7-1.3-.5-3.1h1.6c-.4-1.9.9-1.8,1.5-2.5,1.2-1.4-.5-7.4.1-9.5-.8.5-1.5.5-1.6-.6l1.6-.6c-.5-1.2,0-4.4.8-5.3s5-2.8,6.1-3.5,1.3-.8,2-1.2,5.4-2.9,5.6-3.1c.5-.5.2-1.1.3-1.6,1.6.7,2.5,0,3.9-.7,10.7-5.5,21.8-12.9,31.9-19.1s2.5-.6,3.3-1.3,0-.8.3-1.3c1.2-1.8,1.8-2.5,4-3.1.3.4-.6,1.7.6,1.6s8.8-4.8,9.4-5.4.8-1,.8-1.6l-.8-.4c.9-1.7,2.8-1.3,3.7-1.8s2.3-2.1,3.4-2.7c3-1.8,5.6-3.4,9-4.5,0-.7.4-1.3,1.2-1.2-.4,1.3-.4,1-1.2,1.2ZM1640,194.5c-.2-.2-2.6,1-2,1.6h2s0-1.6,0-1.6ZM1667.5,231l-1.2,1.2.8.8,1.2-1.2-.8-.8ZM1652.8,231.9c-1.8-.8-2.2.8-1.5,2.3l-2-.2c-.9.6-.2,2.2,0,3l.8-2,1.6,1.5v1.7s-1.6-.8-1.6-.8c-.3,1.9,1.9,1.9,3.4,2,.7-1.5,1.8-2.6,1.5-4.4l2.7-.5v-1.6c-1,.8-1.7.7-2.9.4-1,.3-.2,2-1.4,1.6l-1.2-2,1.8.4.2-.8c-1,.4-1.2-.6-1.3-.7ZM1647.7,237.8c-3.3-.5-.4,4.3.4,3.6l-.4-3.6ZM1643.7,240.2l-1-1.6-1.8,1.2c.5,1.3,1.8.6,2.8.4ZM1643.3,241.4c.8.1,1.3-.5,1.2-1.2l-1.2.4v.8Z"/>
    <path d="M1896.3,198.1c1.6.3,2.7.5,2.4,2.4l-1.6.2c1.9,2.5,2.7,5.5-.8,6.9v7.6c-.3,1.9-2.3.9-2,3.6s3.5.8,3.2,3.4c-1.3-1.3-2.5-.9-4.2-1s-2.4-1.2-3.4.3-.4,3.9-.4,4.1,2.4,3.1.5,3.5-3.2-3.1-7.3-1.7-2.5,1.9-3.1,1.7-.1-.7-.4-.7-2.6-.3-2.8-.3c-1.3,0-8.4,4.2-9.8,5.2s-.7,1.2-.9,1.3c-.4.2-1.2,0-1.9.3s-2.7,1.7-2.8,1.8c-.1.2,1.6,1.8.2,2.4s-.7-1.7-1.9-1.6-2.1,2.2-2.3,2.3-.8-.3-1.3-.2c-2.1.4-1.1,2.4-2.5,3.8s-3.7.4-4.6,3c.9.9,2.4,0,2.4,1.8-.7-.7-2.4-.9-3,0s1.9,2.3.4,2.8-.5-1-1.7-1.1-.9,0-1.3.5l2,2.2c-.8,0-.9-.5-1.7-.7-1.4-.2-3,1-4,.7s-.2-.8-.5-.8-3.2,1.2-2.2,1.8c1.4.9,2,.6,2.2,3,.4,5-6.6,3.9-3.4-1l-1.2-1,2,.4v-1.2c-2.5-.7-3.4,0-5.4,1.2s0,.5-1.6,1.1-.9.8-1.2.9c-.7.1-1.1-1.6-3-1.1s-3.8,2.2-3.9,2.4c-.2.4.4,1.5.2,2.4-.2,1.3-1.3,1.3-1.5,2.4l-2.6-1.6-.2.8c-1,.5-.7-.8-1-.8-1.2-.2-2,1.1-2.8,1.6-6.4,3.5-16.5,8.2-22,12.5-1.8,1.4-.6.4-2.1,1.1-6.8,3.2-13,8.3-19.9,11.2-1.1,0-1.4-1.2-1.7-2.1l.3-70.8c.3-1.2,3.1-2.3,4.2-3s2-1.4,3.2-2.1c9.4-5.6,19.3-10.5,28.6-16.3l.4-.8c-3.1-1.9,0-2.2,0-2.4.4-.9-3.6-1.9-4-2.8-2.6,0-4.1-2.2-5.6-3.2-5.6-3.7-12-7-17.5-10.2-1.2-.7-8.9-4.9-9.1-5.4l-.3-31.8-2.4-2.4,2,.2c0-.5.4-1,.4-1.4,0-1.1-1.5-.6-1.2-1.6,0-.4.8-.2,1-.6,1-1.5-.3-28.8.2-33.5s0-1.1.4-1.6l1.7-.5,123.4,71.1c.8.6.8,1.5.9,2.4.7,7.8-.3,16.9,0,24.9s.9,2.8,0,4.2Z"/>
    <path d="M1826.5,31.9c-.1-3.1,1.8-3.5,4.4-3.6l.4,3.2,1.2-.4c-.4,1.8-2.2.5-1.6,2.8l1.2.4-1.2.4,1.6-.8.4,1.2,1-1.2.2,1.2,2-.8-.8,1.2,1.4-.3.6,1.5.6-.8c.3.8.5.9,1.4.8l-.8,1,.8.2-1.2.4c-.1.5.8.7,1.1.7,2,.1,1.3-2,1.9-1.9.4,1,1.7,1.6,2.8,1.6s0-1.2,1.2-.8-.9,1.5.4,2,.2-2,1.8-1.6v1.9c0,0,1.6.5,1.6.5l-.4.8,2.7.9.7,2.3,1-2.9c.8-.8,1.5-1.5,2.7-1.7,2.3-.3,2,1.9,2.5,2.1s.8-.3,1.3-.3c2.5.4,3,3.2,4.9,4.3l.6-2.4,1.2.4c-.4-4.3,3.3-2.3,6-2.4l.4,2.8c-.7-.2-3.9,1.3-3.2,2l1.6-.4-.4,1.2h3.4c0-.1.6-2,.6-2l1.4,1.5,2.8-1.5c.9,2.3,1.9,1.1,2.5,1.3s0,.5.4.7c1.5.6,3.3.8,2.9,2.9,1.3,0,1.8-1.2,3.2-.4v-1.2s1.8,1.2,1.8,1.2c1.9-1.1-.5-4.3,2.2-4l-.4-1.2,1.4.4-.2,1.2,2.8-1.6c.3-1.8-1.8.4-2.6-1.2s0-.8.4-1.2c.7-.2.5.7.9.8s1,0,1.4.1c1.5.5,1.5,1.5,2.5-.5.9,0,.9.6.6,1.2,1.1.4,1.9-.9,2.8-.6,1.4.4,2.6,2.3,3.8,3.1l1.1-1.3c1.3-.6,1.4,1,.7,1.9s-.8.2-1.6-.2c.3,2.2-.3,2.8-2,3.8.8.4,1.8,1.6,2.5,1.9,1,.4,2.8-.5,3.1,1.9-1.4.4-2-2.3-2.6-.4l-1.2-1.2-.8.8c-.8-.4,0-2.2-2.2-1.6-.2.6.6.2.8.7s.2,1.5.4,2.1c-1.3.1-2.1-1.2-3.4-.4l.2-.8-2.4.4c-.4,1.4.8,1.3,1.2,1.9,2.9,4.5-2.6,2.5-3.2,3.3v1.2c3.5.4,1.2,2.3,1.3,3s.8.9,1,1.4c.2.8,0,1.9.4,2.4s1.4.1,1,1.2l-2,1.4,1,1.4,1-2v2.2s-1.2.4-1.2.4l1.2.4c-.7,1.9-1.2,2.5-2.8,3.8l1.4.7,2-1.9c2.3,2.4-.4,5.1-3,4.4-.2.8.7,1.3.7,1.9s-.8.9-.7,1.5,1.2,1.3.7,2.3c-1.5.4-.6-1.8-1.6-2v2.6s1.2-.2,1.2-.2c0,.7-1.1.6-1.2,1.1-.3,1.1,0,6.7.8,7.3l1.2-.4-.8,2c1.8.4,2.3,2.4,3.4,3.6s1.4.8,1.4,1c0,.4-.5.9-.4,1.6s.8,1.1.8,1.5-1.3,2.9-1.4,3.1c-.4.6-2,1.5-1.8,2.8,4.5.6,5.8,3.6,3.6,7.6l-4.4-.3c-.1,1.6.5,2.8.8,4.2s-1.2-.4-.8.8,1.6,2.3,1.6,2.8l-.8.4.3,2.2h-1.2s.4,1.2.4,1.2c-.9-.6-3.5.2-2.5,1.2l.5.2-.8.5v3.8s1.6,0,1.6,0c-2.6,1.7-.4,4.7-1.6,7.2l1.6.2-.9,1.7-.7-.3-.5,3.1c-1.6,1.4-6.1-2.3-7.7-3l-.9.9c1.9,3-1.7,2.6-1.3-.2l-2,.8-.2-2-1.4-.4.8-1-3.1-2.6c-1,.5-2.5-.1-3.1,0-.9.2-1.2,2-3.3.8s-1-2.3-.6-3.6c-.5-.6-2.5,2.2-2,2.8l-1.6-.4c0,.8.3,1.4-.8,1.2v-4s1.2.2,1.2.2c-1.2-.8-.7-2.7-1.3-3.7s-4.5-2.6-5.8-3.2-1.9-2.4-3.9-.9c-.6-1.4-2.8-.2-3.8-2.2-.1-.3,1.3,0,.8-1-1.6-.6-3-1.7-4.4-2.6-2.3-1.3-4.7-2.8-7.1-4.2-24.5-14.5-49.6-28.1-74-42.8l-.2-72.3c.7-2.4,3.7-.4,5.2.4,5.3,2.9,10.4,6.5,15.7,9.5,11.7,6.8,23.6,13.5,35.4,20.1ZM1896.7,57.1c-1.3.3-2.8-.4-2,1.6l2-1.6ZM1891.9,58.3c-.7,0-.9-.3-.7.5.2,1.3,0,4.3,1.7,3.9l.6-.8c-1.7-.1-1.2-2.4-1.6-3.6Z"/>
    <path d="M1643.5,263.1c2.9-.8,4,2.4,1.7,3.4s-2.9-3.1-1.7-3.4Z"/>
    <path d="M1631.2,228.6c.4-1.8-1.8-3.8,1.3-4.3,2.7.8-.6,5.1-1.3,4.3Z"/>
    <path d="M1639.2,268.2c.8.8-1.2,1.8-.4,2.4l-2.4.4c-.7-1.5,2-3.6,2.8-2.8Z"/>
    <path d="M1637.9,262.3c.6.5.3,1.7.1,2.4-.6,1-2.5-.5-2-2.3.2-.8,1.5-.5,1.9-.1Z"/>
    <path d="M1643.7,85.6c1.6-1.2,3.2,2.2,1.4,2.8s-2.1-2.3-1.4-2.8Z"/>
    <path d="M1628,213.3c-1.4,0-1.5.9-2.4,1.6l.4-1.4c-2.4-1,1-2.5,1.8-1.4l.2,1.2Z"/>
    <path d="M1652.2,268.1c.3.3.8.4,1.1.7-.2,2.5-3.4-1.2-2.8-1.8,1.3-.3,1.2.5,1.7,1.1Z"/>
    <path d="M1645.3,95.2c.5,2.2-1.9,3-2,.6l2-.6Z"/>
    <path d="M1640.7,233.2c.3-.4.4-1,.9-1.1v2.1c-.5,1.3-2.5.6-1.8-.5s.6-.3.9-.5Z"/>
    <rect x="1753.1" y="49.5" width=".4" height="8.4"/>
    <path d="M1649.3,264.2c.7,3.1-2.3,2.5-1.2,0h1.2Z"/>
    <path d="M1659.6,247.9c.2.2.6,1.8.5,1.9h-1.2s-.8-1.8-.8-1.8c.3-.7,1.2-.5,1.5,0Z"/>
    <circle cx="1633.2" cy="216.7" r=".9"/>
    <polygon points="1629.6 259.8 1629.6 261.2 1628.6 261.8 1628 260.8 1629 259.8 1629.6 259.8"/>
    <polygon points="1636.2 214.1 1637 215 1635.6 216.4 1634.8 215.6 1636.2 214.1"/>
    <path d="M1660.1,266.2c1,.8-1.2,3.4-1.2.6.2-.4.9-.9,1.2-.6Z"/>
    <circle cx="1668.2" cy="53.6" r=".8"/>
    <rect x="1657.7" y="244.6" width="1.2" height="1.6"/>
    <polygon points="1641.9 263.9 1642.7 264.4 1641.4 266.5 1640.6 266.1 1641.9 263.9"/>
    <path d="M1676.1,258.6h.6s1,1,1,1l-.6.6c-.9,0-1.1-.8-1-1.6Z"/>
    <polygon points="1635.2 197.7 1635.2 198.5 1633.6 198.5 1633.6 197.3 1635.2 197.7"/>
    <path d="M1788.4,6.6c.8.6-1.8,1.3-2,1.6-.3-.9,1.5-2,2-1.6Z"/>
    <path d="M1658.9,240.2h-1.2c-.2-2,1.4-2,1.2,0Z"/>
    <path d="M1626.8,259.4h-1.2c-.2-2,1.4-2,1.2,0Z"/>
    <path d="M1735.9,19.9h-1.6c0-1.6,1.6-1.6,1.6,0Z"/>
    <path d="M1683,245v.6s-1.2,1-1.2,1c-.2-1,.2-1.7,1.2-1.6Z"/>
    <path d="M1658.1,249v.8c-.6,0-1-.4-1.6-.4v-.8s1.6.4,1.6.4Z"/>
    <polygon points="1704.9 253.7 1705.3 254.1 1703.5 255.9 1703.1 255.5 1704.9 253.7"/>
    <polygon points="1705.1 256.3 1705.5 256.7 1703.7 258.5 1703.3 258.1 1705.1 256.3"/>
    <path d="M1632.4,211.3c-.2.9-1.3.8-2,.8.2-.9,1.3-.8,2-.8Z"/>
    <path d="M1780.4,176.9h-1.2c0-1.5,1.2-1.5,1.2,0Z"/>
    <path d="M1634.4,211.3c-.2.8-.9.9-1.6.8l.4-1.2,1.2.4Z"/>
    <path d="M1671.3,252.2h-1.2c0-1.5,1.2-1.5,1.2,0Z"/>
    <polygon points="1697.8 256.2 1697.8 257 1696.2 257.4 1697.2 256.2 1697.8 256.2"/>
    <path d="M1626.4,218.2v1.2c-1.5,0-1.5-1.2,0-1.2Z"/>
    <path d="M1681.4,248.6l-.4,1.2h-.8c-.1-.8.5-1.3,1.2-1.2Z"/>
    <path d="M1667.7,249c.6-.6,1.7,1.2.6,1.2s-.8-1-.6-1.2Z"/>
    <rect x="1653.2" y="249.8" width="2" height=".7" transform="translate(63.7 769.1) rotate(-26.7)"/>
    <rect x="1803.3" y="188.9" width=".8" height="1.2"/>
    <polygon points="1666.5 236.6 1665.7 236.6 1665.3 235 1666.5 236.6"/>
    <path d="M1630.4,235.4l.4,1.2c-.7.5-2.2-1.5-.4-1.2Z"/>
    <rect x="1630" y="265" width=".8" height="1.2"/>
    <rect x="1633.2" y="268.2" width="1.2" height=".8"/>
    <rect x="1648.9" y="272.2" width="1.2" height=".8"/>
    <path d="M1129.9,56.3v76.3l.6.6h27.1V56.9l.6-.6h36.9l.6,1.4c-.5,26.7.6,53.5,0,80.2,0,4.1,0,8.3-1.2,12.2l-1.2-.8c.7,1.5-1.1,2.6-1.2,3.1s1.4,2.9.8,3.8l1.6-.8c.4,3.4.6,6.8.7,10.2s-.3,1-.3,1.6c.2,3,1.5,6.1.4,9.1l-1.2-.8c-.2,1.8,1,3,1.2,4.6s-1,1.5-1.3,2.3c-1.1,2.5.8,7.8,1,10.5.3,4.9-.7,10.5-.4,15.7s1.2,6.6.8,10c-.8,7.6,0,13.1.4,20.8s0,2,0,3l-1.4-3.2c-1.8,3.2-.2,6.2-.2,9.6h-35.9l-.6-.6v-75.9h-27.1l-.6.6v75.9h-34.1c-.4-1.2-.5-3.9-1-4.8s-1.8,0-2.4-2.8.7-2.9.6-3.8-.7-1.2-.8-2.4-.2-6.2,0-7.7.9-.5.9-.8c-.2-3.9-.8-8.1-.8-12.4-.4-52.1.3-104.2,0-156.3l.6-1.4h37.1ZM1194,159.3h-1.2c.4.8.6,2.1.4,2.9s-1,.3-1.2,1.3c-.6,2.9,1.2,6.4,1.2,9.4,1.5.3.2-2.2.4-3.4.2-2,.5-1.9.4-4.4s0-3.9,0-5.8ZM1194,173.7h-1.2s0,1.2,0,1.2l1.2-.4v-.8ZM1193.6,230.4l-.9.3.6,2.2.9-.3-.6-2.2Z"/>
    <path d="M1074.5,113.6h-37.5l-.6-.6v-21h-30.3l-.6.6v119.8c0,0,.9,1,1,1h29.3l.6-.6v-40.7h-10.6l-.6-.6v-37.7l.6-.6h43.7c.4.3.5.6.6,1,.5,2.4-.3,6.8.4,9.1s1.3.6.8,1.9l1.6-.4c.9,4.8.9,9.7.8,14.6-.2,11.4-1,22.6-.8,34,0,.5,0,2.1.8,2.2l.8-4.8v29.8c0,.3-.7,1.5-1,1.8l-25.9,25.8h-52.5c-1.1-.4-1.8-1.1-2.7-1.8-5.9-4.8-15-14.4-20.3-20.2s-4.6-4.4-4.4-7.2V83.8c.2-1,.8-1.8,1.4-2.6,5.9-7.6,16-14.5,22.1-22.4.9-.8,3.3-2.4,4.4-2.4h78.2l.6.6v56.7Z"/>
    <path d="M805.8,56.9l75.9-.2.7,4.8c1.9.2,0-3.7,1.2-4.4l.6,9.2,1.7-1.1v-2.3c0,0,1.7-5.4,1.7-5.4.5,6.7,1.5,13.5,2,20.2s.3,4.5.4,6.8-.1,4.7-.4,6.4-.2.8-.6,1h-45.1c.1.4-.4.9-.4,1v39.7l.6.6h45.7c0,0,1.4,1,1.4,1.1.3.9.2,3,.5,4.2.5,2,1.2,3.9,1.5,5.9l.4-3.8-.4-3.8c.4,0,1.2,1.2,1.2,1.4v33.3l-.6.6h-49.7l-.6.6v75.9h-37.7V56.9ZM883.6,67.1h-.8v1.2h.8v-1.2ZM884.8,69.5v-2.4h-.4v2.4h.4Z"/>
    <path d="M1310.5,56.3l.6.7c0,1.1-.4,2.6-.2,3.8s.8,1.7.9,2.3c.3,1.7,0,3.6.9,5.1l-1.2,1c1.6,0,1.2,2.8,1.6,4l.4-1.6c1.6.8,0,2.9.8,4.4l-1.4-2.4c-1.4,1.3-.7,4.3.2,5.7s.8.4,1,.7.8,3.5.6,3.6l-2.8-.4c-.8,3,.5,5.8.4,8.8h-29.7v156.6h-37.7V93c0-.1-.5-.6-.4-1h-33.5l-.6-.6v-34.5l.6-.6h99.5Z"/>
    <rect x="912.1" y="56.3" width="38.1" height="192.3"/>
    <path d="M348.3,56.3c2.4.3,4.6,2.4,6.4,4,5.8,5.1,14.2,13.4,19.2,19.2s3.1,3.5,3.4,5v72c-.2,2.2-1.5,3.8-2.9,5.3-2.4,2.6-5.9,5.2-8.7,7.6l-.4,1.2,12.1,77.9h-37.5l-12.2-76.5h-18.9v76.5h-37.7V56.9l.6-.6h76.6ZM339.7,92h-30.9v41.3h30.9v-41.3Z"/>
    <path d="M255.9,92h-34.1c0,26.2,0,52.5,0,78.7,0,17.4,0,35.1,0,52.4s.7,17.2,0,24.5,0,.9-.4,1.2c-.3.2-.5-.2-.6-.2h-36.5l-.6-.6V92h-34.1v-33.7c1.9.6,3.6-.6,5-.8,2.8-.4,6-.2,8.8,0,10.4.4,21.1-1.1,31.7-1.2,11.3,0,23.1,0,34.6.3,7.9.2,13.6,1.4,21.2,2.1s3.8-.5,5,.6v32.6ZM220.2,214.5c0-.9.2-2.1-.8-2.4v2.4s.8,0,.8,0Z"/>
    <path d="M134.4,56.7v59.1c0,.1.7.4-.2,1h-36.9l-.6-.6v-23.8h-24.7l-1.4,3.4.8.4-.4,1.4h-1.6c0,0,.8,2,.8,2-2-.2-2.1,2-2.7,2.5s-1.3.3-1.3.4v30.8h41.9l22.1,22c.9,2.9-1.3,9.3-1.4,12.6s.6,3.2.4,4.4-1.6,2.4,0,2.4l1.2-2.2c.3,3.5-.3,7.1-.2,10.6s.2,2.3-.2,5.2.2,4.3,0,6.2c1.5-.5,2.3-4.1,2.4-5.4s-.4-1.7-.4-2.8c0-1.8,1-3.4,0-5.4l.8-.2-.8-.4.8-.9.8-18.8.8-.6-.2,62.5-25.4,25.9h-54.1c0,.1-1.4-.5-1.4-.5l-25.2-25.7v-33.3l.6-.6h37.1c-.1.4.4.9.4,1v23.2l.6.6h29.3l.6-.6v-40.7h-41.9c-1.8,0-9-8.5-10.6-10.2s-15.6-15-16-16.5v-37.4c-.8.1-1.1.7-1.7-.2,1.8-1.8,1.9-3.5,1.6-6s-.8-1.1-.7-1.5c.2-1.1,1.1-1.6.8-3.7s-2-.9-.5-3.2c-.7-.3-1,0-.8-1l1.2-.2.2-9.4c1-1.4,2.2-2.7,3.3-3.9s2.6-1.5,1.1-2.5h-.6c-.5,2.1-2.3,1.2-.8-.6l-2-1,2.4-.4-.8-1,.6-1,2.2,1c0,.2-2,.8-1.6,1.8l2.1,1.2,5.7-6c-.5-3-3.2-3.2-4.6-5.2l1.8.4c.4-.6,0-1,1-.8v1.2c2.8.8,4-3.2,2.8-5.1,2.9-.7-.5-2.9,1-4.8s4.9-.2,6.2-1.4.3-.9.4-1,.8.4,1.3.3c4.9-.3,6.2,2.1,8.9,2.5,7,.9,18,0,25.3,0,12.8,0,25.3-.1,38.1,0s8.2,0,12.2.4ZM110.3,57.9c-1,0-3-.2-3.6.8,1,0,3.1.3,3.6-.8ZM131.6,199.3v-2.8h-.4v2.8h.4ZM131.2,200.1v4s.4,0,.4,0v-4s-.4,0-.4,0ZM130.4,217.4c1-.3.8-1.5.8-2.4-1,.3-.8,1.5-.8,2.4Z"/>
    <path d="M38.9,69.5v1.2c-.5.5-2.5-1.6,0-1.2Z"/>
    <path d="M25.7,104.8c-.6-.6,1.2-1.7,1.2-.6s-1,.8-1.2.6Z"/>
    <path d="M1569.5,225.6c-.4.2-.8.8-1.4,1-1.7.6-7.2,1.3-8.4,0-.5-.6.1-1.3-1.5-1.4l.2-3.4h1.8s-1.2-1.8-1.2-1.8c0-1,1.4-1.1,1.8-1.8.7-1.4-1.8-4.7,2.6-3.2-.1-4.7-1.9-1-2-1.2.1-1.1-.4-1.3-1.2-1.8-.1-1,1.2-1.5,1.2-1.6,0-.4-.3-.9-.3-1.5,0-1.1.8-2.5-.3-3.5-1.3.8-.8,1.5-.6,2.8l-2-.4c0,1.4,1.1,1.3,2,.8,1,1.8-.6,2.3-.7,3.1-.1.7.9,1.9.8,2.7,0,.3-1.4.6-1.2,1.5-1,.2-1.1-1-1.8-1.6-1.6-1.1-2.5-.5-2.9-3.5l2-1.4.4,2.4c2.8-.7,1.6-2.6-.6-3.2l-.4.8-1-1.2c1.6.6,1.7-2.2,2.2-2.8.4-.6,1.5,0,1.4-.8l-2.8-.8c1.1,2.1-1.2,3.2-2.8,4l-.4-2.8c.5.5,2.7-.6,2-1.2-1.1-.4-1.8,1.5-2.3.1l-5.2-34.1c4.3-3.4,11.3-8.2,11.9-14v-71.2c-.5-2.5-1.5-2.3-2.5-3.5-5.1-6.5-14.9-16.7-21.3-22-1.3-1.1-3.1-2.5-4.8-2.8h-77l-.6.6v191.7h37.7v-76.5h18.9l12,76.3,37.5.5.6-1.9h2c-.6-1.6,2.1-2,1.6-4h2c-1.1-2.9.3-1.6,1.1-2.5,0,0,.9-2,.9-2.1-.7-.5-2-1.3-2.4-2-.6-1.2,1.8.6,1.2-1-.4,0-1.3.2-1.5,0-.2-.2-1.9-4.4-2-4.6-.3-2.3,6.5-3.2,8.3-4,.9-.4,1.8-.8,2.5-1.6.5-1.2-2.9.3-3.2.4ZM1556.6,157.3l.4-1.6h.4s0,1.6,0,1.6h-.8ZM1557,152.1c0-.9-.2-2.1.8-2.4,0,.9.2,2.1-.8,2.4ZM1557.8,149.2c-1.2.3-.8-1.7-1.2-2.4,1.4,0,1.3,1.3,1.2,2.4ZM1557.4,146c-1.6-.9,0-3-.8-4.4,2.3.5,1.3,2.8.8,4.4ZM1558.2,141.2h-1.6s0-1.6,0-1.6c.8-.2,1.1.5,1.6,1v.6ZM1557.8,138.2c0,.3-1,.8-1.2.6-.6-.6,1.2-1.7,1.2-.6ZM1556.2,84l1.2.4v.6s-1.2,1-1.2,1v-2ZM1520.9,133.2h-30.9v-41.3h30.9v41.3Z"/>
    <path d="M1369.7,172.1v40.7l.6.6h64.4l-.4,35.3h-3.6c-.3-.8.6-1.4.6-1.8,0-.9-2.1-3-.3-3.1v-.5c0,0-1.3-1-1.3-1v5.8s-.4.6-.4.6h-97.3v-122.8s.9-.5.9-.5c.3.4,2.2,1.2,2.3.5-.2-1.5,0-4.1-2-3.8l-.2,2c-2.3-3-.6-2.3.6-3.4,2.4-2.1,1.1-1.9.8-4.6l-2,1.2c-.8-2.1-.1-3.9,0-5.8s-.5-1.8-.4-2.8.9-.5.9-.8c0-.5-.7-1-.8-2-.4-2.7.5-5.9.4-8.6,2,0,.4,3.2.8,4.4l.8-3.8v-2.6c-1.3-.2-.7,1.9-2,.1v-4.1c0,0,1.1,2.8,1.1,2.8.6.5,2.1-1.4.4-1.2v-7.8c0-.2,1.5-2.1.8-3.4l1.2.4v-2s-1.2,1.2-1.2,1.2c-.4-2.3-.8-4-.2-6.4s.8-.8.9-1.2c.3-.8-.3-9.8-.4-11.5s-1.5-5.8-.2-5.8h99.5l.6.6v34.5l-.6.6h-63.8l-.6.6v40.1l.6.6h49.7l.6.6v37.7l-.6.6h-50.3ZM1335.2,128.4c.1-.8-.5-1.3-1.2-1.2v1.2s1.2,0,1.2,0ZM1433.1,221.8h-.8s0,1.6,0,1.6c.8-.2.9-.9.8-1.6ZM1432.7,226.6c1-.2,1.1-2,.2-2.4h-.6s.4,2.4.4,2.4ZM1432.7,232.6c.9-.2.6-.7.6-1.2s.4-4-.4-4c-.6.4-.6,2.4-.6,3s.4,1.4.4,2.2ZM1433.1,237.4c-.1-1.1,1.1-2.6-.4-3.2,0,.9-.9,2.7.4,3.2ZM1430.3,236.6h-.8c0,.8,0,1.5.6,2l.2-2ZM1433.1,243.4c-.5-1.4.9-4-.4-4.8,0,.9-.4,1.7-.4,2.6s.2,2.2.8,2.2ZM1429.9,239.4l-.4,1.8.6.6.6-.6-.4-1.8h-.4Z"/>
    <polygon points="497.7 92 433.2 92 433.2 133.2 483.7 133.2 483.7 172.1 433.2 172.1 433.2 212.7 433.8 213.3 497.7 213.3 497.7 248.6 395.1 248.6 395.1 56.9 395.7 56.3 497.1 56.3 497.7 56.9 497.7 92"/>
    <path d="M517,248.6c-.6-1.7,2-4.3,0-5,.8-1.2.9-1.9-.2-3l-.6,1.2c-1,0-.6-2-.4-2.4s.9.4,1.5-.1c1.2-1.1.9-4.9-1.1-5.1-.4.5,1.2,2.8-.4,3.2.4-1.3-1.1-4.2,0-5l1.6-.4c.3-.8-.7-.5-.8-.9-.2-.7,0-6.1.2-6.6s2-.8.7-1.6-2-.9-2.1-1.8-.1-2.7,0-3.1,1-.4,1.2-.9-.6-1.8-.4-2.6l1.6.6c-1.2-1.9-2-2.8-2-5.2l1.2.6c.6-1.5-1.2-2.8-1.2-3.8s1.6-1.4,1.2-4-1-.5-1.2-1.6c-.4-1.8.7-3.6,0-5.2,0-.7,1.6.2,1.2-.8s-.6-.1-.8-.5c-1-1.7-.1-5.6,0-7.5s-.4-1.5-.4-2.4,1.3-.5.8-1.8l-.8.2-.4-2.4,1.2-.2c.2-1.2-1.3-.8-1.2-2.2s1.1-1.1,1.2-2-1.1-2-1.2-3.6.1-2,0-3l1.2.2c-.7-1.6-1.8-2.7-1-4.6l1-.2c-1.6-1.7,0-2.3,0-3.1s-.8-1.4-.8-2.9,1-2.5.9-4l-1.3-.4.2-97.6c1.1-.2,2.1-.7,3.2-.8,17.2-1.3,36,1,53.4,0,2.7,2.5,6.9.3,10.4,0s6.8,1,10.4.8,9.9-1.4,14.9-.8,1.6.7,1,2h6.8s0,1.2,0,1.2l2.4.6v31.8h-64.6v40.3c0,.1-.7.4.2,1h50.3v38.9h-50.5v40.7l.6.6h64v35.3h-101.1Z"/>
    <path d="M739.2,92h-33.5l-.6.6v6.4c0,.1-.4.7-.4,1.2-.2,1.6.7,2.9-1.2,3.6l1.2,5-1.2-.4v1.2s.8-.4.8-.4c-.2,2.6.6,4.1-.1,6.9s-2.2,2.4.1,3.3v1c-2.1-1.1.2,1.9.3,2.5.2,2.1-1.7.8-1.5,2.5s.8.5.8.7c0,.4-.5.9-.4,1.6s1.2.3,1.3,1.3c-1.1,1.9-.4,1.9-.3,3.2s.8,6.1-1,6.8v1s1.6.6,1.6.6l-.4,7.8-.8-1.2-.8,1c1.3.7,2,1.8,1.9,3.3s-.7,1.4-.7,2.3.8,2,.7,2.7-.7,1-.8,1.6c-.6,2.7.9,2.4,1,3.3.3,2.3-.8,5-.7,6.3s.7,1.5.7,2.5c.1,2.2.2,5.9,0,8s-.8.6-.9.8c0,.8.8,1.3.8,2.4.1,1.7-.5,4.1-.4,5.6,0,7.8.4,15.4.5,23.2,0,12.7,0,25.5,0,38.3h-34.1c-.4-5,.4-10-.5-14.9s-1-2.9-2.3-1.5l-.8-3.4c.4-28.7-.4-57.5,0-86.2.1-7.3.5-14.3.4-21.6,0-5.5,0-11.2,0-16.8s0-5.7-.4-8.4.5-2.9-.6-3.8h-33.3l-.6-.6v-32c0-.5.4-1.3,0-2.2,1-.1,2.4-.8,3.4-.7s1.6.7,2.4.7c5.7.3,11.4-.4,17.2-.4s2.1.2,3.6.4,4.6-.7,6.2-.6c21.4.5,43-.2,64.3-.2s7.5-.2,8.4,0,.5.3.7.5v35.1ZM704.7,171.7h-.8v1.2h.8v-1.2ZM669,193.7l.4-1.4-.6-.6-1,1,1.2,1Z"/>
    <path d="M516.2,248.6c-1.5.3-.6-2-.8-2.8.7,0,.9,2.7.8,2.8Z"/>
  </g>
</svg>