<?xml version="1.0" encoding="UTF-8"?>
<svg id="Warstwa_1" xmlns="http://www.w3.org/2000/svg" version="1.1" viewBox="0 0 1920 545.2">
  <!-- Generator: Adobe Illustrator 29.3.1, SVG Export Plug-In . SVG Version: 2.1.0 Build 151)  -->
  <path d="M575.7,241.1h62.1L561,3.7h-102.6l16,27.7-67.8,209.7h61l7.9-26.8,85.6-22.9,14.6,49.7ZM491.9,158.4l29.7-100.9,25.3,86-55,15Z"/>
  <polygon points="841.8 3.7 778.7 93.8 716.1 3.7 661 3.7 661 241.1 719.8 241.1 719.8 107.2 778.6 188.2 837.4 107.2 837.4 241.1 896.2 241.1 896.2 3.7 841.8 3.7"/>
  <path d="M1357.4,100.7l-27.2,47h64.8c-3.7,24.1-21.3,41.9-56.8,41.9s-58.8-22.8-58.8-67.6,19.8-66.9,58.8-66.9,39.7,8.8,50.1,25.6l57.2-15.3c-14-45.6-58.8-65.4-111-65.4s-117.6,39.7-117.6,122.7,56.6,122,121.3,122,124.2-63.9,114.6-144h-95.6Z"/>
  <rect x="1124.1" y="3.7" width="62.1" height="237.4"/>
  <polygon points="1090.6 58 1090.6 3.7 941.4 3.7 941.4 241.1 1003.5 241.1 1003.5 161.7 1051.6 161.7 1082.9 107.3 1003.5 107.3 1003.5 58 1090.6 58"/>
  <polygon points="298.3 186.7 298.3 145.9 374.4 145.9 374.4 94.3 298.3 94.3 298.3 57.9 392 57.9 392 3.6 0 3.6 31.4 57.9 100.1 57.9 100.1 287.5 162.2 304.1 162.2 57.9 262.8 57.9 236.2 104 236.2 241 373 241 392.8 186.7 298.3 186.7"/>
  <polygon points="1920 3.6 1620.7 3.7 1620.7 82.1 1545.1 102.3 1545.1 3.7 1483 3.7 1483 241.1 1545.1 241.1 1545.1 159.1 1620.7 138.8 1620.7 241.1 1682.8 241.1 1682.8 102.3 1657.2 57.9 1757.8 57.9 1757.8 304.1 1819.9 287.5 1819.9 57.9 1888.6 57.9 1920 3.6"/>
  <path d="M1620.8,398.9c-30.1-6.6-39-8.1-48.5-10.3-15.4-3.7-23.5-8.8-23.5-19.8s14-19.1,32.3-19.1,35.5,9.9,41,23.5l57.5-15.4c-5.1-30.9-39-57.3-98.5-57.3s-93.3,24.3-93.3,73.5,21.3,58.1,63.9,66.9l39,8.1c20.6,4.4,30.1,10.3,30.1,21.3s-8.1,25-37.5,25-43.4-14.7-48.5-35.3l-58.5,15.7c10.5,41.3,42.2,69.6,107.8,69.6s99.2-26.5,99.2-82.3-24.3-55.9-62.5-63.9Z"/>
  <path d="M1398.8,452.8c-7.7,23.1-22.5,37.3-54.1,37.3s-59.5-25.7-59.5-67.6,22-66.9,59.5-66.9,41.4,11.3,49.5,31.9l58.6-15.7c-15.4-52.2-58.8-71.3-109.5-71.3s-121.3,39.7-121.3,122.7,55.1,122,119.8,122,99.2-21.3,113.9-77.2h0l-56.8-15.2Z"/>
  <path d="M830.8,452.8c-7.7,23.1-22.5,37.3-54.1,37.3s-59.5-25.7-59.5-67.6,22-66.9,59.5-66.9,41.4,11.3,49.5,31.9l58.6-15.7c-15.4-52.2-58.8-71.3-109.5-71.3s-121.3,39.7-121.3,122.7,55.1,122,119.8,122,99.2-21.3,113.9-77.2h0l-56.8-15.2Z"/>
  <rect x="1124.1" y="304.1" width="62.1" height="237.4"/>
  <polygon points="1101.3 304.1 882.8 304.1 914.2 358.5 961 358.5 961 541.5 1023.1 541.5 1023.1 358.5 1069.9 358.5 1101.3 304.1"/>
  <polygon points="442.1 304.1 223.6 304.1 255 358.5 301.8 358.5 301.8 541.5 363.9 541.5 363.9 358.5 410.7 358.5 442.1 304.1"/>
  <path d="M588.7,541.5h62.1l-76.8-237.4h-102.6l16,27.7-67.8,209.7h61l7.9-26.8,85.6-22.9,14.6,49.7ZM505,458.8l29.7-100.9,25.3,86-55,15Z"/>
  <g>
    <polygon points="1683.3 306.8 1688.5 306.8 1688.5 321.3 1691.9 321.3 1691.9 306.8 1697.1 306.8 1697.1 304.1 1683.3 304.1 1683.3 306.8"/>
    <polygon points="1710.1 316.3 1705.4 304.1 1700.6 304.1 1700.6 321.3 1703.7 321.3 1703.7 307.9 1703.8 307.9 1708.9 321.3 1711.3 321.3 1716.4 307.9 1716.5 307.9 1716.5 321.3 1719.6 321.3 1719.6 304.1 1714.8 304.1 1710.1 316.3"/>
  </g>
</svg>