<svg width="40" height="40" viewBox="0 0 40 40" fill="none" xmlns="http://www.w3.org/2000/svg">
<path d="M5.21877 31.3091L19.6043 3.50931C19.9603 2.82058 20.9255 2.83305 21.2656 3.53042L34.8027 31.3254C35.1624 32.064 35.0213 32.9561 34.4523 33.5403L31.3558 36.7192C31.0064 37.078 30.4439 37.0953 30.0748 36.7576L22.2925 31.3609C21.6487 30.7748 22.0523 29.6842 22.9119 29.6842H26.9951L20.4546 15.2955L12.9796 29.6842H17.0628C17.9224 29.6842 18.3261 30.7748 17.6832 31.36L9.90088 36.7567C9.53087 37.0943 8.96932 37.077 8.61986 36.7183L5.5486 33.5653C4.96649 32.9686 4.83287 32.0535 5.21877 31.3091Z" fill="white"/>
</svg>
