<svg width="40" height="40" viewBox="0 0 40 40" fill="none" xmlns="http://www.w3.org/2000/svg">
<path fill-rule="evenodd" clip-rule="evenodd" d="M21.1505 37.773C20.8537 37.7761 20.5488 37.7777 20.2355 37.7777C20.2355 37.7777 20.2355 37.7777 20.2355 37.7777M21.1505 37.773C31.7094 37.6615 32.0002 35.621 32.0002 35.4752C32.0002 32.5408 30.9403 29.585 28.7146 27.8821C24.0723 24.2945 23.4894 21.0923 23.4046 19.0789C23.4046 18.5435 23.4046 18.0937 23.394 17.7402H26.9976C27.4215 16.9477 27.6335 16.2195 27.6335 15.3092L23.5529 12.589C24.9732 11.5501 25.8953 9.85804 25.8953 7.95175C25.8953 4.78174 23.3622 2.22217 20.2461 2.22217C20.2426 2.22217 20.239 2.22217 20.2355 2.22218C20.2319 2.22217 20.2284 2.22217 20.2248 2.22217C17.1088 2.22217 14.5756 4.78174 14.5756 7.95175C14.5756 9.85804 15.4977 11.5501 16.918 12.589L12.8374 15.3092C12.8374 16.2195 13.0494 16.9477 13.4734 17.7402H17.077C17.0664 18.0937 17.0664 18.5435 17.0664 19.0789C16.9816 21.0923 16.3986 24.2945 11.7563 27.8821C9.53059 29.585 8.4707 32.5408 8.4707 35.4752C8.4707 35.6251 8.77807 37.7777 20.2354 37.7777C20.2354 37.7777 20.2354 37.7777 20.2355 37.7777" fill="white"/>
</svg>
