<svg width="40" height="40" viewBox="0 0 40 40" fill="none" xmlns="http://www.w3.org/2000/svg">
<path d="M35.8659 14.8351L40 7L39.4254 7.30125C39.396 7.30125 36.6008 8.79165 35.6975 9.21445C34.7942 9.63726 32.7018 9.53949 32.6831 9.53684H23.3057C23.1454 9.53684 20.6815 9.41793 19.5644 12.3961C19.5644 12.3961 16.0904 22.3373 15.8846 22.8843L11.526 18.7329L12.5094 16.7378H16.8654C16.8654 16.7378 18.3592 12.5863 18.3699 12.5467L18.4474 12.2824H2.87286C2.83812 12.2824 -0.0159669 12.4014 6.73068e-05 15.6887V20.4083L2.10322 18.0036C2.16263 17.9215 2.23921 17.8531 2.32775 17.803C2.41628 17.7528 2.5147 17.7221 2.61631 17.7129C3.1107 17.6706 3.63181 18.1145 3.65319 18.133L18.6665 33L22.4078 22.1656H30.8472L32.7178 17.4856H23.9899L24.9092 14.8431C25.1764 14.8299 35.8659 14.8351 35.8659 14.8351Z" fill="white"/>
</svg>
