<svg width="40" height="40" viewBox="0 0 40 40" fill="none" xmlns="http://www.w3.org/2000/svg">
<path d="M20.3921 0H22.9583C24.164 0.370312 25.1227 1.34844 25.498 2.55C25.645 2.61719 25.792 2.68438 25.939 2.75C25.7935 3.35625 25.6497 3.9625 25.5027 4.56719C25.2571 4.55156 25.0101 4.53594 24.7645 4.52031C24.7739 4.63594 24.7911 4.86719 24.8005 4.98281C28.4536 4.98594 32.1051 4.9875 35.7582 4.98125C35.949 4.71406 36.1445 4.45 36.3509 4.19375C36.4791 4.54844 36.5182 4.925 36.5245 5.30156C37.3486 5.3 38.1743 5.30156 39 5.30312C39 5.51719 39 5.73281 39 5.94688C38.168 5.95 37.3361 5.94844 36.5057 5.95C36.501 6.37188 36.4979 6.79531 36.4916 7.21875C34.3601 7.23438 32.2271 7.2125 30.0956 7.22031C29.9768 7.86094 29.8548 8.5125 29.5342 9.0875C29.6984 9.89844 29.9017 10.7 30.0706 11.5094C29.2621 11.7016 28.452 11.8859 27.642 12.0687C27.5528 11.7 27.4653 11.3313 27.3667 10.9656C27.0024 11.6062 26.8507 12.3578 26.4253 12.9609C25.939 13.3031 25.3244 13.5391 24.7254 13.5031C24.089 13.2422 23.5276 12.8297 22.9239 12.5031C22.6893 12.7656 22.4563 13.0281 22.2233 13.2891C22.386 13.5063 22.5502 13.7234 22.7144 13.9406C22.0638 15.2281 21.3929 16.5047 20.7361 17.7891C20.5016 17.8141 20.267 17.8406 20.034 17.8656C20.156 18.6812 19.9089 19.6344 20.4859 20.3141C21.3945 21.7859 22.1702 23.3375 23.0303 24.8391C23.4916 25.7406 24.1468 26.6078 24.1781 27.6594C24.2516 28.4219 23.8669 29.1109 23.5932 29.7953C22.7582 31.8281 21.9168 33.8578 21.0911 35.8937C20.8362 36.575 20.2216 37.0094 19.7447 37.5281C19.9824 37.8828 20.1607 38.3 20.5 38.5703C21.2147 38.8937 21.9934 39.0453 22.7331 39.3031C22.7003 39.5359 22.669 39.7672 22.6315 40H15.918C16.0181 38.6375 16.5295 37.3594 16.8751 36.05C17.3426 34.5375 17.4646 32.9453 17.8775 31.4234C18.3873 30.3172 19.0644 29.2969 19.6024 28.2031C19.2599 27.9969 18.8846 27.8203 18.614 27.5156C17.5319 26.2094 16.7124 24.7156 15.782 23.3063C15.6193 22.9312 15.1095 23.0859 15.0079 23.4203C14.3057 24.9656 13.6442 26.5297 12.953 28.0797C12.5323 28.9969 12.2149 29.9813 11.569 30.775C9.85976 32.9672 8.17396 35.1797 6.46002 37.3688C5.82667 38.0922 6.03309 39.1203 5.90642 40H2C2.39877 39.3469 2.75689 38.6703 3.10875 37.9922C2.92735 37.1937 3.14784 36.3844 3.49345 35.6625C4.3989 33.5891 5.2809 31.5047 6.17384 29.4266C6.57418 28.475 7.57346 28.0312 8.22244 27.2953C8.72599 25.3781 8.60558 23.3641 8.94493 21.4219C9.22016 21.3734 9.50008 21.3531 9.77845 21.325C10.0975 20.5406 10.3696 19.7391 10.6792 18.9516C10.8653 18.3875 11.4955 18.1313 11.6879 17.575C11.8708 17.0813 12.01 16.5734 12.1758 16.075C11.7895 15.8219 11.4033 15.5703 11.0186 15.3172C11.5393 13.7766 12.0413 12.2281 12.6137 10.7047C12.9858 10.7078 13.358 10.7125 13.7302 10.7156C14.179 9.75625 14.5981 8.78438 15.0485 7.82656C15.563 6.75625 16.2714 5.71562 17.3129 5.1C17.8712 4.76094 18.5484 4.82969 19.1739 4.79531C19.2927 4.59219 19.4116 4.38906 19.532 4.18594C19.3178 4.0875 19.1035 3.99062 18.8908 3.89219C18.8564 3.22813 18.761 2.55938 18.8298 1.89375C18.9909 1.05 19.6477 0.384375 20.3921 0Z" fill="white"/>
</svg>
