<svg width="40" height="40" viewBox="0 0 40 40" fill="none" xmlns="http://www.w3.org/2000/svg">
<path d="M15.142 4.15113C15.6109 3.66962 16.3961 3.70353 16.7551 3.1022C17.5807 3.0276 18.4041 2.97335 19.2297 3.08412C20.0149 2.95526 20.8091 2.99596 21.5966 3.06377C21.1501 3.85273 22.1687 3.72387 22.6331 3.8256C22.9943 3.85725 22.927 4.44274 23.3107 4.44726C23.8603 4.46309 24.4122 4.40205 24.9619 4.37719C25.0763 3.98836 25.1818 3.59502 25.3209 3.21524C27.3692 3.12707 29.4063 3.38026 31.4502 3.45938C31.4681 3.61762 31.5063 3.93411 31.5242 4.09235C31.6521 4.1353 31.9056 4.2212 32.0335 4.26416C32.1681 4.0494 32.3027 3.83464 32.4373 3.61988C33.411 3.81204 34.4408 3.57693 35.3876 3.85273C35.4369 3.92054 35.5379 4.05392 35.5895 4.12174C36.3276 4.05844 36.433 4.818 36.2603 5.36959C35.9417 6.28288 36.4241 7.17808 36.3927 8.09814C36.442 10.1508 36.4263 12.2057 36.3455 14.2538C36.1122 14.4233 35.8071 14.4437 35.5536 14.5725C35.2799 14.8596 35.4953 15.2123 35.5827 15.5242C35.0847 15.7006 35.0286 16.2115 35.0084 16.6794C35.0959 16.8037 35.2731 17.0524 35.3606 17.1767C35.5289 17.4435 35.7577 17.6786 35.8609 17.9815C36.0831 19.2294 35.9978 20.4998 35.8879 21.7545C35.6747 21.8562 35.4616 21.9557 35.2485 22.0551C35.2844 22.6858 36.0158 22.4575 36.4196 22.4598C36.4891 24.6051 36.4577 26.7504 36.4734 28.8957C36.3792 31.2987 36.5452 33.7018 36.4532 36.1048C35.3786 35.6007 34.093 35.0966 32.9152 35.5238C32.8681 35.6414 32.7761 35.8765 32.7312 35.994C32.8613 35.9985 33.1216 36.0099 33.2517 36.0144C32.305 36.4213 31.2303 36.3919 30.2633 36.0754C29.5611 36.1794 28.8701 36.1071 28.2397 35.7544C28.0086 36.0257 27.681 36.1862 27.3221 36.1658C25.4958 36.3783 23.6472 36.1003 21.8277 36.4032C21.3947 36.5117 21.0806 36.939 20.6252 36.9503C20.3604 36.6338 20.062 36.4213 19.6649 36.6473C19.0838 36.4416 18.4355 36.0958 17.8432 36.462C17.7983 36.5953 17.7086 36.8666 17.6615 37C17.5358 36.9887 17.2823 36.9661 17.1544 36.9548C16.8672 36.5162 16.5823 36.0731 16.3288 35.6165C16.1089 35.6911 15.9137 35.8041 15.7387 35.9556C15.2541 35.7634 14.7336 35.7454 14.2199 35.7454C13.318 35.1463 12.1985 35.8923 11.1956 35.7431C10.5809 35.3678 9.80686 35.7341 9.12707 35.5396C7.92903 35.6934 6.71079 35.4967 5.51948 35.7295C4.71854 35.8833 3.92433 35.569 3.17948 35.3091C3.7785 33.1909 2.81379 30.9868 3.43973 28.8867C3.54294 28.8528 3.74934 28.7804 3.85254 28.7465C4.13747 27.5122 4.08363 26.244 4.11279 24.9871C3.88844 24.8266 3.60127 24.7339 3.43749 24.5011C3.20865 23.312 3.30288 22.0913 3.1907 20.8887C3.48685 20.7123 3.88395 20.64 4.08138 20.3325C4.2833 19.8691 4.12625 19.3537 4.11279 18.8722C3.32756 18.3025 3.48012 17.2581 3.67755 16.4375C3.66633 15.3863 3.39711 14.3532 3.1032 13.3495C3.02244 12.6533 3.00224 11.9502 3 11.2494C3.43524 9.3347 3.59454 7.35215 3.42178 5.39672C2.95289 4.90391 3.36121 4.2732 3.45768 3.72161C6.10729 3.64475 8.76138 3.72387 11.4132 3.76908C11.66 4.00419 11.9472 4.18051 12.3039 4.12626C13.2507 4.10139 14.1974 4.27546 15.142 4.15113ZM6.43709 9.36409C6.69733 10.2457 7.57231 10.7159 8.09954 11.4258C8.28351 11.6857 8.50786 11.9095 8.76587 12.0972C9.7261 13.18 10.7806 14.1724 11.7542 15.2439L11.7453 15.3615C12.9523 16.3674 13.8789 17.6741 15.0993 18.6642C15.6176 19.3198 16.2144 19.9053 16.7461 20.5473C17.5695 21.5216 18.6037 22.288 19.3733 23.312C20.2123 24.3474 21.4216 25.0278 22.1104 26.183C23.1312 27.3698 24.2888 28.4346 25.267 29.6575L25.3612 29.6802C25.6798 30.1029 26.0433 30.5324 26.5009 30.8037C27.7439 31.0591 29.0204 31.2038 30.2903 31.2083C31.0306 31.0546 31.2168 30.2204 31.5063 29.6304C32.1502 27.9983 32.619 26.2892 32.8748 24.5508C32.4328 24.2004 31.9617 23.893 31.5197 23.5449C30.739 22.9978 29.9762 22.3897 29.0227 22.1908C28.7692 21.5488 28.1118 21.2752 27.5846 20.9045C26.6535 20.3552 25.8099 19.6747 24.8968 19.1028C22.5142 17.4322 20.0867 15.8317 17.7131 14.143C16.9704 13.5982 16.1695 13.137 15.465 12.5402C14.7673 12.3639 14.258 11.8417 13.6164 11.5524C13.3673 11.3579 13.0757 11.2042 12.8962 10.9352C12.5283 10.361 11.7969 10.2209 11.3392 9.73483C10.8411 9.32113 10.204 9.09959 9.79564 8.57739C8.57741 8.3129 7.55212 9.03856 6.43709 9.36409ZM27.4275 8.66556V8.84415C25.8705 9.24879 24.3158 9.65344 22.7543 10.0468L22.7318 10.4356C23.1424 10.6956 23.5148 11.0075 23.8917 11.3105C24.1004 11.3851 24.2664 11.5184 24.3875 11.7129C24.4975 11.7875 24.7173 11.9367 24.8273 12.0113L24.9776 12.0271L24.9574 12.2079C25.3209 12.3775 25.6574 12.6013 25.9535 12.8771C26.5929 13.3812 27.2256 13.8943 27.8852 14.3758L27.8942 14.5544C27.9817 14.5409 28.1567 14.5137 28.2419 14.5024C28.3272 14.6132 28.4977 14.8393 28.5829 14.9523C28.6974 15.0066 28.924 15.1151 29.0384 15.1693C29.265 15.1761 29.4893 15.1851 29.7159 15.1942C29.698 13.5281 30.4675 11.9841 30.3935 10.3203C30.4451 9.95862 30.0726 9.8049 29.8416 9.62858C29.1034 9.16967 28.3586 8.51636 27.4275 8.66556ZM9.16073 23.1764C9.09118 23.2939 8.95208 23.5313 8.88253 23.6489C8.64696 24.4288 8.28799 25.1748 7.97166 25.9253C7.76077 26.452 7.6441 27.0307 7.29411 27.4919C7.04732 28.091 6.88803 28.733 7.02713 29.384C7.39956 29.5264 7.67551 29.8181 7.96941 30.078C8.15338 30.1888 8.33511 30.3018 8.51459 30.4216C8.67164 30.5821 8.83317 30.7381 9.00368 30.8851L9.03733 30.9642C9.29085 31.0546 9.46136 31.2287 9.54661 31.4886C10.4777 31.6424 11.4177 31.5271 12.351 31.4389C12.8334 31.1835 13.3247 30.9031 13.8744 30.8285C14.6574 30.7449 15.3125 30.2453 16.0708 30.0645C16.0484 29.9311 16.0012 29.6666 15.9766 29.5355C15.2586 29.2122 14.8862 28.4187 14.1997 28.0299L14.2064 27.8717L13.9686 27.8739L13.9776 27.7066C13.8946 27.6592 13.733 27.5597 13.6523 27.5122C13.502 27.363 13.3516 27.2184 13.1968 27.0759C12.968 26.8567 12.7481 26.6261 12.544 26.3819C12.3892 26.235 12.2321 26.0881 12.0751 25.9434C11.0677 25.0595 10.2488 23.9608 9.16073 23.1764Z" fill="white"/>
</svg>
