<?xml version="1.0" encoding="UTF-8"?>
<svg id="_レイヤー_1" data-name="レイヤー_1" xmlns="http://www.w3.org/2000/svg" version="1.1" viewBox="0 0 1920 1080">
  <!-- Generator: Adobe Illustrator 29.3.0, SVG Export Plug-In . SVG Version: 2.1.0 Build 146)  -->
  <defs>
    <style>
      .st0 {
        fill: #fff;
      }

      .st1 {
        display: none;
      }
    </style>
  </defs>
  <g class="st1">
    <rect x=".5" y=".5" width="1919" height="1079"/>
    <path class="st0" d="M1919,1v1078H1V1h1918M1920,0H0v1080h1920V0h0Z"/>
  </g>
  <g>
    <g>
      <rect class="st0" x="534.8" y="908.1" width="17.7" height="53.9"/>
      <rect class="st0" x="534.8" y="883.2" width="17.7" height="16.7"/>
      <path class="st0" d="M944.2,895.7h-12.2c-2.7,0-4.8.3-6.5.9l-1.3.5v-27.4h-17.7v92.3h17.7v-46.1c0-4.2,2.3-6.2,7-6.2h7c4.5,0,7,2.2,7,6.2v46.1h17.7v-49.2c0-10.5-7.2-17-18.7-17Z"/>
      <polygon class="st0" points="1127.5 930.7 1114.7 879.7 1099.4 879.7 1086.7 930.7 1074.2 875.1 1055.7 875.1 1076.5 962 1094.7 962 1107.1 918.1 1119.5 962 1137.7 962 1158.5 875.1 1140 875.1 1127.5 930.7"/>
      <rect class="st0" x="1227.6" y="869.7" width="17.7" height="92.3"/>
      <polygon class="st0" points="1289.6 934.6 1288.7 937.1 1274.2 896.4 1255.5 896.4 1280.1 961.4 1280.4 962 1297 962 1321.8 896.4 1303.1 896.4 1289.6 934.6"/>
      <path class="st0" d="M478.3,892.1h13c4.1,0,8.5,2.6,9.3,8.5v.8h20.4v-1c-.3-15.8-11-25.2-28.7-25.2h-15.1c-17.7,0-28.6,10.3-28.6,27v33.9c0,16.7,11,27,28.6,27h15.1c17.9,0,28.6-9.8,28.6-26.3v-1.9h-20.2v.8c-.9,5.8-5.4,8.4-9.4,8.4h-13c-4.7,0-9.4-3.5-9.4-10.3v-31.5c0-6.7,4.7-10.3,9.4-10.3Z"/>
      <path class="st0" d="M743.1,895.7h-9.7c-15.2,0-23.2,6.7-23.2,19.3v28.3c0,12.5,8.3,19.3,23.2,19.3h9.7c15,0,23.3-6.9,23.3-19.3v-28.3c0-16-12.7-19.3-23.3-19.3ZM748.6,942c0,3.5-2,5.4-5.6,5.4h-9.7c-3.6,0-5.6-1.9-5.6-5.4v-26.7c0-3.6,1.9-5.4,5.6-5.4h9.7c3.6,0,5.6,1.9,5.6,5.4v26.7Z"/>
      <path class="st0" d="M1192.5,895.7h-9.7c-15.2,0-23.2,6.7-23.2,19.3v28.3c0,12.5,8.3,19.3,23.2,19.3h9.7c15,0,23.2-6.9,23.2-19.3v-28.3c0-12.6-8-19.3-23.2-19.3ZM1198,915.3v26.7c0,3.6-1.9,5.4-5.6,5.4h-9.7c-3.6,0-5.6-1.9-5.6-5.4v-26.7c0-3.6,1.9-5.4,5.6-5.4h9.7c3.7,0,5.6,1.9,5.6,5.4Z"/>
      <path class="st0" d="M1012.1,943.8c-.7,3.1-3.3,3.7-5.4,3.7h-9.7c-3.6,0-5.6-1.9-5.6-5.4v-7.9h38.5v-19.1c0-12.6-8-19.3-23.2-19.3h-9.7c-15.2,0-23.2,6.7-23.2,19.3v28.3c0,12.5,8.3,19.3,23.2,19.3h9.7c14.9,0,22.9-6.4,23.2-18.6v-1s-17.7,0-17.7,0l-.2.7ZM991.4,923v-7.6c0-3.6,1.9-5.4,5.6-5.4h9.7c3.6,0,5.6,1.9,5.6,5.4v7.6h-20.8Z"/>
      <path class="st0" d="M1365.4,943.8c-.7,3.1-3.3,3.7-5.4,3.7h-9.7c-3.6,0-5.6-1.9-5.6-5.4v-7.9h38.5v-19.1c0-12.6-8-19.3-23.2-19.3h-9.7c-15.2,0-23.3,6.7-23.3,19.3v28.3c0,8.8,4,19.3,23.3,19.3h9.7c14.9,0,22.9-6.4,23.2-18.6v-1s-17.7,0-17.7,0l-.2.8ZM1344.7,923v-7.6c0-3.6,1.9-5.4,5.6-5.4h9.7c3.6,0,5.6,1.9,5.6,5.4v7.6h-20.8Z"/>
      <path class="st0" d="M1449.1,933.9h0c-.9-2.4-2.4-4.4-4.4-6.1-1.9-1.6-4.4-2.8-7.5-3.9-3-1-6.6-1.8-10.7-2.4l-7.1-.9c-2.1-.3-3.7-.7-5-1.1-1.9-.6-2.8-1.9-2.8-4.3s2.1-5.4,5.6-5.4h9.7c2.1,0,4.7.6,5.4,3.7l.2.8h17.7v-1c-.3-11.7-8.2-17.6-23.3-17.6h-9.7c-15.4,0-23.2,6.2-23.2,18.3v.9c0,4,.3,5.6,1.1,7.7.9,2.3,2.3,4.4,4.4,6,1.9,1.6,4.4,2.9,7.5,3.9,2.8,1,6.3,1.8,10.7,2.4l7.3,1c2,.3,3.4.5,4.6.8,2.1.6,3.1,2.4,3.1,5.5,0,3.9-1.6,5.4-5.6,5.4h-9.7c-2,0-4.6-.6-5.4-3.7l-.2-.7h-17.7v1c.3,12.2,8.4,18.6,23.3,18.6h9.7c12.1,0,20.2-4.3,22.4-11.9.5-1.8,1.1-4.4,1.1-8.4s-.3-6.2-1.2-8.4Z"/>
      <path class="st0" d="M604.8,910.9l3.6-14.5h-18.2v-13.2h-17.7v13.2h-8.7v14.5h8.7v30.1c0,13.2,8.8,21,23.6,21h5.5l4-16.2h-6.9c-5.3,0-8.5-2.7-8.5-7.3v-27.7h14.6Z"/>
      <path class="st0" d="M892.5,910.9l3.5-14.5h-18.2v-13.2h-17.7v13.2h-8.7v14.5h8.7v30.1c0,13.2,8.8,21,23.6,21h5.6l4-16.2h-6.9c-5.3,0-8.5-2.7-8.5-7.3v-27.7h14.6Z"/>
      <path class="st0" d="M649.6,933.1l-.9,2.4-14.4-39.1h-18.8l23.5,61.7.2.4-2.1,5c-.7,1.8-1.5,2.8-1.7,3.2-.8,1.1-1.9,2.1-6,2.1h-3.2l-3.6,14.7h1.3c2,0,4.9,0,6.6,0h1.6c1.6,0,3.2,0,4.8-.2,2.6-.3,5-1.1,7.1-2.2,2.1-1.1,4.1-2.8,5.8-4.8,1.6-1.9,3-4.2,4.3-7h.4v-.8c.5-1.1,1.1-2.6,1.8-4.2l25.7-67.8h-18.7l-13.5,36.7Z"/>
      <path class="st0" d="M803.7,888.1c0-1.1.4-3.5,3.9-3.5h7.3l3.6-15h-16.6c-11.7,0-15.9,7.8-15.9,14.5v12.2h-8.8v15.1h8.8v50.7h17.7v-50.7h13.6l3.7-15h-17.3v-8.2Z"/>
    </g>
    <g>
      <rect class="st0" x="1343.6" y="414" width="9.4" height="21.4"/>
      <rect class="st0" x="1433" y="414" width="11.2" height="21.4"/>
      <path class="st0" d="M1444.2,444.5v-4l-11.2,8.1v17.4c6-5.7,11.2-13,11.2-21.4Z"/>
      <rect class="st0" x="1101" y="414" width="71.2" height="21.4"/>
      <rect class="st0" x="1253.5" y="414" width="8.8" height="21.4"/>
      <polygon class="st0" points="1353 506.6 1343.6 513.4 1343.6 539.7 1353 533 1353 506.6"/>
      <polygon class="st0" points="618.8 582.1 647.7 603 651 579 618.8 555.7 618.8 582.1"/>
      <polygon class="st0" points="618.8 435.4 670.6 435.4 673.5 414 618.8 414 618.8 435.4"/>
      <polygon class="st0" points="1052.2 306.6 952 .4 851.7 306.6 874.2 306.6 952 69 1029.8 306.6 1052.2 306.6"/>
      <polygon class="st0" points="486.5 414 489.5 435.4 537.5 435.4 537.5 414 486.5 414"/>
      <polygon class="st0" points="493.5 465 497.5 494.2 537.5 523.2 537.5 496.8 493.5 465"/>
      <polygon class="st0" points="798.4 435.4 822.9 435.4 822.9 394.6 816.5 414 795.5 414 798.4 435.4"/>
      <path class="st0" d="M1199.1,644.4c-5.8-4.3-10.7-9.6-14.8-15.7l-41.1,29.8,5.6,17h22.5l-2.9-8.9,30.7-22.3Z"/>
      <polygon class="st0" points="747.8 657.5 746.8 648.4 723.9 631.8 721.3 656.3 735.6 666.7 732.7 675.5 755.1 675.5 760.7 658.5 759.4 657.6 747.8 657.5"/>
      <polygon class="st0" points="1205.5 848.1 1219.7 891.6 1219.7 861.8 1232.4 861.8 1228 848.1 1205.5 848.1"/>
      <path class="st0" d="M1253.1,969.9h-7.7l17.9,54.5-74.2-53.8h-6.4c-19.4,0-31.1-10.1-31.1-27.2l-1.2-.9-5.4,22.5,159.1,115.4-51.1-155.5v45Z"/>
      <polygon class="st0" points="1046.7 867.2 1020.4 848.1 984 848.1 1053.2 898.3 1045.8 867.2 1046.7 867.2"/>
      <path class="st0" d="M778.2,924.5l-4,2.9v15.9c0,4.7-.9,8.8-2.6,12.4l6.6-4.8v-26.4Z"/>
      <g>
        <polygon class="st0" points="811.5 919.2 811.5 926.7 821.9 919.2 821.9 919.2 811.5 919.2"/>
        <polygon class="st0" points="883.5 848.1 827.8 888.5 831 888.5 823.8 917.9 843.6 903.5 843.6 888.5 852.3 888.5 852.3 875.3 882.4 875.3 919.9 848.1 883.5 848.1"/>
      </g>
      <path class="st0" d="M743.1,970.5h-9.7c-5.7,0-10.7-.9-15-2.6l-77.7,56.4,13.6-41.3c-2,2-4.2,3.7-6.5,5-3,1.6-6.3,2.6-9.8,3.1h-.2c-1.8.2-3.7.3-5.6.3h-1.6c-.4,0-.9,0-1.5,0l-29.2,89,152.7-110.8c-2.9.6-6,.9-9.4.9Z"/>
      <polygon class="st0" points="676 848.1 662.7 888.5 685.2 888.5 698.5 848.1 676 848.1"/>
    </g>
    <g>
      <polygon class="st0" points="279.5 510.3 324.1 510.3 338.5 455.8 279.5 455.8 279.5 373.8 334.6 373.8 349 319.4 223.3 319.4 223.3 644.9 279.5 644.9 279.5 510.3"/>
      <polygon class="st0" points="1088.3 510.3 1132.8 510.3 1147.3 455.8 1088.3 455.8 1088.3 373.8 1143.4 373.8 1157.8 319.4 1032.1 319.4 1032.1 644.9 1088.3 644.9 1088.3 510.3"/>
      <path class="st0" d="M1368.8,450.7c2.5-5.3,5.9-11.3,7.3-11.8,3-1,9.3-7.4,11.1-10,1.7-2.6,5.2-6.9,5.3-7l8.7-12.2c.8-.7,6.2-5.3,8.6-6.9,1.6-1,5-5,10.4-11.7l.2-.3v-17.1h22.7c.8,0,1.5,0,2.2.1h.7c0,0,3.4-3.7,3.4-3.7l11.3-6.7,8-7.1,7.1-7.1,7.3-9.4-9.7,2.7c2-1.7,4.3-3.7,5.2-5.1h0c1.3-1.9,5.7-3.5,7.4-4l10-6.3-1.2-.8c-6.9-4.7-15.6-7-25.8-7h-53l-2.8,1.8-10.7,6.2-8.8,7.1-27.9,23.7v96.1l2.9-3.2.2-.2Z"/>
      <polygon class="st0" points="1379.3 336.7 1381.8 332.5 1386.1 329.1 1388.9 323.6 1393 319.4 1365.7 319.4 1365.7 354.2 1376.5 340.4 1379.3 336.7"/>
      <polygon class="st0" points="550.3 644.9 606 644.9 606 373.8 642.9 373.8 657.3 319.4 511.8 319.4 511.8 373.8 550.3 373.8 550.3 644.9"/>
      <polygon class="st0" points="958.6 585.8 891.8 585.8 891.8 319.4 835.6 319.4 835.6 644.9 950.6 644.9 958.6 585.8"/>
      <path class="st0" d="M345.9,644.9h54.9c0,0,4.5-42.5,4.5-42.5h18.7l16.9-48.1,9.5,90.5h54.9c0,0-44.4-325.5-44.4-325.5h-70.4l-44.3,324.4-.2,1.1ZM410.9,548.9l14.7-140.3,14.7,140.3h-29.4Z"/>
      <path class="st0" d="M654.9,644.9h54.8c0,0,4.5-42.5,4.5-42.5h18.7l16.9-48.1,9.5,90.5h54.9c0,0-44.4-325.5-44.4-325.5h-70.4l-44.3,324.4-.2,1.1ZM719.8,548.9l14.7-140.3,14.7,140.3h-29.4Z"/>
      <path class="st0" d="M1241.8,644.9h32.3c34,0,56.8-23.6,56.8-58.7v-83.4l-1.6,1.3c-3.5,2.9-8.2,6.8-9.4,7.6h0c-2.6,1.8-13.6,10.2-14.2,10.7l-11.3,10.4-19.3,11.8v28.3c0,9.5-5.7,16.6-13.3,16.6h-7.7c-7.8,0-13.3-6.8-13.3-16.6v-253.5h-55.8v265.8c0,36.3,22.3,59.7,56.8,59.7Z"/>
      <polygon class="st0" points="1308.7 510.7 1315.9 504.4 1325.5 493.9 1330.9 488.6 1330.9 319.4 1275.1 319.4 1275.1 540.8 1296.4 523 1308.7 510.7"/>
      <path class="st0" d="M1386.2,644.7c3.1-2.4,6.3-4.4,8.4-5.3,2.7-1.1,3.7-2.8,4.5-4.3.7-1.1,1.2-2.1,2.6-2.8,2.8-1.4,4.6-4.7,6-7.4.5-1,1-1.9,1.4-2.6,1.1-1.7,6.2-3.4,9.1-4h.3c0,0,1.7-2.3,1.7-2.3v-198.2l-1.6,1.3c-2.5,2-4.4,3.6-5.8,5-3,3-4.7,5.3-5.2,6.1l-6.1,2.6-5.3,3.6-7.2,6.3-5.1,6-8.8,7-9.4,13.2v175.9h20.3l.3-.2Z"/>
      <path class="st0" d="M1487.6,351.3l-7,6.9-4.5,7.2-6,8.7-13.1,13.1v57.4c0,24.4-26.4,40.2-34.5,44.5l-1.1.6,5.6,18,5.6-3.8,4.6-7.2,12.1-10.4,12.6-8.1,1.8-5.4,4.3-5.1,4.5-9.8,6.1-9.6,12.4-11.5,2.7-8,6-8.6s3.4-4.3,6.7-5.9c2-1,3.4-2.7,4.2-4l.2-.3v-49c0-11.3-2.9-20.6-8.5-27.8l-.7-.9-8.7,10.2-5.2,8.7Z"/>
      <path class="st0" d="M1510.8,454.8v-10.7l-1.7,1.6c-2.2,2-4.8,4.4-7.3,6.6-5.3,4.4-6.2,5.3-6.3,5.5-4.2,6.3-9.5,13.2-10.9,13.7-2.8,1-7,6.7-7.4,7.3l-7.8,8.6c-.9.3-4.4,1.6-6.5,1.6s-10.6,6.8-12.1,8.2l-11.4,9.6-8.7,6.1-1.8,1.1,22.1,71,1.2-1.3c2.2-2.5,4.8-5.5,5.2-6l8.6-6.9,6.3-3.6,3.6-5.3,9.6-7,8.8-8.8-10.2-34.1.7-.6c24.1-20.9,25.9-48.4,25.9-56.4Z"/>
      <path class="st0" d="M1524,644.9l-21.7-72.3-1,.5c-.9.4-2,.9-2.7,1.2h0c-2.8.9-7.7,5.8-8.2,6.3,0,0-6.1,5.3-8.7,7-2.8,1.8-6.3,7.1-6.4,7.2l-6.9,8.7c-.9.6-5.5,3.8-7.2,6.3-.3.5-.6.9-.9,1.4l-.7,1.2,10,32.4h54.5Z"/>
      <path class="st0" d="M1553.8,378.2l11.5-8c.9-.6,9-6.3,10.8-9,1.3-2,5.9-4.9,7.5-5.8l7.3-3.7,2.3-4.1-5.3-28.3h-56.2l15.3,62.6,6.7-3.8Z"/>
      <path class="st0" d="M1584.9,366.6q-1.4,1.5-2.4,1.8h-.4c-2.7,1.1-6.6,7-7.4,8.3-1,.7-5.6,3.9-8.8,8-3.5,4.3-6.9,7.8-7,7.9l-7.3,7.8,22.6,92.6,16.9-22.5,7-6.2,5.3-6.1,4.5-7.9,4-3.4-16.9-90.1-1.3,1.2c-1.2,1.2-2.6,2.5-4.1,4-2.4,2.4-3.8,3.9-4.7,4.8Z"/>
      <polygon class="st0" points="1640.4 319.4 1616.2 447 1621.9 434.2 1632.2 423.9 1637.2 422.3 1644.4 417.8 1648.1 412.4 1659.4 405.5 1669.2 394.8 1680.8 384.2 1696.7 319.4 1640.4 319.4"/>
      <path class="st0" d="M1650.6,508.3l20.1-82.7-2.5,2.4c-3.2,3.1-7.3,6.7-8.8,7.2h0c-2.8.9-3.2,5.7-3.3,7.4l-7.5,5-9.1,11.7-5.2,8.6c-.7.5-3.7,2.7-6.7,4.2-2,1-3.3,1.9-3.8,2.7l-8.5,3.4-17.7,9.8-5.3,4.5-7.1,7.1-7.3,8.1,7.5,30.7v46.9s4.1-4.5,4.1-4.5l7-9.6,5.3-4.4,7.9-7.9,6.9-7.8,6.2-5.3,4.5-7.1,6.3-7.2,6.1-10.4,5.3-6.2s3.2-4,5.8-6.6l.2-.2Z"/>
      <polygon class="st0" points="1643.1 543.2 1647.2 526.1 1640.6 532.8 1635.2 539.9 1631.7 547.9 1625.4 557.7 1619.1 572.5 1626.9 568.6 1639.3 560.6 1643.1 557 1643.1 543.2"/>
      <polygon class="st0" points="1626 598.9 1615.1 603.4 1609.8 611.4 1602.9 615.7 1597.6 619.3 1588 627.1 1585.3 628.7 1585.3 644.9 1643.1 644.9 1643.1 591.2 1638.2 593.6 1626 598.9"/>
      <path class="st0" d="M1461.6,819.8l3.4-4,3.8-1.9,6.1-6,5.3-3.3,9.3-7.4,5.9-5.9,5.3-4.6c2.7-2.5,7.6-6.6,8.9-7,2.1-.7,5.9-3.8,6.2-4.1l7.9-5.3,6.6-7.8,5.3-.7,5.4-6.1c.8-.5,5.4-3.4,7.9-5.3,2-1.5,3.2-4.2,4.2-6.3.5-1,.9-1.9,1.3-2.5.8-1.2,1.6-2.4,2.4-3.6l1.6-2.3c1.2-1.8,5.1-5,5.1-5.1l6.5-5.9,8-6.1,7.2-7.9,11.1-11.1,6.6-4.6,4.9-6.9h-74.6l-5.9,2.6-7.3,4.7c-.3.2-8,6-10,8-1.5,1.5-8.3,6.2-11.7,8.5-.3.2-6.6,4.6-9.2,6.6-1.1.8-2.4,2.1-3.7,3.3-1.7,1.6-3.6,3.5-4.6,3.8-2,.7-7.5,5.5-8.8,6.7-1,.5-8.6,4.6-11.1,5.9-2.6,1.3-9.2,7.8-10,8.6-1.2.7-11.2,6.6-13.1,7.9-1.9,1.3-10.4,6.5-10.5,6.6l-8,4.7-6.5,5.2-6.1,4.1-5.9,5.9-9.8,5.9c-.2.1-5.3,3.3-7.3,4.6-2,1.3-7.7,7.5-8.7,8.6l-9.8,5.9-7.3,4.7-10,7.4-10.5,10.5-7.3,6.6h114.4l4.4-5.3,4.5-5.2,8.4-5.2Z"/>
      <path class="st0" d="M1644.2,688.5c-2.7,1.9-5.6,4.4-5.6,4.4l-10,6-6.6,5.9-8.4,7.2-8.5,3.9-7.5,6.1-9.1,9.1c-1,.8-6.2,4.9-6.9,7.1-.3,1-4.2,4-7.6,6.2l-8.5,7.8-7.3,5.2-10.4,7.2c0,0-5.9,3.3-8.6,4.6-2.9,1.5-6.3,5-7.6,6.9-1.1,1.6-5.9,4.2-8,4.9-2.1.7-8.8,6.1-9.5,6.7-.9.6-8.8,6.1-10.2,8.2-.8,1.2-2.5,1.8-4.3,2.6-.9.3-1.7.7-2.5,1.1-2.5,1.3-6.1,4.7-6.7,5.4-.7.4-4.7,2.7-6.5,3.9-2,1.3-7.1,5.1-7.3,5.3l-12,8-8,6.7-6.7,6.6h124.8l5.9-5.9,5.8-5.1,7.4-4.7,7.3-6,5.2-4.6,5.9-4.5,5.9-4,6.8-7.4,8.4-9.7,7-1.9.3-.2c.1,0,2.7-2,4.7-4.1,1.8-1.8,2.6-4,2.8-4.8l7.1-6.4,8-8,7.9-9-.5,5.6,4.9-2.4,4.9-3.3v-61h-35.7l-.3.2Z"/>
      <path class="st0" d="M1665,775.8l-6.7,3.4-5.4,3.4-5.1,4.5c-.3.2-6.6,4-8.6,5.3-1.9,1.2-6.4,3.2-6.4,3.2l-.2.2s-3.9,3.3-5.8,4.6c-1.9,1.3-5.8,3.2-6,3.3l-5.4,4-3.9,3.9-3.9,2.6-4.5,3.2-5.3,2.6-5.3,4.7-5.1,1.9-6.2,4.8-4.4,4h103.5v-66.8l-8.4,2.6-6.7,4.7Z"/>
    </g>
    <g>
      <rect class="st0" x="709.7" y="745.7" width="10.5" height="9.7"/>
      <path class="st0" d="M775.6,751.4v-1.4h-13.6v15.4l1.7-.4c.9-.2,4.2-1.1,6.4-1.8l.9,18c-3.5,1.4-5.3,2-6.7,2.5l-2.3.8v19.8l2.2-1.5c3.7-2.5,8.2-5.8,14.2-12.3l.5-.5v-.7c-1.2-6.7-2.5-17-3.3-37.9Z"/>
      <rect class="st0" x="894.4" y="746.1" width="29.9" height="8.7"/>
      <rect class="st0" x="709.7" y="764.1" width="10.5" height="9.8"/>
      <path class="st0" d="M738.8,720.3l-1-5.2-6.6,11c-1.9-1.6-2.9-2.6-4.3-4l-1.4-1.4c-2.7-3-4.8-5.9-7-9.3l-1.4-2.1-1.1,2.3c-1.4,3.1-2.2,4.4-6.6,10l-.8,1c-2.8,3.2-4.9,5.5-8.4,8.9l-2.5,2.5h13.7v-10h13.2v10h9v51.8h-23.8v19.4l1.7-.4c2.7-.5,4.4-.8,5.8-1.1.8-.2,1.6-.3,2.3-.4l1.6-.3-.5-1.5c-.8-2.4-1.3-4.1-2-6.1l11.2-4.2c1.7,3.9,3.4,8.2,5.4,14l.3,1h7.4c3.5,0,3.5-3,3.5-4.2v-12.9l-1.9.6c-.6.2-2.4.6-4.1,1-.7.2-1.3.3-1.9.4l-2.2-20,1.6-.3c3.2-.6,6.3-1.1,7.1-1.2h1.3v-19.5h-6.8v-18.7h6.8v-11.6l-3.9.3c-1.2,0-2.6.2-3.8.3Z"/>
      <rect class="st0" x="894.4" y="724" width="29.9" height="8.6"/>
      <rect class="st0" x="1117.2" y="796.8" width="11.6" height="11.1"/>
      <rect class="st0" x="1167.2" y="742.5" width="27.8" height="15.9"/>
      <path class="st0" d="M1366.7,688.3l-6.4,5.9-6.5,4.5-8.4,2.6-7.5,6-7.2,3.2-7.4,5.4-6.6,7.2-5.9,2.6-7.3,4.6-7.6,5.1,4.9-5.5c3-2.3,8.2-5.9,9.5-6.4,2.2-.7,3.5-4.2,3.9-5.1l6.4-7.6,6.5-3.9,4.1-5.4c2.2-2.2,6.2-5.9,7.5-6.3,2.2-.7,5.9-4.5,6.4-4.9l1.8-2.1H223.3v147.1h1102.5l.3-.4c1.5-1.9,2.8-3.7,3.1-4.2.9-.7,6-4.6,7.7-5.8,2-1.4,6.6-5.9,6.9-6.2l5.9-8.4,6.5-5.2,4.1-6.7,8.5-7.8,6.1-8.7c2.5-3.5,7-9.4,8.3-10.3,1.4-.9,3.1-2.7,5-4.8,1-1,2-2.2,3.1-3.3,1.9-1.9,2.8-3,3.5-3.9.5-.7,1-1.2,1.8-2,1.9-1.9,7.1-5.8,7.2-5.8l4.1-6.1,7.1-6.5c.2-.2,4.8-4.1,6.8-7.5,1.8-2.9,4.8-4.2,4.8-4.2h.2c0,0,.2-.3.2-.3,1.3-1.6,4.9-6,6.4-7,2-1.4,3.9-2.6,6.3-3.2,2.8-.7,4.2-4.5,4.6-5.7.8-.6,3.3-2.6,5-3.7,2.1-1.4,5.3-5.3,5.5-5.5l3.9-4.5,4.6-3.9,7.3-5.5h-103.6ZM1166.3,697.2c2.7,4.7,7.1,13.3,9.6,21.1l-17.1,5.9-.3-1.4c-1.5-6.3-4.2-13.5-8.1-20.8l15.9-4.8ZM1101.2,700.1h41v13.3h-41v-13.3ZM1001.4,701.8h76.1v19h-76.1v-19ZM803.4,698.4c2.4,6.2,4.9,13.4,6.5,23.5l-11.2,3.3c-.9-6.5-2.3-14.1-6-23.5l10.7-3.3ZM796.5,826.9c-3,0-8.6-1.9-12.7-14.5l-.7-2.2-1.7,1.7c-5.3,5.2-9.1,8.2-12.7,10.8l-6.6-11.9v5.2c-.5,10.5-6.7,10.5-10.8,10.5h-12.5l-.5-5.7-12.4,3.8c-.2-1.5-.4-2.9-1-5.7l-.3-1.6-1.5.5c-5.4,1.7-16.7,4.9-31.9,7.2l-2.3-17.8c1.4,0,3-.2,4.7-.3h1.4v-70.9l-2.2,1.5c-.2,0-.5.3-.8.5l-4.1-19.1c8.9-5.6,16.2-14.3,20.4-21.1h16.8c3.9,4.5,6,6.5,8.8,8.8l3,2.4-1.1-5.7c9.6-.6,18.7-1.9,30.5-6l4.8,16.9c-2,.7-4.2,1.4-8,2.5l-1.1.3v14.5h13.1v-1.5c0-2.3,0-9.1,0-16,0-6.3,0-12.7,0-16.2h14.9v33.7h18.9v18.7h-18.6v1.5c.2,2.9.4,7.9,1.2,16.4l.4,4.8,2.3-4.2c3.1-5.8,4.7-10.6,5.9-14.8l9.4,9.9c-1.7,4.7-6.1,16.5-13.9,30l-.3.5v.6c.7,2.4,1.8,5.7,4.2,5.7s4.4-3.3,6.9-9.7l4.9,19.4c-4.4,11.1-9.3,16.8-14.7,16.8ZM935.9,826.4c-9.6-8.3-17-17-21.9-26.1l-1.3-2.5-.7-1.5c-5.3-11.7-6.7-21.2-7.3-25.8l-.2-1.2h-10.1v32.6l1.7-.3c.4,0,9.3-1.4,14.8-3.3l1,18.4c-12.7,3.8-31.3,7.2-41.7,8.6l-2.5-17-1.9,6.2c-3.4,10.1-10.2,11.6-13.9,11.6h-18.3l-3.9-20.1h14.1c2.6,0,7.4,0,8.7-8.7,1.7-10.8,1.7-18.1,1.7-21.6v-4.3l-3.1,3.3c-2.6,2.9-9.3,10.2-19,16.8l-5.9-19.9c5.6-3.3,15.6-9.2,25.3-20.1l.5-.5v-.7c-1.2-5.3-1.8-7.5-2.2-9l-.7-2.6-1.7,1.5c-5.7,5-10.1,7.9-14.2,10.5l-6.6-19.8c3.6-1.9,7.2-3.9,13.6-8.9l1.1-.8-.7-1.1c-4-5.9-7.3-9.4-10.2-12.2l13.8-11.4c2.7,2.4,5.3,5,8.8,9.9l1.2,1.6,1.2-1.7c3.1-4.4,4.1-7,5-9.5l15,6.5c-1.7,4-5.1,11.1-12.3,20.3l-.5.7.3.7c3.5,9.6,7.6,29.1,7.6,52.6s-1.1,21.5-1.6,25.8l-.2,1.6h1.6c.6,0,1,0,2.3-.2.9-.1,2.3-.3,4.6-.5l1.3-.2v-95.9h22.5v-11h18.2v11h23.1v60.9h-21.2l.4,2.2c.5,2.8,1,5.7,3.4,10.4l.8,1.7,2.8-2.5c2.9-2.5,6.7-5.9,9.2-9l10,14.9c-4.1,4.2-5.3,5-11.2,9l-1.5,1,1.2,1.2c5,5,8.7,7.4,11.9,9.3l-11.9,18.9ZM988.6,731.1v95.2h-17.7v-60.4l-3.4,4c-.7.9-1.4,1.7-2.3,2.7l-4-29.8c9.7-12.7,15.6-32.5,16.8-46.2l18,1.4c-.8,6.9-2.2,17.8-7.3,32.9v.2ZM1063.4,826.9c0-.1,0-.3,0-.5-.3-2.1-.7-4.1-1.4-7.1l-.3-1.3-1.3.2c-21.1,3.2-43.8,4.6-63.3,5.5l-2.1-19.3c2.1,0,3.4,0,5-.1h6.3c0-.1.3-1.1.3-1.1,4-12.8,8.1-26.7,10.4-42l.3-1.6h-20v-19.2h84.4v19.2h-44.8l-.3,1.1c-3.7,17.2-8.1,30.9-11.6,40.8l-.7,2.1,2.2-.2c18.4-1.3,21.9-1.5,29.3-2.5l1.7-.2-.5-1.6c-4.3-14.8-6.6-20.5-8-23.9l15.5-6.6c5.5,10.7,13.9,35.9,17.3,52.2l-18.4,6.3ZM1098.1,720.9h48.5v14h-48.5v-14ZM1101.2,755.5v-13.3h41v13.3h-41ZM1142.2,763v13.4h-41v-13.4h41ZM1204.4,825.3h-15.6c0,0-7.7-.1-7.7-9.9v-39.1h-7.8v1.4c-1.5,25-4.7,35.8-20.6,48.9l-10.5-14.4v9.2h-25v4.8h-16v-42.4h41v27.7l2.3-1.8c9.3-7.3,12.5-15,13.2-32v-1.5c0,0-8.2,0-8.2,0v-51.7h36.2l.4-.8c1.2-2.8,3.5-7.9,8.9-26.9l19.5,3.8c-1.9,6-5.5,15.7-9,21.8l-1.2,2.2h8.2v51.7h-15v25.4c0,1.3,0,4.6,3.4,4.6s4.1-.4,4.7-4c.2-1.4.6-7.2.7-10.7l12,4.1c-1.5,26.2-3.2,29.5-13.9,29.5Z"/>
    </g>
  </g>
</svg>