<svg width="40" height="40" viewBox="0 0 40 40" fill="none" xmlns="http://www.w3.org/2000/svg">
<path d="M2 4.72485L6.221 12.0148L10.4691 4.72485H2Z" fill="white"/>
<path d="M25.004 17.9413L19.9954 26.5409L19.2394 25.2359L28.4735 9.39131H29.9901L25.7645 16.6408H31.0925L38 4.72485C38 4.72485 29.1665 4.72485 27.7176 4.72485C25.841 4.72485 24.7385 6.47084 24.7385 6.47084C24.7385 6.47084 14.9059 23.3549 14.8969 23.3549C14.3929 24.3719 14.3929 26.0278 14.9059 26.9818C14.9149 26.9998 19.9999 35.7703 19.9999 35.7703L30.3411 17.9323H25.004V17.9413Z" fill="white"/>
<path d="M11.1353 15.3538H18.0429L20.7699 10.6693H13.8579L14.6183 9.36436H21.5305L24.2349 4.72485C24.2349 4.72485 15.8424 4.72485 14.0468 4.72485C12.1028 4.72485 10.9643 6.47985 10.9643 6.47985L6.97729 13.3198L9.64133 17.9144L11.1353 15.3538Z" fill="white"/>
</svg>
