<?xml version="1.0" encoding="UTF-8"?>
<svg version="1.1" xmlns="http://www.w3.org/2000/svg" width="96" height="96">
<path d="M0 0 C13.2 0 26.4 0 40 0 C38.86842545 5.65787274 37.01759295 10.59805759 35 16 C28.73 16 22.46 16 16 16 C16 19.96 16 23.92 16 28 C21.28 28 26.56 28 32 28 C32 33.28 32 38.56 32 44 C26.72 44 21.44 44 16 44 C16 52.25 16 60.5 16 69 C4 72 4 72 0 72 C0 48.24 0 24.48 0 0 Z " fill="#FFFFFF" transform="translate(32,12)"/>
<path d="M0 0 C3.63 0 7.26 0 11 0 C10.117338 9.45709282 10.117338 9.45709282 9.4765625 12.421875 C7.65212347 22.29179105 9.12796203 32.88060991 10.28833008 42.76977539 C10.94556164 48.53737736 11.11046573 54.19671337 11 60 C3.82856996 59.34941146 -3.04213448 58.01874321 -10.0625 56.4375 C-11.64708008 56.08655273 -11.64708008 56.08655273 -13.26367188 55.72851562 C-15.84341273 55.15653688 -18.42211775 54.58028727 -21 54 C-21 51.03 -21 48.06 -21 45 C-15.58242624 45.45911642 -10.46351737 46.29202535 -5.16796875 47.54296875 C-4.00934326 47.81520264 -2.85071777 48.08743652 -1.65698242 48.36791992 C-0.78017822 48.57650635 0.09662598 48.78509277 1 49 C0.89864746 48.1435791 0.79729492 47.2871582 0.69287109 46.40478516 C0.31899185 43.18176323 -0.04081174 39.95754389 -0.39160156 36.73193359 C-0.54528588 35.34459506 -0.7043296 33.95783809 -0.86914062 32.57177734 C-1.83632044 24.40382585 -2.37035027 16.9924876 0 9 C-0.99 9 -1.98 9 -3 9 C-2.41321669 5.47930015 -1.64350079 3.28700157 0 0 Z " fill="#FFFFFF" transform="translate(77,20)"/>
<path d="M0 0 C5.28 0 10.56 0 16 0 C16 2.64 16 5.28 16 8 C14.35 8.33 12.7 8.66 11 9 C11.16032715 9.62946533 11.3206543 10.25893066 11.48583984 10.9074707 C13.27244933 18.96320419 12.7114246 26.0612192 11.625 34.1875 C11.47289062 35.42564453 11.32078125 36.66378906 11.1640625 37.93945312 C10.790646 40.96179288 10.40239393 43.98140581 10 47 C12.97 46.505 12.97 46.505 16 46 C16 48.97 16 51.94 16 55 C5.62642369 59.40774487 5.62642369 59.40774487 0 60 C-0.126605 53.34884164 0.22634355 46.91480543 1 40.3125 C2.19098868 29.20144711 3.20716363 18.11168935 0.4375 7.1484375 C0 5 0 5 0 0 Z " fill="#FFFFFF" transform="translate(8,20)"/>
</svg>
