<?xml version="1.0" encoding="UTF-8"?>
<svg version="1.1" xmlns="http://www.w3.org/2000/svg" width="301" height="256">
<path d="M0 0 C0.75000222 -0.00155999 1.50000443 -0.00311998 2.27273399 -0.00472724 C4.78697059 -0.00871736 7.30114686 -0.00555532 9.81538391 -0.00241089 C11.6172845 -0.00376577 13.41918481 -0.0055462 15.22108459 -0.00772095 C20.11539378 -0.01228389 25.00968191 -0.01051064 29.90399146 -0.00734186 C35.01913495 -0.00481357 40.13427661 -0.007157 45.24942017 -0.00872803 C53.83667831 -0.01054785 62.42392785 -0.00814779 71.01118469 -0.00338745 C80.95304289 0.00206 90.89488059 0.00028825 100.83673829 -0.00521386 C109.36245579 -0.00974412 117.8881671 -0.01039612 126.41388541 -0.00777519 C131.51059385 -0.0062126 136.60729264 -0.00601825 141.70400047 -0.00931168 C146.49165182 -0.0121893 151.27927659 -0.01021672 156.06692505 -0.00441742 C157.82903308 -0.00308946 159.59114334 -0.00348454 161.3532505 -0.00568008 C163.74806361 -0.00839006 166.14279015 -0.00501243 168.53759766 0 C169.24399987 -0.00223072 169.95040209 -0.00446144 170.67821044 -0.00675976 C175.46417315 0.01283343 175.46417315 0.01283343 176.57832336 1.12698364 C176.98969222 4.33805707 177.25792235 6.94653876 175.59443665 9.83596802 C174.18107331 11.59681139 172.69491812 13.23903485 171.14082336 14.87698364 C170.02645381 16.11037623 168.91318142 17.34476095 167.80097961 18.58010864 C167.249422 19.18274536 166.69786438 19.78538208 166.1295929 20.40628052 C164.02299538 22.74296596 162.04823261 25.17457361 160.07832336 27.62698364 C156.52425344 31.98525917 152.94895141 36.32388715 149.32832336 40.62698364 C148.83267883 41.22704224 148.3370343 41.82710083 147.82637024 42.44534302 C143.70170016 47.31389707 140.0307385 50.1760248 133.57832336 51.12698364 C130.29443717 51.27359739 127.01350461 51.27070204 123.72676086 51.26882935 C122.739198 51.27230377 121.75163513 51.2757782 120.73414612 51.27935791 C118.5936082 51.28669905 116.45306275 51.29205316 114.31251526 51.29564857 C110.92498114 51.30282493 107.53759094 51.31849882 104.15010071 51.33699036 C94.52007471 51.38941646 84.89012977 51.43746707 75.25996399 51.45291138 C69.3666666 51.46298198 63.47373475 51.49227813 57.58058167 51.53423119 C55.33512636 51.54655379 53.08961948 51.55166016 50.84413147 51.54943275 C47.70565102 51.54708474 44.56822411 51.56920721 41.42988586 51.59695435 C40.50194214 51.59035294 39.57399841 51.58375153 38.61793518 51.57695007 C34.43302083 51.63776903 32.17097721 51.75832107 28.54853821 54.01167297 C26.33128545 56.39221459 25.33233674 57.96012746 24.57832336 61.12698364 C24.72181684 64.32653318 24.72181684 64.32653318 25.57832336 67.12698364 C28.07107909 68.37336151 29.75421016 68.2600033 32.54412842 68.27174377 C33.59431152 68.27864227 34.64449463 68.28554077 35.72650146 68.29264832 C36.88344009 68.29526169 38.04037872 68.29787506 39.2323761 68.30056763 C40.44704559 68.30725464 41.66171509 68.31394165 42.91319275 68.3208313 C45.55800163 68.33490869 48.20275506 68.34723092 50.84757805 68.3567791 C55.02821896 68.37221465 59.2087838 68.39616309 63.38937378 68.42167664 C75.27823587 68.4929261 87.16714136 68.5526938 99.05610657 68.60379028 C105.62021588 68.63207688 112.18424934 68.66744793 118.74827915 68.71044403 C122.90548012 68.73724445 127.06259526 68.75513224 131.21986568 68.76648128 C134.41158671 68.77773609 137.60321484 68.80186192 140.7948761 68.82400513 C141.9497905 68.82459427 143.1047049 68.82518341 144.2946167 68.82579041 C145.87412109 68.84036789 145.87412109 68.84036789 147.48553467 68.85523987 C148.86017962 68.86158778 148.86017962 68.86158778 150.26259518 68.86806393 C152.57832336 69.12698364 152.57832336 69.12698364 155.57832336 71.12698364 C155.12517227 76.03376029 154.00586224 78.30958712 150.57832336 81.81448364 C147.33243932 85.24438631 144.22876354 88.6990378 141.26582336 92.37698364 C137.6780186 96.80341412 134.02885409 101.16982139 130.32832336 105.50198364 C129.83292053 106.08496216 129.3375177 106.66794067 128.82710266 107.26858521 C118.58965996 119.21542434 118.58965996 119.21542434 111.57832336 120.12698364 C108.23678137 120.26164755 104.89946224 120.25322876 101.55561829 120.24050903 C100.04759644 120.24072807 100.04759644 120.24072807 98.5091095 120.24095154 C95.19231495 120.24025592 91.87557683 120.23247989 88.55879211 120.22463989 C86.25665314 120.22277447 83.95451378 120.22135115 81.65237427 120.22035217 C75.59760947 120.2165368 69.54286871 120.20671485 63.4881134 120.19564819 C57.30790024 120.18541303 51.12768319 120.18085004 44.94746399 120.17581177 C32.82440656 120.16509172 20.70136696 120.14802703 8.57832336 120.12698364 C8.34069275 121.16011688 8.10306213 122.19325012 7.85823059 123.25769043 C5.48331704 133.50975204 2.90826004 143.69244468 0.17207336 153.85354614 C-0.02888443 154.60149822 -0.22984222 155.3494503 -0.43688965 156.1200676 C-1.49526288 160.05827996 -2.55690454 163.99559326 -3.62138367 167.93215942 C-4.71248824 171.96989235 -5.79173765 176.01069954 -6.86852264 180.05227089 C-7.70788272 183.19400016 -8.55599053 186.33332011 -9.40646362 189.47205734 C-9.80839589 190.96140176 -10.20707586 192.45162818 -10.60229492 193.9427681 C-15.21828394 211.3317269 -15.21828394 211.3317269 -21.05839539 216.42776489 C-25.37434947 218.60829919 -29.49830678 219.47624529 -34.23417664 220.31448364 C-35.08560242 220.47883911 -35.9370282 220.64319458 -36.81425476 220.81253052 C-41.68163187 221.72817572 -46.52486073 222.41718434 -51.45707703 222.86819458 C-53.72893972 223.11631311 -53.72893972 223.11631311 -57.04667664 224.18948364 C-63.27103746 225.90435856 -70.0167859 225.27709827 -76.42167664 225.12698364 C-77.36894622 222.11128949 -77.43310613 220.20401954 -76.61593628 217.16062927 C-76.41093191 216.37838045 -76.20592754 215.59613163 -75.99471092 214.7901783 C-75.76073412 213.93750814 -75.52675732 213.08483799 -75.28569031 212.20632935 C-75.0442309 211.2965074 -74.80277149 210.38668545 -74.55399513 209.44929314 C-73.74168566 206.39792775 -72.91563526 203.35045307 -72.08964539 200.30276489 C-71.50780797 198.12812848 -70.9268286 195.95326233 -70.34664917 193.77818298 C-68.77288671 187.88787894 -67.18727175 182.0008248 -65.59934235 176.11432648 C-63.94792122 169.98533915 -62.30659756 163.85364957 -60.66435242 157.72219849 C-58.29190086 148.86832453 -55.91561279 140.01549491 -53.5349617 131.16382217 C-49.57788354 116.44982224 -45.64521857 101.72946554 -41.72726631 87.00500298 C-39.93965968 80.28888702 -38.14874251 73.57365327 -36.35771465 66.85844898 C-34.93887299 61.53829294 -33.5213772 56.21778702 -32.10707092 50.89642334 C-30.78312593 45.91614868 -29.45400268 40.93728415 -28.12092018 35.95944786 C-27.63577348 34.14441628 -27.15244013 32.32889884 -26.67108727 30.51285744 C-26.01519241 28.03931128 -25.35279573 25.56759477 -24.68876648 23.09622192 C-24.50192889 22.38536595 -24.3150913 21.67450998 -24.12259197 20.94211292 C-22.39409447 14.55974231 -20.70656831 8.60230608 -15.48417664 4.25198364 C-14.48064148 3.38960083 -14.48064148 3.38960083 -13.45683289 2.50979614 C-9.29647917 -0.31700849 -4.87864418 -0.01555344 0 0 Z " fill="#FFFFFF" transform="translate(124.42167663574219,30.873016357421875)"/>
<path d="M0 0 C1.20697258 -0.00512655 1.20697258 -0.00512655 2.43832844 -0.01035666 C5.13179053 -0.01693992 7.82425379 0.0050474 10.5176239 0.0269165 C12.4493711 0.02804489 14.38112001 0.0274113 16.31286621 0.02514648 C21.5563547 0.02399806 26.79947775 0.04752841 32.04288125 0.07544231 C37.52282122 0.10043438 43.00276941 0.10279624 48.48275757 0.10754395 C58.85955034 0.11998015 69.2361747 0.15281059 79.61289328 0.1929419 C91.42654547 0.23763946 103.24020566 0.2596416 115.05392134 0.27972364 C139.35531077 0.32154257 163.65655068 0.39190727 187.95780945 0.48101807 C188.56376648 2.31719971 188.56376648 2.31719971 188.95780945 4.48101807 C187.26249695 7.10211182 187.26249695 7.10211182 184.83280945 9.91851807 C183.65331726 11.30877197 183.65331726 11.30877197 182.44999695 12.72711182 C173.09032629 23.0696946 173.09032629 23.0696946 167.26546001 23.83454418 C165.80119186 23.8193346 165.80119186 23.8193346 164.30734253 23.80381775 C163.18138672 23.79952759 162.05543091 23.79523743 160.89535522 23.79081726 C159.66968338 23.77068069 158.44401154 23.75054413 157.18119812 23.72979736 C155.8832431 23.72048187 154.58528809 23.71116638 153.2480011 23.7015686 C149.69652693 23.67573617 146.14550598 23.63119604 142.59427047 23.58327079 C138.88012434 23.53633699 135.16584116 23.50664312 131.45153809 23.47511292 C124.42147452 23.41281976 117.39167109 23.33504426 110.3618291 23.25169259 C102.35713924 23.15753721 94.35231253 23.08066198 86.34742773 23.00523126 C69.88399307 22.84970807 53.4208659 22.67250691 36.95780945 22.48101807 C36.95780945 23.14101807 36.95780945 23.80101807 36.95780945 24.48101807 C35.88530945 24.72851807 34.81280945 24.97601807 33.70780945 25.23101807 C29.80512144 26.53191407 28.53958406 27.40482116 25.95780945 30.48101807 C24.92328832 32.76849265 24.92328832 32.76849265 24.31376648 35.34991455 C24.03910553 36.36964859 23.76444458 37.38938263 23.48146057 38.4400177 C23.18748383 39.58663376 22.89350708 40.73324982 22.59062195 41.91461182 C22.07489493 43.85251768 21.55915562 45.79042029 21.04317665 47.72825909 C20.45125572 49.96153745 19.8661333 52.19651816 19.28215027 54.43188477 C17.81494955 60.03975869 16.31778901 65.63951986 14.82011414 71.23931885 C11.46004914 83.81241183 8.11923234 96.39057655 4.78123474 108.96954346 C3.22338382 114.84003181 1.66488514 120.71034807 0.10624695 126.58062744 C-0.35417307 128.31543397 -0.35417307 128.31543397 -0.8238945 130.08528709 C-2.36745509 135.89924421 -3.91450437 141.71223535 -5.46852112 147.52340698 C-8.32207983 158.20111491 -11.15636701 168.88198117 -13.89757729 179.58917713 C-15.13317486 184.40484905 -16.3860826 189.21592956 -17.64130783 194.02651787 C-18.23000555 196.30109464 -18.81060007 198.57778629 -19.38249588 200.85664558 C-20.17388902 204.00732883 -20.99330382 207.14949332 -21.81904602 210.2913208 C-22.04188641 211.20972937 -22.26472679 212.12813793 -22.49431992 213.07437706 C-24.22075452 219.48069038 -27.01394652 224.08044446 -32.04219055 228.48101807 C-35.37812805 229.85601807 -35.37812805 229.85601807 -39.04219055 230.48101807 C-40.57675603 230.81106124 -42.11056526 231.14463302 -43.64375305 231.48101807 C-45.31742732 231.81836959 -46.9919429 232.15156869 -48.66719055 232.48101807 C-49.98082581 232.74048218 -49.98082581 232.74048218 -51.32099915 233.00518799 C-71.22571206 236.88925731 -71.22571206 236.88925731 -74.04219055 235.48101807 C-74.42874872 227.34592807 -73.39694385 220.21274058 -71.3664093 212.34820557 C-71.08175308 211.23092072 -70.79709686 210.11363586 -70.5038147 208.9624939 C-69.89851483 206.61593573 -69.28545312 204.27136727 -68.66499329 201.92877197 C-67.73273812 198.36765945 -66.85901371 194.79521826 -65.98554993 191.21929932 C-60.71529519 170.6306224 -60.71529519 170.6306224 -51.78755188 165.01226807 C-50.42859802 164.25429932 -50.42859802 164.25429932 -49.04219055 163.48101807 C-47.4609375 162.28802835 -45.89721128 161.07133899 -44.35469055 159.82867432 C-42.91867216 158.73168002 -41.48119968 157.63658624 -40.04219055 156.54351807 C-38.93810852 155.69950439 -38.93810852 155.69950439 -37.8117218 154.83843994 C-34.92667491 152.63918289 -32.06212661 150.49430877 -29.04219055 148.48101807 C-36.30219055 148.15101807 -43.56219055 147.82101807 -51.04219055 147.48101807 C-52.04219055 142.48101807 -52.04219055 142.48101807 -51.17500305 139.60211182 C-48.15110953 135.17703687 -44.27902468 132.58409109 -39.91719055 129.54351807 C-38.2678763 128.36896699 -36.61943604 127.19318766 -34.97187805 126.01617432 C-34.16202454 125.44141357 -33.35217102 124.86665283 -32.51777649 124.2744751 C-28.61285197 121.44552288 -24.82329871 118.47254522 -21.04219055 115.48101807 C-21.67310608 115.45596191 -22.30402161 115.43090576 -22.95405579 115.40509033 C-25.7961588 115.2894767 -28.63790138 115.16659491 -31.47969055 115.04351807 C-32.47291321 115.00420166 -33.46613586 114.96488525 -34.48945618 114.92437744 C-35.43369446 114.88248291 -36.37793274 114.84058838 -37.3507843 114.79742432 C-38.22533264 114.7607666 -39.09988098 114.72410889 -40.00093079 114.68634033 C-42.04219055 114.48101807 -42.04219055 114.48101807 -43.04219055 113.48101807 C-42.86294108 109.59727945 -42.69460111 107.23056822 -40.1007843 104.25054932 C-39.23582336 103.604729 -38.37086243 102.95890869 -37.47969055 102.29351807 C-36.49871399 101.54586182 -35.51773743 100.79820557 -34.5070343 100.02789307 C-33.96031067 99.6263501 -33.41358704 99.22480713 -32.85029602 98.81109619 C-30.83747029 97.33042179 -28.84773065 95.82148248 -26.8585968 94.30914307 C-16.43657683 86.41060892 -16.43657683 86.41060892 -12.04219055 83.48101807 C-13.92164368 83.42494385 -13.92164368 83.42494385 -15.83906555 83.36773682 C-17.49013676 83.30206921 -19.1411771 83.23562214 -20.79219055 83.16851807 C-22.02969055 83.13468018 -22.02969055 83.13468018 -23.29219055 83.10015869 C-30.83694691 82.76551224 -30.83694691 82.76551224 -34.04219055 79.48101807 C-33.37086707 72.04219974 -31.50178844 65.02645445 -29.5851593 57.82086182 C-29.23727822 56.5038949 -28.88956911 55.18688255 -28.54202271 53.86982727 C-27.81523739 51.12130455 -27.08421248 48.37395022 -26.35054016 45.6272583 C-25.41558435 42.12440449 -24.49466852 38.61802766 -23.57732677 35.11052608 C-22.86439492 32.39334299 -22.14230108 29.67865587 -21.41767311 26.964571 C-20.90879655 25.05025838 -20.40888584 23.13356953 -19.90917969 21.21684265 C-16.79088519 9.65231433 -13.68826587 -0.21320033 0 0 Z " fill="#FFFFFF" transform="translate(74.04219055175781,-0.48101806640625)"/>
</svg>
