<svg width="40" height="40" viewBox="0 0 40 40" fill="none" xmlns="http://www.w3.org/2000/svg">
<path d="M18.4289 2.4292H7.33148L10.2908 6.49823V33.5018L6.77661 37.5709H31.9308L35.9999 31.6523H18.4289V2.4292Z" fill="white"/>
<path d="M7.88687 9.64233C4.92756 12.6016 3.26294 16.6707 3.26294 21.1096C3.26294 25.5486 5.11251 29.6176 7.88687 32.5769V28.8778C6.40721 26.6583 5.48243 24.0689 5.48243 21.1096C5.48243 18.1503 6.40721 15.5609 7.88687 13.3415V9.64233Z" fill="white"/>
<path d="M31.0068 29.2477C32.6714 27.0282 33.5962 24.0689 33.5962 21.1096C33.5962 13.7114 27.8625 7.60784 20.6492 7.05297V4.8335C29.1572 5.38836 35.8157 12.6016 35.8157 21.1096C35.8157 24.0689 35.0758 26.8433 33.5962 29.2477H31.0068Z" fill="white"/>
<path d="M28.0471 29.2481C30.0816 27.2135 31.3763 24.2542 31.3763 21.11C31.3763 15.0064 26.7524 10.0126 20.8337 9.45776V29.2481H28.0471Z" fill="white"/>
</svg>
