<svg width="40" height="40" viewBox="0 0 40 40" fill="none" xmlns="http://www.w3.org/2000/svg">
<path d="M19.8021 2.00023C15.7962 2.02591 11.8358 3.45394 8.72437 5.96522L12.1241 9.91237C14.9933 7.64803 18.8594 6.72529 22.4452 7.43814C24.4158 7.81725 26.2909 8.68252 27.873 9.91237L31.2727 5.96522C28.0543 3.36824 23.9459 1.93814 19.8021 2.00023Z" fill="white"/>
<path d="M7.61768 6.93511C4.03544 10.3005 1.93507 15.1926 2.00153 20.1273C2.00366 25.2496 4.34025 30.2811 8.22066 33.6091C11.8075 36.7461 16.6858 38.3442 21.4483 37.9399C26.609 37.5556 31.5072 34.7992 34.5354 30.6114C37.4828 26.6316 38.6376 21.3835 37.6592 16.5168C36.9399 12.7913 34.9868 9.33872 32.209 6.77246L28.8093 10.7196C31.5486 13.3017 33.0444 17.113 32.7624 20.8731C32.639 22.736 32.0979 24.5745 31.1835 26.2106L24.2552 19.5184L20.7596 11.9834L20.7543 23.3941L27.756 30.1697C24.6359 32.5938 20.3549 33.3978 16.5614 32.3233C15.0167 31.8925 13.5541 31.1695 12.2828 30.1994L19.3322 23.3941C19.3199 19.6842 19.3752 15.6795 19.3321 11.9711L15.8313 19.5184L8.84347 26.2662C6.71164 22.5447 6.66065 17.7336 8.71256 13.9705C9.35402 12.765 10.203 11.6649 11.188 10.7196L7.78826 6.77246C7.7314 6.82668 7.67454 6.88089 7.61768 6.93511Z" fill="white"/>
</svg>
