<svg width="40" height="40" viewBox="0 0 40 40" fill="none" xmlns="http://www.w3.org/2000/svg">
<g clip-path="url(#clip0_385_16946)">
<path fill-rule="evenodd" clip-rule="evenodd" d="M10.0033 33.57V6.55814C10.7504 -0.633979 19.9971 0.0866825 20.124 0.0965704C20.1248 0.0966365 20.1253 0.0966708 20.1253 0.0966708C29.9789 -0.29067 29.9993 6.55814 29.9993 6.55814V11.6777H21.6131L21.6578 7.64434C19.8936 6.0829 18.5237 7.60042 18.5237 7.60042L18.5684 14.3654C18.7879 13.0196 23.0683 13.1074 23.0683 13.1074C29.2919 13.1074 29.9993 16.6177 29.9993 16.6177V33.7856C28.8488 40.894 19.7147 39.8118 19.7147 39.8118C9.56031 40.0314 10.0033 33.57 10.0033 33.57ZM16.5807 22.4721V34.8718H16.3245V35.5387H16.9953V35.7823H19.0075V35.5108H19.2757V29.0612C19.2757 29.0612 20.0034 28.1228 21.6863 28.3305V24.96C21.6863 24.96 23.1497 24.2212 25.8611 24.2212V21.1382C25.8611 21.1382 24.853 19.7286 22.5115 21.302C22.5115 21.302 19.8367 22.7397 19.2717 21.1263H17.0644V21.3419H16.5685V21.7973H16.3287V22.3004H16.5726L16.5807 22.4721ZM19.487 26.1621V28.059H21.4585V25.4313L21.1821 24.956H20.7269L20.7391 25.4033C20.7391 25.4033 21.2066 25.4831 21.2635 25.7706L21.0887 25.9344C21.0927 25.9304 20.5886 25.1877 19.487 26.1621Z" fill="white"/>
</g>
<defs>
<clipPath id="clip0_385_16946">
<rect width="20" height="40" fill="white" transform="translate(10)"/>
</clipPath>
</defs>
</svg>
