<svg width="40" height="40" viewBox="0 0 40 40" fill="none" xmlns="http://www.w3.org/2000/svg">
<path d="M4.84105 3.16254C6.31977 2.62387 8.08367 2.94919 9.23918 4.02865C10.7327 5.38274 11.0665 7.80784 9.95953 9.49992C9.00893 11.042 7.01477 11.8384 5.26354 11.3737C3.71299 10.9955 2.44129 9.67526 2.11175 8.11626C1.60476 6.09464 2.87646 3.83219 4.84105 3.16254Z" fill="white"/>
<path d="M11.4764 4.1215C14.7591 3.55114 18.0926 3.2575 21.426 3.35045C26.365 3.43284 31.4222 4.08136 35.9091 6.25931C36.6125 6.59519 37.2737 7.01134 37.9138 7.45496C38.3025 12.0918 37.3561 16.7625 35.5119 21.0106C35.0451 18.9974 33.1755 17.6835 31.3335 17.0138C30.1336 16.5364 28.6823 16.5449 27.6198 17.3455C27.436 17.2863 27.2522 17.2251 27.0705 17.1596C27.681 16.7603 28.3296 16.4245 28.9992 16.1393C27.8057 14.8739 25.9361 15.4675 24.5504 16.0379C24.5483 16.2639 24.5483 16.4899 24.5504 16.716L24.6306 16.528C25.2369 16.7899 25.8495 17.0307 26.4516 17.3054C25.615 17.8377 24.7489 17.337 23.923 17.0751C24.0518 16.9589 24.3074 16.7265 24.4363 16.6104C24.4067 16.454 24.1976 16.2597 24.3497 16.116C24.9179 15.4717 25.9742 15.7126 26.4706 14.9943C26.8382 15.1802 27.2226 15.3872 27.5965 15.0809C26.9227 14.4535 26.2889 13.7839 25.839 12.9748C25.6319 12.508 24.8165 12.3812 25.0489 11.7644C24.4426 11.3461 23.773 11.0398 23.0505 10.8919C23.0062 11.0419 22.9174 11.3461 22.8731 11.4961C23.1054 11.6144 23.3357 11.7369 23.5638 11.8615C23.1033 11.9482 22.6999 11.6841 22.2795 11.5468C21.0627 11.1159 19.7614 11.0757 18.4897 10.9469C18.1876 10.9067 17.8982 11.0187 17.6109 11.0968C18.3059 11.3144 18.9967 11.5468 19.6875 11.7771C19.1573 12.0474 18.6714 12.5101 18.0588 12.5439C17.2708 12.3157 16.4808 12.0559 15.7435 11.6883C15.2365 11.682 14.6725 11.8447 14.2183 11.5383C13.5973 11.194 12.9572 10.8919 12.2918 10.6469C12.0721 10.8793 11.8439 11.1032 11.6242 11.3355C11.4426 11.3102 11.0813 11.2595 10.8997 11.2341C12.4903 9.25055 12.8452 6.31846 11.4764 4.1215Z" fill="white"/>
<path d="M10.0778 14.0925C9.48626 13.1609 9.53274 11.6209 10.4094 10.8203C10.2658 11.2153 10.0968 11.5998 9.94889 11.9927L10.2404 12.2082C10.2679 12.8398 10.1306 13.4651 10.0778 14.0925Z" fill="white"/>
<path d="M12.1587 10.9788C12.7777 11.1689 13.3987 11.3759 13.9543 11.7202C13.3269 11.7794 12.7396 11.5005 12.1228 11.4414C12.1313 11.3252 12.1503 11.0949 12.1587 10.9788Z" fill="white"/>
<path d="M10.908 11.4561C11.5607 11.5744 12.2494 11.5004 12.8515 11.8384C12.3022 12.0475 11.1911 11.7391 11.1784 12.6095C11.3896 12.7616 11.6178 12.8925 11.8417 13.0256C11.7424 13.2918 11.6495 13.5601 11.5607 13.8305C11.3537 13.7291 11.1467 13.6298 10.9397 13.5326C10.9608 13.6657 11.0031 13.9319 11.0242 14.0649C11.189 14.2023 11.3516 14.3396 11.5164 14.4769C11.8523 14.1727 12.2832 13.8896 12.2198 13.3594C12.5409 13.7079 12.7585 14.1896 13.1895 14.4114C13.4514 14.0966 13.6288 13.6889 14.0154 13.4988C13.6648 13.9213 13.4366 14.4072 13.5084 14.9712C14.1844 15.1845 15.0294 14.6881 14.8076 13.9023C15.5089 13.8558 16.2124 13.8875 16.9137 13.9276L15.8068 13.3573C17.0743 12.9242 17.0891 14.5022 18.027 14.6438C18.6903 14.7092 18.9903 15.3895 19.4466 15.7739C19.6198 15.3176 19.1508 15.0684 18.9206 14.7578C19.5226 14.9944 20.0866 15.3557 20.4626 15.8922C20.0993 15.8605 19.7402 15.7845 19.3747 15.776C19.9409 16.4541 20.1479 17.4364 21.0034 17.8399C20.5176 17.6751 20.0317 17.5167 19.5437 17.3667C19.5458 16.733 19.4698 16.0507 19.0536 15.5416C18.3333 14.7663 17.2348 14.3036 16.1744 14.4811C15.5258 14.6459 15.0463 15.1465 14.514 15.5183C14.2393 15.5204 13.9647 15.5162 13.6901 15.5035C13.481 15.6831 13.274 15.8605 13.0648 16.0401C12.4269 15.6725 11.51 15.9471 11.0601 15.2648C10.9988 15.0958 10.8742 14.7578 10.8129 14.5888C11.2798 14.8022 11.6368 15.3747 12.205 15.3134C12.3233 15.0789 12.4459 14.8466 12.5705 14.6163C12.5029 14.4769 12.3677 14.2023 12.3001 14.0649C12.1649 14.122 11.8945 14.2403 11.7593 14.2994L11.8966 14.6374C11.6072 14.5466 11.3284 14.4262 11.058 14.2867C10.9312 14.3417 10.6799 14.4494 10.5531 14.5043C10.5087 13.4735 10.3038 12.3792 10.908 11.4561Z" fill="white"/>
<path d="M18.7241 12.9412C19.1783 12.561 19.6832 12.2462 20.1881 11.9399C21.0816 12.0371 21.9879 12.0709 22.8667 12.28C23.042 12.8356 23.2469 13.3806 23.4412 13.932C22.1505 13.8602 20.8704 14.0461 19.5839 14.0503C19.2881 13.6869 18.9987 13.3194 18.7241 12.9412Z" fill="white"/>
<path d="M2.90405 12.168C4.82005 13.3911 7.46063 13.6087 9.38719 12.2968C9.43789 12.6243 9.48858 12.9538 9.5414 13.2812C8.89076 14.7832 10.2723 16.3105 11.7278 16.4879C12.1756 16.4668 12.5876 16.2598 13.0037 16.1119C13.3227 16.264 13.6544 16.3865 13.9923 16.4943C13.7727 17.371 13.7642 18.4166 14.4529 19.0968C15.0697 19.6989 15.9083 20.2629 16.8125 20.1256C17.8793 19.8573 18.8658 19.1243 19.2059 18.0448C19.8375 18.5391 20.6149 18.5729 21.3733 18.499C22.364 19.0609 23.3548 19.6292 24.4575 19.9524C24.449 21.0149 25.3447 21.7459 26.3059 21.9677C27.0051 22.0585 27.5902 21.5959 28.0634 21.1438C28.9274 22.1641 30.2414 22.7239 31.5617 22.8C32.1658 22.838 32.8629 22.7936 33.3192 23.2732C33.7565 23.7168 33.7164 24.4054 33.4312 24.9209C31.6715 28.0515 29.4872 30.9731 26.7748 33.3475C26.8213 31.3174 25.4757 29.619 24.1131 28.2565C20.4015 24.7244 15.5344 22.4852 10.4899 21.6994C8.73655 21.3635 6.8797 20.9854 5.47491 19.8087C4.80949 19.2468 4.31729 18.4884 4.08069 17.6498C3.5568 15.8542 3.13854 14.0248 2.90405 12.168Z" fill="white"/>
<path d="M16.2124 12.8905C17.201 12.7764 18.1749 13.0447 19.0156 13.5644C18.422 13.4946 17.8305 13.4249 17.2369 13.3785L17.3574 13.0362C17.0067 13.0278 16.6602 13.0616 16.318 13.1419L16.2124 12.8905Z" fill="white"/>
<path d="M23.5342 13.1377C23.7623 12.8145 24.0665 13.1039 24.3137 13.237C24.7467 13.5032 25.0066 13.951 25.2854 14.3587C24.789 14.1918 24.2926 14.0165 23.8046 13.8264C23.7095 13.5982 23.6187 13.3701 23.5342 13.1377Z" fill="white"/>
<path d="M19.8647 14.441C21.4533 14.3586 23.0609 14.3629 24.6178 14.7262C23.2595 14.6417 21.7829 14.7241 20.6569 15.5754C20.4013 15.1909 20.1394 14.8128 19.8647 14.441Z" fill="white"/>
<path d="M16.5843 16.3633C16.9688 16.1858 17.3638 16.0337 17.7673 15.907C17.537 16.2957 17.2941 16.6738 17.0448 17.0498C16.8568 16.9125 16.6688 16.7773 16.4829 16.64C16.5083 16.5703 16.559 16.433 16.5843 16.3633Z" fill="white"/>
<path d="M18.1475 16.0803C18.4285 16.4099 18.6461 16.788 18.7749 17.2063C18.3588 17.1978 17.9426 17.1894 17.5286 17.1788C17.725 16.807 17.932 16.4416 18.1475 16.0803Z" fill="white"/>
<path d="M15.9696 18.5687C15.864 18.0448 15.9147 17.5125 16.1259 17.0203C16.3097 17.2019 16.4914 17.3836 16.6731 17.5674C16.4407 17.9033 16.2062 18.237 15.9696 18.5687Z" fill="white"/>
<path d="M23.6334 17.261C23.8447 17.3729 24.058 17.4849 24.2693 17.5969C23.9735 17.9074 23.7053 18.2517 23.3588 18.5116C23.0736 18.4397 22.7906 18.3595 22.5117 18.2707C22.8835 17.9327 23.2595 17.5969 23.6334 17.261Z" fill="white"/>
<path d="M27.9219 17.4936C29.4302 17.0901 30.9511 17.7999 32.1067 18.7336C33.089 19.4962 33.7861 20.5862 34.0903 21.7924C32.3073 20.8651 30.0977 21.7312 28.3761 20.5841C28.6443 19.9229 28.938 19.1983 28.7309 18.4759C28.619 18.0449 28.2049 17.8062 27.9219 17.4936Z" fill="white"/>
<path d="M17.4565 17.8082C17.8642 17.7807 18.272 17.7448 18.6797 17.7195C18.4747 18.1821 18.2022 18.6109 17.8495 18.9764C17.7164 18.5877 17.5875 18.1969 17.4565 17.8082Z" fill="white"/>
<path d="M23.9102 18.8327C24.3369 18.463 24.6221 17.8145 25.2558 17.7786C25.015 18.2285 24.7509 18.6658 24.5228 19.1221C24.3157 19.027 24.113 18.932 23.9102 18.8327Z" fill="white"/>
<path d="M16.2041 18.9996C16.333 18.5856 16.6857 18.2962 16.9413 17.9624C17.0913 18.3617 17.2434 18.7588 17.3871 19.1602C16.9899 19.1433 16.5822 19.1412 16.2041 18.9996Z" fill="white"/>
<path d="M26.9796 19.3123C26.9226 19.0039 27.3007 18.6236 27.6028 18.63C27.6091 18.9215 27.2859 19.3228 26.9796 19.3123Z" fill="white"/>
<path d="M27.4653 19.4581C27.6914 19.1624 27.9216 18.8709 28.1624 18.5857C28.2174 18.8645 28.2702 19.1455 28.3188 19.4265C28.0336 19.437 27.7484 19.4476 27.4653 19.4581Z" fill="white"/>
<path d="M27.0112 20.5818C26.0669 20.4466 26.5951 19.8149 26.914 19.5107C26.8485 19.6776 26.7155 20.0093 26.6479 20.1741C26.7978 20.2945 26.9584 20.4001 27.1189 20.5057C27.1654 20.7317 27.214 20.9578 27.2626 21.1838C27.0154 21.169 26.7704 21.1542 26.5253 21.1394C26.5951 21.0043 26.7345 20.7339 26.8042 20.6008C26.6162 20.5754 26.4303 20.5501 26.2444 20.5226L27.0112 20.5818Z" fill="white"/>
<path d="M27.366 19.9439C27.6786 19.927 27.9913 19.9122 28.3039 19.8975C28.0905 20.2481 27.8603 20.5882 27.611 20.9136C27.5265 20.5903 27.4462 20.2671 27.366 19.9439Z" fill="white"/>
<path d="M7.27246 24.606C7.58088 23.9871 8.34559 23.8878 8.96031 23.9258C12.543 24.099 16.0793 25.0201 19.3325 26.5199C21.1619 27.3987 22.9553 28.4296 24.4108 29.8639C25.1248 30.5885 25.8093 31.4166 26.0438 32.4284C26.2318 33.1995 25.9128 34.0656 25.2537 34.5113C23.7285 35.5866 22.0787 36.478 20.3782 37.2385C18.496 36.4062 16.6771 35.4134 15.0505 34.1438C12.0994 31.8665 9.73559 28.9091 7.81959 25.7298C7.61045 25.3707 7.36752 25.0158 7.27246 24.606Z" fill="white"/>
</svg>
