<svg width="40" height="40" viewBox="0 0 40 40" fill="none" xmlns="http://www.w3.org/2000/svg">
<path d="M5.31733 30.0417C4.9888 29.7541 4.66417 29.663 4.29582 29.8148C4.10733 29.8925 3.92357 29.8916 3.85786 29.6547C3.80747 29.4729 3.94223 29.393 4.087 29.3164C4.52858 29.0822 4.94594 28.9506 4.16385 28.4747C3.73759 28.2152 3.58444 27.5053 3.31688 26.9941C3.27873 26.9208 3.26399 26.8148 3.28432 26.7354C3.40014 26.281 4.29526 26.6608 4.18584 25.8169C4.14101 25.4711 4.714 25.2325 5.24384 25.4218C5.56096 25.5351 5.7798 24.5829 5.51502 24.1174C5.46351 24.0269 5.17758 24.0403 5.27419 23.9367C6.15428 22.9928 5.51503 21.89 5.58797 20.8766C5.71577 19.0985 5.65868 17.3074 5.67678 15.5219C5.68096 15.0965 5.64644 14.6967 5.42844 14.2935C5.19846 13.8681 5.07819 13.3728 5.48635 12.9354C5.54593 12.8713 5.6211 12.7703 5.6094 12.6993C5.38499 11.3328 6.4597 10.9686 7.33951 10.4607C8.47352 9.80589 9.62926 9.18667 10.7474 8.50621C11.9212 7.79177 13.0622 7.0236 14.2154 6.27603C14.3424 6.19362 14.5289 6.11288 14.5646 5.99455C14.973 4.63946 16.7059 5.08522 17.3026 3.98294C17.3605 3.8763 18.3617 4.76754 18.3695 4.99083C18.4218 6.47789 18.5529 7.96802 18.4981 9.45146C18.3725 12.8507 18.5412 16.2464 18.5365 19.6353C18.5326 22.1907 18.468 24.775 18.404 27.3452C18.3472 29.6218 18.3063 31.9018 18.5827 34.1727C18.6189 34.47 18.6251 34.7999 18.5323 35.0773C18.3664 35.5728 18.1091 35.8432 17.5272 35.4231C16.1671 34.4416 14.7152 33.5256 13.0825 33.182C12.2918 33.0155 11.9802 32.5731 11.564 32.1059C11.0113 31.4853 10.2663 31.4065 9.14981 31.8982C8.42424 32.2176 8.25358 32.146 7.95038 31.3623C7.87381 31.1646 7.71344 31.1952 7.58342 31.2066C7.33562 31.2283 7.34647 31.3884 7.37849 31.6014C7.50712 32.4542 7.28745 33.1107 6.34026 33.3488C6.18323 33.3883 5.98222 33.5356 5.93461 33.6776C5.70324 34.3678 5.22436 34.5549 4.53081 34.1707C4.43058 34.1153 4.36542 33.9257 4.28078 33.9237C2.47717 33.8786 3.07522 32.6934 3.17294 31.6986C3.21415 31.2801 3.32023 30.9577 3.72812 30.8987C4.36069 30.8051 4.55251 29.9434 5.31733 30.0417Z" fill="white"/>
<path d="M36.142 28.9807C35.8132 29.3182 35.5372 29.1781 35.2791 29.1545C35.0984 29.1381 34.79 29.0735 34.7847 29.2285C34.7549 30.1231 34.0638 29.7926 33.617 29.8962C32.0572 30.2576 30.8186 31.0024 29.8201 32.3369C29.4312 32.8567 28.8741 33.9946 27.6986 33.3567C27.4914 33.2442 27.1002 33.3102 27.0362 33.5182C26.8533 34.1135 26.3279 34.1177 25.9103 34.2229C24.2428 34.6425 22.9395 35.7506 21.4519 36.5062C20.432 37.0241 20.297 36.9879 20.2937 35.8829C20.287 33.5998 20.3126 31.3162 20.2803 29.0334C20.2703 28.3239 20.5512 27.9122 21.164 27.5973C22.1126 27.1097 23.0211 26.5456 23.9599 26.0386C24.4736 25.7613 24.4722 25.4631 24.0248 25.1675C23.3003 24.6888 22.6628 24.0599 21.7292 23.9371C21.2191 23.87 20.2973 22.6881 20.2959 22.1747C20.2886 19.7569 20.2831 17.339 20.2998 14.9215C20.3053 14.1154 20.5225 14.0021 21.242 14.4156C25.7621 17.0138 30.2754 19.6232 34.7941 22.2237C35.2766 22.5013 35.5704 22.7736 35.4323 23.4454C35.2942 24.1172 35.4005 24.8392 35.4003 25.5394C35.4003 25.5698 35.3908 25.6129 35.4067 25.6288C36.1684 26.3789 35.7001 27.1019 35.4189 27.8754C35.2301 28.3933 35.1399 29.0345 36.142 28.9807Z" fill="white"/>
<path d="M35.8057 6.79665C36.4016 7.51387 36.6201 8.27118 36.9704 8.95499C37.0347 9.08028 36.9871 9.18135 36.8996 9.28325C35.9641 10.3749 35.9238 10.5696 36.2378 11.8035C36.2863 11.9943 36.2824 12.3139 36.1657 12.4124C35.3616 13.0912 35.8753 13.8179 35.955 14.5786C36.0349 15.3423 36.2462 16.0656 35.9937 16.9622C35.7693 17.759 35.1812 18.8783 35.9474 19.8642C36.1638 20.1423 35.7943 20.4767 35.5451 20.3099C34.885 19.8675 33.817 20.499 33.4024 19.4579C33.3264 19.2672 33.0758 19.4379 32.9074 19.4332C32.4661 19.4209 31.9566 19.4184 31.9513 18.7808C31.9485 18.4306 31.7185 18.3178 31.4804 18.18C28.0311 16.1868 24.5887 14.1813 21.1268 12.2098C20.5215 11.8651 20.2698 11.4508 20.2798 10.7533C20.3127 8.47109 20.2862 6.1883 20.2943 3.9055C20.2979 2.87701 20.4842 2.7854 21.4186 3.26652C22.9719 4.06643 24.3473 5.16787 25.9354 5.90903C26.3748 6.11423 26.7941 6.42106 27.2908 6.05326C27.4497 5.93576 27.5555 6.02179 27.6845 6.12843C28.3825 6.7056 29.3859 6.80027 29.9686 7.56259C30.4628 7.13883 30.7947 7.6503 31.136 7.8193C31.8602 8.17763 32.01 7.59628 32.3107 7.22459C32.4424 7.06171 32.6156 7.03386 32.8021 7.11739C33.0146 7.21261 33.1401 7.3521 33.0928 7.61549C33.031 7.96018 33.0293 8.31879 33.501 8.34719C33.8729 8.36947 34.2688 8.39563 34.5487 8.04064C34.6383 7.92677 34.7937 7.75053 34.8844 7.76918C35.5866 7.9134 35.6913 7.40473 35.8057 6.79665Z" fill="white"/>
</svg>
