<svg width="40" height="40" viewBox="0 0 40 40" fill="none" xmlns="http://www.w3.org/2000/svg">
<path d="M4.16056 10.1787C9.42309 7.12382 14.6938 4.08154 19.9408 1C25.2159 4.0334 30.4799 7.08679 35.7528 10.1239C35.8431 10.1772 35.9298 10.2379 36.015 10.3009C36.0142 13.0988 35.9757 15.8937 35.9809 18.6909C35.9757 20.5734 35.9831 22.4552 35.9794 24.337C37.0362 25.1139 38.016 26.0011 38.8499 27.0164C39.2683 27.4971 39.6245 28.0266 40 28.5398C39.4305 28.3147 38.8921 28.0184 38.3196 27.7992C38.8306 28.979 39.1002 30.3083 38.8477 31.5843C38.6647 32.5456 38.059 33.4165 37.2065 33.9001C36.3119 34.4281 35.2648 34.5814 34.2561 34.7436C30.8998 35.2013 27.4872 34.731 24.2287 33.8919C21.122 33.0729 18.1138 31.9013 15.2307 30.489C13.5585 29.6588 11.9062 28.7746 10.3584 27.7289C12.495 28.5354 14.6086 29.4129 16.7903 30.0972C16.7963 29.6077 16.7948 29.1175 16.7911 28.6279C14.7352 27.9162 12.7387 27.0372 10.8146 26.0218C8.15819 24.6155 5.63727 22.9425 3.37555 20.9593C2.18396 19.9114 1.00718 18.8316 0 17.6022C0.516182 17.7163 1.0294 17.874 1.56336 17.8666C1.11531 17.0401 0.922758 16.0648 1.10716 15.1369C1.39969 13.5846 2.5698 12.2953 3.99245 11.6636C3.98948 11.2088 3.99763 10.7549 3.98652 10.3002C4.04355 10.2579 4.10131 10.218 4.16056 10.1787ZM5.66985 11.1977C5.65874 13.4261 5.68837 15.6545 5.65948 17.8822C5.36992 17.6126 5.13071 17.2949 4.91002 16.9683C4.47604 16.3077 4.10279 15.5968 3.89839 14.8295C3.62808 15.0206 3.44664 15.3183 3.37406 15.6397C3.2415 16.2025 3.37036 16.7913 3.57846 17.3193C4.0154 18.3695 4.68711 19.3033 5.4299 20.158C6.87699 21.8028 8.58402 23.1965 10.3533 24.4792C12.2017 25.8093 14.1398 27.0135 16.1297 28.1199C16.3149 28.2265 16.4978 28.3406 16.703 28.405C16.703 26.3758 16.7074 24.3467 16.7059 22.3175C16.6955 20.5831 16.7304 18.8471 16.6941 17.1135C14.3753 17.1231 12.0558 17.1305 9.73635 17.1142C8.94764 15.2976 8.14486 13.4869 7.34281 11.6761C15.7498 11.6761 24.1569 11.6813 32.5639 11.6761C31.7604 13.5068 30.9709 15.345 30.1659 17.1757C29.766 17.3127 29.309 17.1609 28.8884 17.2201C26.9933 17.2334 25.0981 17.2208 23.203 17.2268C23.2067 22.0746 23.2037 26.9216 23.2074 31.7695C25.8854 32.2619 28.604 32.6322 31.3323 32.5515C32.5816 32.4908 33.8621 32.4071 35.0352 31.9361C35.6017 31.7013 36.1816 31.3221 36.3815 30.7112C36.5971 30.0521 36.2905 29.3611 35.9165 28.8234C34.4316 29.6477 32.983 30.5386 31.5063 31.3769C31.2597 31.4569 30.9931 31.4355 30.7384 31.4569C29.8682 31.4777 28.9854 31.4962 28.1308 31.3088C30.1637 30.1306 32.2032 28.9642 34.2413 27.7948C34.2546 22.2634 34.2502 16.7313 34.242 11.1992C29.4742 8.4502 24.716 5.68414 19.9408 2.94846C15.1855 5.70044 10.4214 8.43909 5.66985 11.1977Z" fill="white"/>
<path d="M3.90518 23.2668C4.46135 23.7112 5.0664 24.0859 5.67515 24.454C5.67515 25.5212 5.67886 26.5883 5.67663 27.6562C5.65738 27.7459 5.707 27.8169 5.78846 27.8518C9.45727 29.9831 13.1172 32.1315 16.7897 34.2563C16.7956 33.7371 16.7875 33.2187 16.7956 32.6996C18.205 33.3105 19.618 33.92 21.0688 34.4281C22.2411 34.8495 23.4416 35.2042 24.6732 35.4086C23.0972 36.3039 21.5242 37.2045 19.9446 38.0932C14.6028 34.9502 9.22992 31.8575 3.89185 28.7086C3.91332 26.8949 3.8874 25.0805 3.90518 23.2668Z" fill="white"/>
</svg>
