<?xml version="1.0" encoding="UTF-8"?>
<svg version="1.1" xmlns="http://www.w3.org/2000/svg" width="256" height="256">
<path d="M0 0 C1.68128998 0.00022659 1.68128998 0.00022659 3.39654541 0.00045776 C4.60083191 0.01078033 5.80511841 0.02110291 7.04589844 0.03173828 C8.90187653 0.03598312 8.90187653 0.03598312 10.79534912 0.04031372 C14.07678885 0.04960878 17.35803098 0.06756373 20.6394043 0.08972168 C23.99102966 0.1102203 27.34266351 0.11915354 30.69433594 0.12939453 C37.26480579 0.14974915 43.83478627 0.18889957 50.40527344 0.22705078 C48.75527344 10.12705078 47.10527344 20.02705078 45.40527344 30.22705078 C42.82972656 30.28763672 40.25417969 30.34822266 37.60058594 30.41064453 C35.111786 30.47241665 32.62303234 30.53581149 30.13427734 30.59936523 C28.40189718 30.64273159 26.6694738 30.68440541 24.93701172 30.72436523 C22.44973717 30.78202672 19.96268051 30.84573276 17.47558594 30.91064453 C16.69845245 30.92735703 15.92131897 30.94406952 15.12063599 30.96128845 C11.13253128 30.99178507 11.13253128 30.99178507 7.40527344 32.22705078 C6.66791524 34.54369977 6.66791524 34.54369977 6.15136719 37.36376953 C5.93673828 38.41628906 5.72210938 39.46880859 5.50097656 40.55322266 C5.28376953 41.66246094 5.0665625 42.77169922 4.84277344 43.91455078 C4.62169922 45.00445312 4.400625 46.09435547 4.17285156 47.21728516 C3.16644339 52.21283992 2.24331077 57.19882678 1.40527344 62.22705078 C-6.18472656 62.22705078 -13.77472656 62.22705078 -21.59472656 62.22705078 C-20.93044016 54.91990036 -20.14777835 47.88951206 -18.85253906 40.70361328 C-18.68350067 39.7544101 -18.51446228 38.80520691 -18.34030151 37.82723999 C-17.98477228 35.84205355 -17.62668472 33.85732368 -17.26611328 31.87304688 C-16.71764411 28.8405368 -16.18524586 25.80546957 -15.65332031 22.77001953 C-15.30403651 20.83104127 -14.95380945 18.89223263 -14.60253906 16.95361328 C-14.44616974 16.05148102 -14.28980042 15.14934875 -14.12869263 14.21987915 C-13.29180402 9.70715593 -12.54422397 5.88932123 -9.59472656 2.22705078 C-6.35474085 0.17068567 -3.79764311 -0.0171065 0 0 Z " fill="#FEFEFE" transform="translate(79.5947265625,96.77294921875)"/>
<path d="M0 0 C1.68128998 0.00022659 1.68128998 0.00022659 3.39654541 0.00045776 C4.60083191 0.01078033 5.80511841 0.02110291 7.04589844 0.03173828 C8.90187653 0.03598312 8.90187653 0.03598312 10.79534912 0.04031372 C14.07678885 0.04960878 17.35803098 0.06756373 20.6394043 0.08972168 C23.99102966 0.1102203 27.34266351 0.11915354 30.69433594 0.12939453 C37.26480579 0.14974915 43.83478627 0.18889957 50.40527344 0.22705078 C48.75527344 10.12705078 47.10527344 20.02705078 45.40527344 30.22705078 C42.84132813 30.26443359 40.27738281 30.30181641 37.63574219 30.34033203 C35.15347748 30.38653914 32.67136408 30.43777563 30.18920898 30.48950195 C28.46371651 30.5227625 26.73811494 30.55079097 25.01245117 30.57348633 C22.53224178 30.60701231 20.05303314 30.65932484 17.57324219 30.71533203 C16.41528389 30.72491692 16.41528389 30.72491692 15.2339325 30.73469543 C11.17709694 30.84323304 11.17709694 30.84323304 7.48144531 32.35791016 C5.93067996 35.05134471 5.5311758 37.58314748 5.01855469 40.64501953 C4.80263672 41.89863281 4.58671875 43.15224609 4.36425781 44.44384766 C4.14850303 45.76737301 3.93301158 47.09094131 3.71777344 48.41455078 C3.4916607 49.75002409 3.26445937 51.08531357 3.03613281 52.42041016 C2.48179088 55.68748918 1.94213851 58.95705442 1.40527344 62.22705078 C-6.18472656 62.22705078 -13.77472656 62.22705078 -21.59472656 62.22705078 C-20.93044016 54.91990036 -20.14777835 47.88951206 -18.85253906 40.70361328 C-18.68350067 39.7544101 -18.51446228 38.80520691 -18.34030151 37.82723999 C-17.98477228 35.84205355 -17.62668472 33.85732368 -17.26611328 31.87304688 C-16.71764411 28.8405368 -16.18524586 25.80546957 -15.65332031 22.77001953 C-15.30403651 20.83104127 -14.95380945 18.89223263 -14.60253906 16.95361328 C-14.44616974 16.05148102 -14.28980042 15.14934875 -14.12869263 14.21987915 C-13.29180402 9.70715593 -12.54422397 5.88932123 -9.59472656 2.22705078 C-6.35474085 0.17068567 -3.79764311 -0.0171065 0 0 Z " fill="#FEFEFE" transform="translate(143.5947265625,96.77294921875)"/>
<path d="M0 0 C7.74111444 -0.12678098 15.48196116 -0.21434412 23.22387695 -0.2746582 C25.85744227 -0.29980157 28.49093782 -0.33392084 31.12426758 -0.37719727 C34.90984309 -0.4378521 38.69449598 -0.4662127 42.48046875 -0.48828125 C44.2463459 -0.52699089 44.2463459 -0.52699089 46.04789734 -0.56648254 C54.12345492 -0.56925314 54.12345492 -0.56925314 58.30932617 2.14916992 C60.40211278 5.67804635 60.33957121 7.10567397 59.5703125 11.1015625 C59.3539917 12.30216309 59.1376709 13.50276367 58.91479492 14.73974609 C58.6541626 16.02187988 58.39353027 17.30401367 58.125 18.625 C57.87540251 19.9547539 57.62844361 21.28500559 57.3840332 22.61572266 C56.87415392 25.36616071 56.34806955 28.11273364 55.80810547 30.85742188 C55.01554996 34.89358637 54.26909631 38.93719268 53.53515625 42.984375 C52.38115487 49.32768648 51.19865525 55.66497947 50 62 C42.41 62 34.82 62 27 62 C28.12348605 51.88862559 28.12348605 51.88862559 28.75390625 47.81640625 C28.88603516 46.95208984 29.01816406 46.08777344 29.15429688 45.19726562 C29.28900391 44.32779297 29.42371094 43.45832031 29.5625 42.5625 C29.83597576 40.7931754 30.10817633 39.02365308 30.37890625 37.25390625 C30.4982251 36.48377197 30.61754395 35.7136377 30.74047852 34.92016602 C31.04464599 32.99260752 31.04464599 32.99260752 31 31 C19.12 30.67 7.24 30.34 -5 30 C-3.84308511 16.11702128 -3.84308511 16.11702128 -2.5 9.375 C-2.30470703 8.33666016 -2.30470703 8.33666016 -2.10546875 7.27734375 C-1.14174107 2.28348214 -1.14174107 2.28348214 0 0 Z " fill="#FEFEFE" transform="translate(5,97)"/>
<path d="M0 0 C7.75953912 -0.0760007 15.51898242 -0.12857918 23.27880859 -0.16479492 C25.91914456 -0.1798909 28.55945542 -0.20036954 31.19970703 -0.22631836 C34.99257603 -0.26266491 38.78511377 -0.27971845 42.578125 -0.29296875 C43.76053772 -0.30845261 44.94295044 -0.32393646 46.16119385 -0.33988953 C47.26203308 -0.34011612 48.36287231 -0.34034271 49.49707031 -0.34057617 C50.46525696 -0.34723801 51.4334436 -0.35389984 52.43096924 -0.36076355 C55.5025169 0.07056738 56.86042333 0.76122054 59 3 C60.53468329 9.90617668 58.34648563 17.87940731 57.03125 24.6953125 C56.8314856 25.76876923 56.63172119 26.84222595 56.42590332 27.94821167 C55.79233614 31.34211391 55.14638668 34.73351852 54.5 38.125 C54.06558248 40.43994973 53.63198065 42.75505269 53.19921875 45.0703125 C52.14374118 50.71570211 51.07151487 56.35753873 50 62 C42.41 62 34.82 62 27 62 C27.28875 59.999375 27.5775 57.99875 27.875 55.9375 C28.64468064 50.54423783 29.39807138 45.14919305 30.125 39.75 C30.29257813 38.50734375 30.46015625 37.2646875 30.6328125 35.984375 C31.04070528 33.17030787 31.04070528 33.17030787 31 31 C19.12 30.67 7.24 30.34 -5 30 C-4.37994778 23.17942558 -3.72838139 16.63278666 -2.5 9.9375 C-2.30470703 8.82084961 -2.30470703 8.82084961 -2.10546875 7.68164062 C-1.13347551 2.26695103 -1.13347551 2.26695103 0 0 Z " fill="#FEFEFE" transform="translate(197,97)"/>
</svg>
