<svg width="40" height="40" viewBox="0 0 40 40" fill="none" xmlns="http://www.w3.org/2000/svg">
<path d="M39.6515 4.01643C39.5859 4.04753 39.5296 4.09521 39.4881 4.15476C33.8471 11.2047 28.2082 18.2547 22.5716 25.3047C22.3932 25.4597 22.5299 25.7846 22.7699 25.7463C26.8349 25.7513 30.8982 25.7463 34.9632 25.748C35.1386 25.7571 35.3137 25.724 35.4738 25.6515C35.6339 25.579 35.7742 25.4692 35.8832 25.3313L39.7565 20.493C39.9336 20.2593 40.0189 19.9688 39.9965 19.6763C39.9931 14.548 39.9965 9.4214 39.9915 4.29309C40.0181 4.10976 39.8248 3.95143 39.6515 4.01643ZM0.126666 4.03976C-0.00166666 4.10309 0.00333332 4.25976 0 4.38142C0.00222221 9.50584 0.00277776 14.6308 0.00166666 19.7563C-0.00932672 20.0373 0.0845298 20.3124 0.264999 20.528L12.9983 36.4446C13.1983 36.6979 13.5116 36.8613 13.8399 36.8563C17.9316 36.8563 22.0232 36.8613 26.1149 36.8563C26.3515 36.8896 26.4849 36.5663 26.3082 36.4146C17.7666 25.723 9.20829 15.0397 0.664997 4.34642C0.531664 4.18976 0.374998 3.89309 0.128333 4.03976H0.126666Z" fill="white"/>
</svg>
